<?xml version="1.0" encoding="utf-8"?>
<!-- Generator: Adobe Illustrator 27.1.1, SVG Export Plug-In . SVG Version: 6.00 Build 0)  -->
<svg version="1.1" id="Layer_1" xmlns="http://www.w3.org/2000/svg" xmlns:xlink="http://www.w3.org/1999/xlink" x="0px" y="0px"
	 viewBox="0 0 214.3 50" style="enable-background:new 0 0 214.3 50;" xml:space="preserve">
<style type="text/css">
	.st0{fill:#FFFFFF;}
	.st1{opacity:0.6;fill:#FFFFFF;}
	.st2{fill:#221F1F;}
	.st3{fill:url(#SVGID_1_);}
	.st4{fill:url(#SVGID_00000106869166204147379400000015232600597874408832_);}
	.st5{fill:url(#SVGID_00000090985180763384983250000005135502359674190233_);}
	.st6{fill:url(#SVGID_00000000934919478342750370000013175014266000272771_);}
	.st7{opacity:0.6;fill:url(#SVGID_00000101798418328643244980000016950966683106555522_);}
	.st8{opacity:0.6;fill:url(#SVGID_00000170245485730152326670000003163402348805346239_);}
	.st9{fill:#0958A7;}
	.st10{fill:url(#SVGID_00000178885071795505503670000000277214903928085687_);}
	.st11{fill:url(#SVGID_00000171697764311887916540000005985368076262752669_);}
	.st12{fill:url(#SVGID_00000098938412963955070600000005363588166822911646_);}
	.st13{fill:url(#SVGID_00000008857924089470090810000005235475713209588130_);}
	.st14{fill:url(#SVGID_00000067207527303498502620000003866640314433620131_);}
	.st15{fill:url(#SVGID_00000065034846671347322520000003614804749777165976_);}
	.st16{fill:url(#SVGID_00000075158767905484141050000018227714062414902975_);}
	.st17{fill:url(#SVGID_00000099645740116484408560000011010567743492913081_);}
	.st18{fill:url(#SVGID_00000142897573452208782620000006238391952771840417_);}
	.st19{fill:url(#SVGID_00000074431795690648300580000012514100754838528427_);}
	.st20{fill:url(#SVGID_00000004541890254141401300000016034724563367929023_);}
	.st21{fill:url(#SVGID_00000134235186876885961010000000975315774233742224_);}
	.st22{fill:url(#SVGID_00000181782603823586640740000015755432500450953889_);}
	.st23{fill:url(#SVGID_00000127743061686089754770000007539262901399792005_);}
	.st24{fill:url(#SVGID_00000008828879642814272840000001649175268699659688_);}
	.st25{fill:url(#SVGID_00000036931174583592673510000003041082207458725807_);}
	.st26{fill:url(#SVGID_00000181044942308447890510000004340429973026410920_);}
	.st27{opacity:0.6;fill:url(#SVGID_00000053525553494589652320000009767959839703018671_);}
	.st28{opacity:0.6;fill:url(#SVGID_00000017495718248523576130000010719244732407954317_);}
	.st29{fill:url(#SVGID_00000179644794191528135290000015495101716098905275_);}
	.st30{fill:url(#SVGID_00000076589782413960441050000010988354505392206475_);}
	.st31{fill:url(#SVGID_00000152978934293113233580000003120354008148319656_);}
	.st32{fill:url(#SVGID_00000095335959185483122820000010013749105656868769_);}
	.st33{fill:url(#SVGID_00000023256158691339398570000013103271397742813853_);}
	.st34{fill:url(#SVGID_00000031207162337379646540000013926823746408493230_);}
	.st35{fill:url(#SVGID_00000050649024877513224850000012360468231943749309_);}
	.st36{fill:url(#SVGID_00000157993538902379047860000002678175176984206504_);}
	.st37{fill:url(#SVGID_00000018197275052445802550000007633376103016553144_);}
	.st38{fill:url(#SVGID_00000178909456663225492670000007324178558747138734_);}
	.st39{fill:url(#SVGID_00000054979095280788886430000016105033298431934594_);}
	.st40{fill:url(#SVGID_00000090258815700071803460000016092578508232607167_);}
	.st41{fill:url(#SVGID_00000091701296372120249750000000733492348658209708_);}
	.st42{fill:url(#SVGID_00000168805589733461603120000015744606198387149184_);}
	.st43{fill:url(#SVGID_00000176756546274870337630000011995789062237174196_);}
	.st44{fill:url(#SVGID_00000161624426907935082800000016603216823345243284_);}
	.st45{fill:url(#SVGID_00000074442636257560574410000016484139614763488154_);}
	.st46{opacity:0.6;fill:url(#SVGID_00000057859079872449595000000013826415048655368581_);}
	.st47{opacity:0.6;fill:url(#SVGID_00000133508434982457702490000001166552858162932413_);}
	.st48{fill:url(#SVGID_00000073712146839533188080000001014756898684807314_);}
	.st49{fill:url(#SVGID_00000032628822097774712240000012840395333045625483_);}
	.st50{fill:url(#SVGID_00000157989483234984729320000003197546543396137103_);}
	.st51{fill:url(#SVGID_00000058572593943582645810000010777798975489155988_);}
	.st52{fill:url(#SVGID_00000137821596921807102860000004184742757649623203_);}
	.st53{opacity:0.6;fill:url(#SVGID_00000004538092105088514650000003973156311023704505_);}
	.st54{opacity:0.6;fill:url(#SVGID_00000168111064109698444810000010011165713960192426_);}
	.st55{fill:url(#SVGID_00000137849258370572563860000016152330489879510933_);}
	.st56{opacity:0.6;fill:url(#SVGID_00000111191358803419468320000015238596542895361173_);}
	.st57{opacity:0.6;fill:url(#SVGID_00000078028940639823315590000005095703898140312213_);}
	.st58{opacity:0.3;}
	.st59{fill:url(#SVGID_00000081623649076050857740000011218803855603864489_);}
	.st60{fill:url(#SVGID_00000027605518063495006060000004031159999789410234_);}
	.st61{fill:#2D358E;}
	.st62{fill:#43C6F2;}
</style>
<g>
	<g>
		<rect x="27.8" y="31.4" class="st2" width="1.7" height="1.7"/>
		<rect x="30.3" y="31.4" class="st2" width="1.7" height="1.7"/>
		<rect x="27.8" y="33.9" class="st2" width="1.7" height="1.7"/>
		<rect x="30.3" y="33.9" class="st2" width="1.7" height="1.7"/>
	</g>
	<g>
		<rect x="49.6" y="38.4" class="st2" width="2.7" height="2.7"/>
		<rect x="53.5" y="38.4" class="st2" width="2.7" height="2.7"/>
		<rect x="49.6" y="42.2" class="st2" width="2.7" height="2.7"/>
		<rect x="53.5" y="42.2" class="st2" width="2.7" height="2.7"/>
	</g>
	
		<linearGradient id="SVGID_1_" gradientUnits="userSpaceOnUse" x1="-5804.1982" y1="1727.0802" x2="-5804.1982" y2="1538.8527" gradientTransform="matrix(0.1914 0 0 0.1914 1132.2412 -280.9029)">
		<stop  offset="0" style="stop-color:#05509F"/>
		<stop  offset="1" style="stop-color:#26B3E8"/>
	</linearGradient>
	<path class="st3" d="M25.8,44.6v-11L17.1,38v7.2c-0.2,3.2-2.4,3-2.4,3v1.2h13.4v-1.2C28.1,48.3,25.8,48.5,25.8,44.6z"/>
	
		<linearGradient id="SVGID_00000088849288104345901180000011301750101158517424_" gradientUnits="userSpaceOnUse" x1="-5804.1982" y1="1727.0802" x2="-5804.1982" y2="1538.8527" gradientTransform="matrix(0.1914 0 0 0.1914 1132.2412 -280.9029)">
		<stop  offset="0" style="stop-color:#05509F"/>
		<stop  offset="1" style="stop-color:#26B3E8"/>
	</linearGradient>
	<path style="fill:url(#SVGID_00000088849288104345901180000011301750101158517424_);" d="M14.8,14.1v1.2c0,0,2.2-0.2,2.4,3v17
		l8.6-4.4v-12c0-3.8,2.4-3.6,2.4-3.6v-1.2H14.8z"/>
	
		<linearGradient id="SVGID_00000109027957335549621300000003632906657163168657_" gradientUnits="userSpaceOnUse" x1="-5665.8794" y1="1727.0802" x2="-5665.8794" y2="1538.8527" gradientTransform="matrix(0.1914 0 0 0.1914 1132.2412 -280.9029)">
		<stop  offset="0" style="stop-color:#05509F"/>
		<stop  offset="1" style="stop-color:#26B3E8"/>
	</linearGradient>
	<path style="fill:url(#SVGID_00000109027957335549621300000003632906657163168657_);" d="M63.1,43.9c0,0,0.1,3.7-7,3.7H42.7l0-9.6
		L34,33.5v11.8c-0.3,3.2-2.4,3-2.4,3v1.2h32.5v-5.5H63.1z"/>
	
		<linearGradient id="SVGID_00000047743252555332546340000008239900855704102037_" gradientUnits="userSpaceOnUse" x1="-5715.8271" y1="1727.0802" x2="-5715.8271" y2="1538.8527" gradientTransform="matrix(0.1914 0 0 0.1914 1132.2412 -280.9029)">
		<stop  offset="0" style="stop-color:#05509F"/>
		<stop  offset="1" style="stop-color:#26B3E8"/>
	</linearGradient>
	<path style="fill:url(#SVGID_00000047743252555332546340000008239900855704102037_);" d="M34,18.2v12.5l8.7,4.4l0-16.3
		c0-3.8,2.4-3.6,2.4-3.6v-1.2H31.7v1.2C31.7,15.2,33.8,15.1,34,18.2z"/>
	
		<radialGradient id="SVGID_00000065046604767650026480000005328549670392481180_" cx="-5714.7627" cy="1598.73" r="27.666" gradientTransform="matrix(0.1684 9.083909e-02 -9.800865e-03 1.817379e-02 1016.8536 515.1251)" gradientUnits="userSpaceOnUse">
		<stop  offset="0" style="stop-color:#707274"/>
		<stop  offset="1" style="stop-color:#FFFFFF;stop-opacity:0"/>
	</radialGradient>
	<path style="opacity:0.6;fill:url(#SVGID_00000065046604767650026480000005328549670392481180_);" d="M34,22.6
		c0.8,0.2,1.6,0.4,2.4,0.8c0.4,0.1,0.7,0.3,1.1,0.5c0.4,0.2,0.7,0.4,1.1,0.5c0.4,0.2,0.7,0.4,1.1,0.6c0.3,0.2,0.7,0.4,1,0.7
		c0.7,0.5,1.3,0.9,2,1.5l0,0.1L38.3,25L34,22.6L34,22.6z"/>
	
		<radialGradient id="SVGID_00000180325231341563059800000004215161914791423900_" cx="4097.665" cy="1599.3463" r="27.666" gradientTransform="matrix(-0.1684 9.083909e-02 9.800865e-03 1.817379e-02 695.8118 -376.1202)" gradientUnits="userSpaceOnUse">
		<stop  offset="0" style="stop-color:#707274"/>
		<stop  offset="1" style="stop-color:#FFFFFF;stop-opacity:0"/>
	</radialGradient>
	<path style="opacity:0.6;fill:url(#SVGID_00000180325231341563059800000004215161914791423900_);" d="M25.8,22.8
		c-0.8,0.2-1.6,0.4-2.4,0.8c-0.4,0.1-0.7,0.3-1.1,0.5c-0.4,0.2-0.7,0.4-1.1,0.5c-0.4,0.2-0.7,0.4-1.1,0.6c-0.3,0.2-0.7,0.4-1,0.7
		c-0.7,0.5-1.3,0.9-2,1.5l0,0.1l4.3-2.2L25.8,22.8L25.8,22.8z"/>
	
		<linearGradient id="SVGID_00000173850447709486468510000009594959516049470866_" gradientUnits="userSpaceOnUse" x1="-5916.3071" y1="1596.9346" x2="-5580.8662" y2="1596.9346" gradientTransform="matrix(0.1914 0 0 0.1914 1132.2412 -280.9029)">
		<stop  offset="0" style="stop-color:#26B3E8"/>
		<stop  offset="1" style="stop-color:#05509F"/>
	</linearGradient>
	<path style="fill:url(#SVGID_00000173850447709486468510000009594959516049470866_);" d="M64.2,17.7c0,4.9-2,9.3-5.2,12.5
		c-3.2,3.2-7.6,5.2-12.5,5.2h-3.4L30,28.7l-16,8.2v-7.9l0.8-0.4l15.2-8l15.2,8h0.9c3,0,5.7-1.2,7.7-3.2c2-2,3.2-4.7,3.2-7.7
		c0-6-4.9-10.9-10.9-10.9H11v37.8c0,3.8,2.4,3.6,2.4,3.6v1.2H0v-1.2c0,0,2.2,0.2,2.4-3V4.2C2.2,1,0,1.2,0,1.2V0h46.5
		C56.3,0,64.2,7.9,64.2,17.7z"/>
	<g>
		<path d="M43.1,35.4c0,0-13.3-6.7-13-6.6c0,0-16,8.1-16,8.1l0-0.1c1.3-0.8,2.5-1.6,3.8-2.4c3.6-2.1,8.1-4.6,11.8-6.4
			c0,0,0.4-0.2,0.4-0.2l0.3,0.2C34.6,30.3,39.3,32.6,43.1,35.4L43.1,35.4z"/>
	</g>
</g>
<g>
	<rect x="49.6" y="38.4" class="st0" width="2.7" height="2.7"/>
	<rect x="53.5" y="38.4" class="st0" width="2.7" height="2.7"/>
	<rect x="49.6" y="42.2" class="st0" width="2.7" height="2.7"/>
	<rect x="53.5" y="42.2" class="st0" width="2.7" height="2.7"/>
</g>
<g>
	<path class="st0" d="M214.3,29.1H73.6V0h140.7V29.1z M74.8,27.9h138.3V1.2H74.8V27.9z"/>
</g>
<g>
	<g>
		<path class="st0" d="M95,16.2h-8.5c-1.1,0-2.1-0.9-2.1-2.1s0.9-2.1,2.1-2.1H95c1,0,1.8-0.8,1.8-1.8V9.1c0-1-0.8-1.8-1.8-1.8H83.5
			c-1.1,0-2.1-0.9-2.1-2.1c0-1.1,0.9-2.1,2.1-2.1H95c3.3,0,5.9,2.7,5.9,5.9v1.1C101,13.5,98.3,16.2,95,16.2z"/>
	</g>
	<g>
		<path class="st0" d="M131.3,25.6h-8.2c-3.3,0-6-2.7-6-6v-3c0-3.3,2.7-6,6-6h8.2c3.3,0,6,2.7,6,6v3
			C137.2,22.9,134.6,25.6,131.3,25.6z M123.1,14.8c-1,0-1.8,0.8-1.8,1.8v3c0,1,0.8,1.8,1.8,1.8h8.2c1,0,1.8-0.8,1.8-1.8v-3
			c0-1-0.8-1.8-1.8-1.8H123.1z"/>
	</g>
	<g>
		<path class="st0" d="M158.6,25.6c-1.1,0-2.1-0.9-2.1-2.1v-7.7c0-0.9-0.7-1.6-1.6-1.6h-9.2c-0.9,0-1.6,0.7-1.6,1.6v7.7
			c0,1.1-0.9,2.1-2.1,2.1c-1.1,0-2.1-0.9-2.1-2.1v-7.7c0-3.1,2.6-5.7,5.7-5.7h9.2c3.1,0,5.7,2.6,5.7,5.7v7.7
			C160.7,24.7,159.8,25.6,158.6,25.6z"/>
	</g>
	<g>
		<path class="st0" d="M150.4,24.2c-1,0-1.7-0.8-1.7-1.7v-5.1c0-1,0.8-1.7,1.7-1.7c1,0,1.7,0.8,1.7,1.7v5.1
			C152.1,23.4,151.4,24.2,150.4,24.2z"/>
	</g>
	<g>
		<path class="st0" d="M113.4,18.7c-1,0-1.9-0.8-1.9-1.9v-2.4c0-0.3-0.2-0.5-0.5-0.5h-6.4c-1,0-1.9-0.8-1.9-1.9s0.8-1.9,1.9-1.9h6.4
			c2.3,0,4.2,1.9,4.2,4.2v2.4C115.2,17.9,114.4,18.7,113.4,18.7z"/>
	</g>
	<g>
		<path class="st0" d="M82.5,25.3c-1,0-1.7-0.8-1.7-1.7v-6.9c0-1,0.8-1.7,1.7-1.7c1,0,1.7,0.8,1.7,1.7v6.9
			C84.2,24.5,83.4,25.3,82.5,25.3z"/>
	</g>
	<g>
		<path class="st0" d="M103.4,25.5c-1,0-1.7-0.8-1.7-1.7V9c0-1,0.8-1.7,1.7-1.7c1,0,1.7,0.8,1.7,1.7v14.7
			C105.2,24.7,104.4,25.5,103.4,25.5z"/>
	</g>
	<g>
		<path class="st0" d="M166.2,25.6c-1,0-1.7-0.8-1.7-1.7V12.7c0-1,0.8-1.7,1.7-1.7c1,0,1.7,0.8,1.7,1.7v11.2
			C167.9,24.9,167.1,25.6,166.2,25.6z"/>
	</g>
	<circle class="st0" cx="166.1" cy="6.8" r="2"/>
	<g>
		<path class="st0" d="M184.8,25.6h-11.7c-1,0-1.7-0.8-1.7-1.7c0-1,0.8-1.7,1.7-1.7h11.3v-2.7h-10.1c-1.7,0-3.1-1.4-3.1-3.1V13
			c0-1.7,1.4-3.1,3.1-3.1h10.6c1,0,1.7,0.8,1.7,1.7s-0.8,1.7-1.7,1.7h-10.2v2.4h10.1c1.7,0,3.1,1.4,3.1,3.1v3.6
			C187.8,24.2,186.5,25.6,184.8,25.6z"/>
	</g>
	<g>
		<path class="st0" d="M205.4,25.9h-11.6c-1.7,0-3.1-1.4-3.1-3.1v-8.2c0-2.4,1.9-4.3,4.3-4.3h7.2c2.7,0,4.9,2.2,4.9,4.9
			s-2.2,4.9-4.9,4.9h-8v2.3h11.2c1,0,1.7,0.8,1.7,1.7C207.1,25.2,206.3,25.9,205.4,25.9z M194.2,16.7h8c0.8,0,1.4-0.6,1.4-1.4
			c0-0.8-0.6-1.4-1.4-1.4H195c-0.4,0-0.8,0.4-0.8,0.8V16.7z"/>
	</g>
</g>
<g>
	<rect x="49.6" y="38.4" class="st0" width="2.7" height="2.7"/>
	<rect x="53.5" y="38.4" class="st0" width="2.7" height="2.7"/>
	<rect x="49.6" y="42.2" class="st0" width="2.7" height="2.7"/>
	<rect x="53.5" y="42.2" class="st0" width="2.7" height="2.7"/>
</g>
<g>
	<path class="st0" d="M214.3,29.1H73.6V0h140.7V29.1z M74.8,27.9h138.3V1.2H74.8V27.9z"/>
</g>
<g>
	<path class="st0" d="M91.5,37c-0.2,0-0.3,0-0.4,0.1c-0.3,0.1-0.6,0.3-0.8,0.6c-0.6,0.7-1,2-1,3.4c0,1.4,0.4,2.6,1,3.4
		c0.2,0.3,0.5,0.5,0.8,0.6c0.1,0.1,0.3,0.1,0.4,0.1c0.3,0,0.6-0.1,0.9-0.3c0.8-0.6,1.3-2.1,1.3-3.7c0-1.7-0.5-3.1-1.3-3.7
		C92.1,37.1,91.8,37,91.5,37z"/>
	<path class="st0" d="M206.9,36.7c-0.1,0-0.1,0-0.2,0.1c-0.2,0.1-0.3,0.4-0.3,0.9v6.9c0,0.1,0,0.2,0,0.3c0,0.3,0.1,0.5,0.4,0.5
		c0.3,0,0.5-0.1,0.8-0.3c0.1-0.1,0.2-0.1,0.2-0.2c0.1-0.2,0.3-0.3,0.4-0.5c0.1-0.1,0.1-0.2,0.2-0.3c0.5-1,0.7-2.3,0.7-3
		C209.1,39.8,209,36.7,206.9,36.7z"/>
	<path class="st0" d="M73.6,31.8V50h140.7V31.8H73.6z M85.9,36.6c0,0-0.1,0-0.2,0c-0.1,0-0.3,0.1-0.3,0.4c-0.1,0.1-0.1,0.3-0.1,0.6
		v6.9c0,0.3,0,0.4,0.1,0.6c0.1,0.2,0.2,0.3,0.3,0.4c0.1,0,0.1,0,0.2,0c0,0,0,0,0,0l0,0l0,0v0.3l0,0h-3.6v-0.3c0,0,0.3,0,0.5-0.3
		c0.1-0.1,0.1-0.3,0.1-0.5V42h-2.7v2.5c0,0.4,0.1,0.6,0.2,0.8c0,0,0.1,0.1,0.1,0.1c0.1,0.1,0.2,0.1,0.2,0.1c0.1,0,0.1,0,0.1,0v0.3
		h-3.6l0,0v-0.3l0,0l0,0c0,0,0,0,0,0c0,0,0.2,0,0.3-0.1c0.2-0.1,0.3-0.3,0.3-0.7v-7.2c0-0.4-0.2-0.6-0.3-0.7
		c-0.1-0.1-0.2-0.1-0.3-0.1c0,0,0,0,0,0l0,0l0,0v-0.3l0,0h3.6v0.3c0,0,0,0-0.1,0c-0.1,0-0.1,0-0.2,0.1c0,0-0.1,0.1-0.1,0.1
		c-0.1,0.1-0.2,0.4-0.2,0.8v3.9l0,0l0,0l0,0h2.6v-4c0-0.2-0.1-0.4-0.1-0.5c-0.2-0.3-0.5-0.3-0.5-0.3v-0.3h3.6l0,0V36.6z M95.7,42.9
		c-0.5,1.1-1.3,2-2.4,2.5c-0.3,0.1-0.6,0.2-0.9,0.3c-0.3,0.1-0.6,0.1-0.9,0.1l0,0l0,0c-0.3,0-0.6,0-0.9-0.1
		c-0.9-0.2-1.7-0.6-2.3-1.3c-0.8-0.9-1.3-2-1.3-3.4c0-1.3,0.5-2.5,1.3-3.4c0.6-0.6,1.4-1.1,2.3-1.3c0.3-0.1,0.6-0.1,0.9-0.1l0,0l0,0
		c0.3,0,0.6,0,0.9,0.1c0.3,0.1,0.6,0.2,0.9,0.3c1.1,0.5,2,1.4,2.4,2.5c0.2,0.6,0.4,1.2,0.4,1.8C96,41.7,95.9,42.3,95.7,42.9z
		 M104.1,45.8L104.1,45.8h-6.8l0,0v-0.3l0,0l0,0c0,0,0,0,0,0c0,0,0.1,0,0.2,0c0.2-0.1,0.4-0.2,0.5-0.8v-7.2c0-0.5-0.3-0.7-0.5-0.8
		c-0.1,0-0.1,0-0.2,0c0,0,0,0,0,0l0,0l0,0v-0.3l0,0h3.6v0.3c0,0-0.1,0-0.2,0c-0.2,0.1-0.4,0.3-0.4,0.9l0,3.8l0,3.8h1.7
		c0.2,0,0.4,0,0.6,0c0.4-0.1,0.6-0.2,0.8-0.3c0.1-0.1,0.2-0.1,0.2-0.2c0.2-0.2,0.2-0.5,0.2-0.5l0,0h0.3l0,0V45.8z M112.5,44.2
		c-0.2,0.2-0.4,0.4-0.6,0.6c-0.7,0.6-1.6,1-2.7,1l0,0h-3.6l0,0v-0.3l0,0l0,0c0,0,0,0,0,0c0,0,0.1,0,0.2,0c0.2-0.1,0.4-0.2,0.5-0.8
		v-7.2c0-0.5-0.3-0.7-0.5-0.8c-0.1,0-0.1,0-0.2,0c0,0,0,0,0,0l0,0l0,0v-0.3l0,0c0,0,3.3,0,3.6,0l0,0c0.4,0,0.7,0,1,0.1
		c0.6,0.1,1.2,0.4,1.6,0.7c0.7,0.5,1.2,1.3,1.5,2.1c0.2,0.6,0.3,1.2,0.3,1.8C113.6,42.1,113.2,43.3,112.5,44.2z M118.5,36.6
		c0,0-0.1,0-0.2,0c-0.1,0-0.2,0.1-0.3,0.4c-0.1,0.1-0.1,0.3-0.1,0.6v6.9c0,0.3,0,0.4,0.1,0.6c0.1,0.2,0.2,0.3,0.3,0.4
		c0.1,0,0.1,0,0.2,0c0,0,0,0,0,0l0,0l0,0v0.3l0,0H115v-0.3c0,0,0.1,0,0.2,0c0.2-0.1,0.4-0.2,0.4-0.8v-7.2c0-0.5-0.3-0.7-0.4-0.8
		c-0.1,0-0.2,0-0.2,0v-0.3h3.6l0,0V36.6z M127.7,36.6L127.7,36.6L127.7,36.6C127.7,36.6,127.7,36.6,127.7,36.6c-0.2,0-0.2,0-0.3,0
		c-0.2,0.1-0.3,0.3-0.3,0.8l0,8.3l0,0h-0.9l0,0l-2.1-4.2l-2.1-4.2c0,0-0.1-0.1-0.1-0.1c0,0-0.1-0.1-0.1-0.1c0,0.1,0,0.2,0,0.3v7.2
		c0,0.6,0.2,0.8,0.4,0.8c0.1,0,0.2,0,0.2,0v0.3h-2.2v-0.3c0,0,0,0,0.1,0c0.1,0,0.2-0.1,0.3-0.2c0.1-0.1,0.2-0.3,0.2-0.6v-7.2
		c0-0.3-0.1-0.5-0.2-0.6c-0.1-0.1-0.2-0.2-0.3-0.2c-0.1,0-0.1,0-0.1,0v-0.3h3.4l2.5,5v-3.8c0-0.1,0-0.2,0-0.3
		c-0.1-0.3-0.3-0.4-0.4-0.5c-0.1,0-0.1,0-0.2,0c0,0,0,0,0,0l0,0l0,0v-0.3l0,0h2.2l0,0V36.6z M137.7,42.4c-0.1,0-0.2,0-0.2,0.1
		c0,0.1-0.1,0.2-0.1,0.4c0,0.8-0.3,1.8-1.2,2.4c-0.5,0.4-1.2,0.6-2.2,0.6c-3.5-0.1-5.1-2.2-5.1-4.8c0-2.6,2.1-4.7,4.6-4.7
		c0.3,0,0.5,0,0.8,0c0.5,0.1,1,0.2,1.4,0.4c0.2,0.1,0.4,0.3,0.6,0.4c0,0,0.1,0,0.1,0c0,0,0.1,0,0.1,0c0.2-0.1,0.4-0.5,0.6-0.5l0,0
		l0,0v2.5l-0.4,0.1l0,0l0,0c-0.2-0.3-0.3-0.7-0.6-1.1c-0.2-0.3-0.4-0.5-0.6-0.8c-0.3-0.2-0.6-0.4-1-0.5c-0.2,0-0.4-0.1-0.7-0.1
		c-1.2,0-1.9,0.7-2.3,1.8c-0.2,0.6-0.4,1.4-0.4,2.3c0,0.6,0,1.1,0.2,1.6c0.1,0.5,0.3,1,0.5,1.4c0.4,0.8,1.1,1.4,2.1,1.4
		c0.3,0,0.6,0,0.8-0.1c0.8-0.3,1.3-0.8,1.3-1.6c0-0.8-0.2-1.1-0.4-1.2c-0.1-0.1-0.2,0-0.2,0v-0.3h2.2l0,0V42.4z M145.3,45.5
		c-0.4,0.2-0.9,0.3-1.5,0.3c-0.3,0-0.6,0-0.9,0l0,0l0,0c-0.9,0-1.5-0.1-2-0.2c-0.3-0.1-0.5-0.1-0.6-0.1c-0.2,0-0.4,0-0.5,0.2l0,0
		c0,0-0.3,0-0.4,0l0,0v-2.5l0,0h0.4l0,0c0,0.8,0.9,1.4,2,1.7c0.4,0.1,0.7,0.1,1.1,0.1c1.4,0,2.1-0.7,2-1.4c0-0.2-0.1-0.5-0.3-0.7
		c-0.2-0.3-0.6-0.5-1.1-0.7c-0.1,0-0.2-0.1-0.3-0.1c-1.1-0.3-2.6-0.7-3.4-1.6c-0.2-0.2-0.3-0.4-0.4-0.6c-0.2-0.3-0.3-0.7-0.3-1.2
		c0,0,0-0.1,0-0.2c0-0.1,0-0.2,0.1-0.3c0.1-0.5,0.5-1.1,1.4-1.5c0.5-0.2,1.2-0.4,2.1-0.4l0,0l0,0c0.4,0,0.8,0,1,0.1
		c0.1,0,0.3,0.1,0.4,0.1c0.2,0.1,0.4,0.2,0.6,0.2c0.1,0,0.2,0,0.3,0c0.2,0,0.3,0,0.5-0.2c0.1,0,0.1-0.1,0.2-0.1
		c0.1,0,0.1-0.1,0.2-0.1c0,0.4,0,2.4,0,2.4l-0.3,0c0,0-0.2-1.5-2.1-1.8c-0.3-0.1-0.6-0.1-0.9-0.1c-1.6,0-2.2,2-1.1,2.4
		c0.2,0.1,0.4,0.1,0.7,0.2c0.1,0,0.3,0.1,0.4,0.1c0.7,0.2,1.5,0.4,2.3,0.7c0.8,0.3,1.4,0.8,1.8,1.5c0.2,0.4,0.3,0.9,0.3,1.6
		C146.8,44.3,146.3,45.1,145.3,45.5z M161.7,45.8L161.7,45.8h-6.8v-0.3c0,0,0.3,0,0.5-0.3c0.1-0.1,0.1-0.3,0.1-0.5v-7.2
		c0-0.2-0.1-0.4-0.1-0.5c-0.2-0.3-0.5-0.3-0.5-0.3v-0.3h3.6v0.3c0,0-0.6-0.1-0.6,1l0,7.7h1.7c0.2,0,0.4,0,0.6,0
		c0.4-0.1,0.6-0.2,0.8-0.3c0.1-0.1,0.2-0.1,0.2-0.2c0.2-0.2,0.2-0.5,0.2-0.5l0,0h0.3l0,0V45.8z M166.9,36.6c0,0-0.1,0-0.2,0
		c-0.1,0-0.2,0.1-0.3,0.4c-0.1,0.1-0.1,0.3-0.1,0.6v6.9c0,0.3,0,0.4,0.1,0.6c0.1,0.2,0.2,0.3,0.3,0.4c0.1,0,0.1,0,0.2,0c0,0,0,0,0,0
		l0,0l0,0v0.3l0,0h-3.6v-0.3c0,0,0.1,0,0.2,0c0.2-0.1,0.4-0.2,0.4-0.8v-7.2c0-0.5-0.3-0.7-0.4-0.8c-0.1,0-0.2,0-0.2,0v-0.3h3.6l0,0
		V36.6z M179.2,36.6c0,0-0.1,0-0.2,0c-0.1,0-0.2,0.1-0.3,0.4c-0.1,0.1-0.1,0.3-0.1,0.6v6.9c0,0.3,0,0.4,0.1,0.6
		c0.1,0.2,0.2,0.3,0.3,0.4c0.1,0,0.1,0,0.2,0c0,0,0,0,0,0l0,0l0,0v0.3l0,0h-3.6v-0.3c0,0,0.1,0,0.2,0c0.1,0,0.1-0.1,0.2-0.1
		c0.1-0.1,0.1-0.2,0.2-0.3c0-0.1,0-0.2,0-0.3v-7.1l-2.7,7.2l-0.3,0.8v0v0l-3.1-8v7.1c0,0.3,0,0.4,0.1,0.6c0.1,0.2,0.2,0.3,0.3,0.3
		c0,0,0.1,0,0.1,0c0.1,0,0.1,0,0.1,0l0,0l0,0v0.3l0,0h-2.2l0,0v-0.3l0,0l0,0c0,0,0,0,0,0c0,0,0.2,0,0.3-0.1c0.1-0.1,0.3-0.3,0.3-0.7
		v-7.2c0-0.4-0.2-0.6-0.3-0.7c-0.1-0.1-0.2-0.1-0.3-0.1c0,0,0,0,0,0l0,0l0,0v-0.3l0,0h3.8l0,0.3c-0.2,0.1-0.1,0.4,0,0.7
		c0,0.1,0.1,0.2,0.1,0.3l1.3,3.3l1.5-4c0,0,0-0.1,0-0.1c0-0.1,0-0.2,0-0.2c0,0,0,0-0.1,0l0.1-0.3h3.9l0,0V36.6z M184.4,36.6
		c0,0-0.6,0-0.6,1v6.9c0,1,0.6,1,0.6,1v0.3h-3.6v-0.3c0,0,0.1,0,0.3-0.1c0.1-0.1,0.2-0.2,0.3-0.4c0-0.1,0-0.2,0-0.3v-7.2
		c0-0.1,0-0.2,0-0.3c-0.1-0.2-0.2-0.4-0.3-0.4c-0.2-0.1-0.3-0.1-0.3-0.1v-0.3h3.6V36.6z M193.5,38.2h-0.3c0,0-0.3-1.3-2.2-1.3
		c0,0-0.2,0.4-0.2,0.7v6.9c0,1,0.6,1,0.6,1v0.3h-3.6l0,0v-0.3c0,0,0.2,0,0.4-0.2c0.1-0.1,0.1-0.2,0.2-0.4c0-0.1,0-0.2,0-0.3v-7.2
		c0-0.1-0.1-0.2-0.1-0.3c0-0.1-0.1-0.2-0.1-0.2c-0.2,0-0.4,0-0.6,0.1c-0.2,0-0.4,0.1-0.5,0.1c-0.3,0.1-0.5,0.3-0.7,0.4
		c-0.1,0.1-0.1,0.2-0.2,0.2c-0.2,0.2-0.2,0.4-0.2,0.4l0,0h-0.3l0.3-1.9h7l0,0l0.2,0.9L193.5,38.2L193.5,38.2z M201.1,37.2
		c-0.1-0.1-0.4-0.2-0.7-0.3c-0.2,0-0.4,0-0.6,0h-1.7v3.3h0.9c0.3,0,0.5-0.1,0.6-0.2s0.3-0.2,0.4-0.3c0.1-0.2,0.2-0.4,0.2-0.5
		c0,0,0,0,0,0l0,0h0.3v2.3h-0.3l0,0c0,0,0,0,0,0c0-0.1-0.1-0.3-0.2-0.5c-0.1-0.1-0.2-0.3-0.4-0.3s-0.4-0.2-0.6-0.2h-0.9v4.8h1.7
		c0.2,0,0.4,0,0.6,0c0.3-0.1,0.6-0.2,0.7-0.3c0.4-0.3,0.2-0.7,0.2-0.7h0.3l0,0l0.3,1.5l0,0h-6.8v-0.3c0,0,0,0,0.1,0
		c0.1,0,0.2-0.1,0.3-0.2c0.1-0.1,0.2-0.3,0.2-0.6v-7.2c0-0.3-0.1-0.5-0.2-0.6c-0.1-0.1-0.2-0.2-0.3-0.2c-0.1,0-0.1,0-0.1,0v-0.3h6.8
		l0,0l-0.3,1.5l0,0h-0.3C201.3,37.9,201.5,37.5,201.1,37.2z M209.8,44.8c-0.2,0.2-0.5,0.4-0.8,0.5c-0.3,0.1-0.6,0.3-0.9,0.3
		c-0.3,0.1-0.7,0.1-1.1,0.1l0,0h-3.6l0,0v-0.3l0,0l0,0c0,0,0,0,0,0c0,0,0.1,0,0.2,0c0.2-0.1,0.4-0.2,0.5-0.8v-7.2
		c0-0.5-0.3-0.7-0.5-0.8c-0.1,0-0.1,0-0.2,0c0,0,0,0,0,0l0,0l0,0v-0.3l0,0c0,0,3.3,0,3.6,0l0,0c0.7,0,1.3,0.1,1.9,0.4
		c1.6,0.8,2.5,2.5,2.5,4.3C211.4,42.4,210.9,43.9,209.8,44.8z"/>
	<path class="st0" d="M109,36.7c-0.1,0-0.1,0-0.2,0.1c-0.2,0.1-0.3,0.4-0.3,0.9v6.9c0,0.1,0,0.2,0,0.3c0,0.3,0.1,0.5,0.4,0.5
		c0.7,0,1.2-0.6,1.6-1.3c0.4-0.8,0.6-1.7,0.7-2.4c0-0.2,0-0.4,0-0.6C111.2,39.8,111.1,36.7,109,36.7z"/>
</g>
<g>
	<g>
		<path class="st0" d="M95,16.2h-8.5c-1.1,0-2.1-0.9-2.1-2.1s0.9-2.1,2.1-2.1H95c1,0,1.8-0.8,1.8-1.8V9.1c0-1-0.8-1.8-1.8-1.8H83.5
			c-1.1,0-2.1-0.9-2.1-2.1c0-1.1,0.9-2.1,2.1-2.1H95c3.3,0,5.9,2.7,5.9,5.9v1.1C101,13.5,98.3,16.2,95,16.2z"/>
	</g>
	<g>
		<path class="st0" d="M131.3,25.6h-8.2c-3.3,0-6-2.7-6-6v-3c0-3.3,2.7-6,6-6h8.2c3.3,0,6,2.7,6,6v3
			C137.2,22.9,134.6,25.6,131.3,25.6z M123.1,14.8c-1,0-1.8,0.8-1.8,1.8v3c0,1,0.8,1.8,1.8,1.8h8.2c1,0,1.8-0.8,1.8-1.8v-3
			c0-1-0.8-1.8-1.8-1.8H123.1z"/>
	</g>
	<g>
		<path class="st0" d="M158.6,25.6c-1.1,0-2.1-0.9-2.1-2.1v-7.7c0-0.9-0.7-1.6-1.6-1.6h-9.2c-0.9,0-1.6,0.7-1.6,1.6v7.7
			c0,1.1-0.9,2.1-2.1,2.1c-1.1,0-2.1-0.9-2.1-2.1v-7.7c0-3.1,2.6-5.7,5.7-5.7h9.2c3.1,0,5.7,2.6,5.7,5.7v7.7
			C160.7,24.7,159.8,25.6,158.6,25.6z"/>
	</g>
	<g>
		<path class="st0" d="M150.4,24.2c-1,0-1.7-0.8-1.7-1.7v-5.1c0-1,0.8-1.7,1.7-1.7c1,0,1.7,0.8,1.7,1.7v5.1
			C152.1,23.4,151.4,24.2,150.4,24.2z"/>
	</g>
	<g>
		<path class="st0" d="M113.4,18.7c-1,0-1.9-0.8-1.9-1.9v-2.4c0-0.3-0.2-0.5-0.5-0.5h-6.4c-1,0-1.9-0.8-1.9-1.9s0.8-1.9,1.9-1.9h6.4
			c2.3,0,4.2,1.9,4.2,4.2v2.4C115.2,17.9,114.4,18.7,113.4,18.7z"/>
	</g>
	<g>
		<path class="st0" d="M82.5,25.3c-1,0-1.7-0.8-1.7-1.7v-6.9c0-1,0.8-1.7,1.7-1.7c1,0,1.7,0.8,1.7,1.7v6.9
			C84.2,24.5,83.4,25.3,82.5,25.3z"/>
	</g>
	<g>
		<path class="st0" d="M103.4,25.5c-1,0-1.7-0.8-1.7-1.7V9c0-1,0.8-1.7,1.7-1.7c1,0,1.7,0.8,1.7,1.7v14.7
			C105.2,24.7,104.4,25.5,103.4,25.5z"/>
	</g>
	<g>
		<path class="st0" d="M166.2,25.6c-1,0-1.7-0.8-1.7-1.7V12.7c0-1,0.8-1.7,1.7-1.7c1,0,1.7,0.8,1.7,1.7v11.2
			C167.9,24.9,167.1,25.6,166.2,25.6z"/>
	</g>
	<circle class="st0" cx="166.1" cy="6.8" r="2"/>
	<g>
		<path class="st0" d="M184.8,25.6h-11.7c-1,0-1.7-0.8-1.7-1.7c0-1,0.8-1.7,1.7-1.7h11.3v-2.7h-10.1c-1.7,0-3.1-1.4-3.1-3.1V13
			c0-1.7,1.4-3.1,3.1-3.1h10.6c1,0,1.7,0.8,1.7,1.7s-0.8,1.7-1.7,1.7h-10.2v2.4h10.1c1.7,0,3.1,1.4,3.1,3.1v3.6
			C187.8,24.2,186.5,25.6,184.8,25.6z"/>
	</g>
	<g>
		<path class="st0" d="M205.4,25.9h-11.6c-1.7,0-3.1-1.4-3.1-3.1v-8.2c0-2.4,1.9-4.3,4.3-4.3h7.2c2.7,0,4.9,2.2,4.9,4.9
			s-2.2,4.9-4.9,4.9h-8v2.3h11.2c1,0,1.7,0.8,1.7,1.7C207.1,25.2,206.3,25.9,205.4,25.9z M194.2,16.7h8c0.8,0,1.4-0.6,1.4-1.4
			c0-0.8-0.6-1.4-1.4-1.4H195c-0.4,0-0.8,0.4-0.8,0.8V16.7z"/>
	</g>
</g>
</svg>
