<?xml version="1.0" encoding="utf-8"?>
<!-- Generator: Adobe Illustrator 27.1.1, SVG Export Plug-In . SVG Version: 6.00 Build 0)  -->
<svg version="1.1" id="Layer_1" xmlns="http://www.w3.org/2000/svg" xmlns:xlink="http://www.w3.org/1999/xlink" x="0px" y="0px"
	 viewBox="0 0 214.3 50" style="enable-background:new 0 0 214.3 50;" xml:space="preserve">
<style type="text/css">
	.st0{fill:#FFFFFF;}
	.st1{opacity:0.6;fill:#FFFFFF;}
	.st2{fill:#221F1F;}
	.st3{fill:url(#SVGID_1_);}
	.st4{fill:url(#SVGID_00000034784865525954966120000007248094293567505055_);}
	.st5{fill:url(#SVGID_00000067194930353983045830000012126853992165178521_);}
	.st6{fill:url(#SVGID_00000127766544352262561800000009647114729518996153_);}
	.st7{opacity:0.6;fill:url(#SVGID_00000127037246102940721230000010712402423848302232_);}
	.st8{opacity:0.6;fill:url(#SVGID_00000075865957063283361240000005893113145063481755_);}
	.st9{fill:#0958A7;}
	.st10{fill:url(#SVGID_00000170257691426904943740000011224337343085574076_);}
	.st11{fill:url(#SVGID_00000167383340155867564440000008236339752562392964_);}
	.st12{fill:url(#SVGID_00000178168103938605220620000013436658840211152780_);}
	.st13{fill:url(#SVGID_00000155147000819577250360000002918016731935404200_);}
	.st14{fill:url(#SVGID_00000062909859619864674200000007118773069750148774_);}
	.st15{fill:url(#SVGID_00000023246856403704025640000015135929644529415867_);}
	.st16{fill:url(#SVGID_00000106149193015542148830000004482801753250483638_);}
	.st17{fill:url(#SVGID_00000172411531019974748110000012662068424823526556_);}
	.st18{fill:url(#SVGID_00000002351238227277480300000014363036191310443394_);}
	.st19{fill:url(#SVGID_00000043459141573616831830000010815192877706623933_);}
	.st20{fill:url(#SVGID_00000113334701040308618360000007199028596168129700_);}
	.st21{fill:url(#SVGID_00000179627658580478497700000011984016304035938237_);}
	.st22{fill:url(#SVGID_00000067948567923284576240000008258626187222379141_);}
	.st23{fill:url(#SVGID_00000183249967304074897380000003494894334575953066_);}
	.st24{fill:url(#SVGID_00000067235856800189803440000008434117946649557917_);}
	.st25{fill:url(#SVGID_00000138551393887112977520000006343754955244286089_);}
	.st26{fill:url(#SVGID_00000008131717875909799720000001469673651702369697_);}
	.st27{opacity:0.6;fill:url(#SVGID_00000118357396332420728630000002521948526681233072_);}
	.st28{opacity:0.6;fill:url(#SVGID_00000104676707434659724440000014942207429327868291_);}
	.st29{fill:url(#SVGID_00000097483598034093154760000011603515438303125155_);}
	.st30{fill:url(#SVGID_00000064350731725963112540000002006813049080660636_);}
	.st31{fill:url(#SVGID_00000091736661960385322770000007609187071227404447_);}
	.st32{fill:url(#SVGID_00000108284886742551566120000003718182111760227771_);}
	.st33{fill:url(#SVGID_00000112591120877745995740000008349050837364962207_);}
	.st34{fill:url(#SVGID_00000070085808225650115000000007620777728446076846_);}
	.st35{fill:url(#SVGID_00000094576906741510490020000004591052758890868373_);}
	.st36{fill:url(#SVGID_00000146498426158110699820000003700715866019945391_);}
	.st37{fill:url(#SVGID_00000071542648917067855000000000627981204867371701_);}
	.st38{fill:url(#SVGID_00000024718589050176809570000010918389708224381374_);}
	.st39{fill:url(#SVGID_00000183970804941006817330000009060059011899319477_);}
	.st40{fill:url(#SVGID_00000069367071323236563590000004420081393357679240_);}
	.st41{fill:url(#SVGID_00000145027624939694025170000007013691403181276828_);}
	.st42{fill:url(#SVGID_00000170237427055395325070000013141408390343162557_);}
	.st43{fill:url(#SVGID_00000072994533197563319460000014340641048639352254_);}
	.st44{fill:url(#SVGID_00000047763420765905248070000000060395527389527686_);}
	.st45{fill:url(#SVGID_00000005986978436126531380000012054843594085098921_);}
	.st46{opacity:0.6;fill:url(#SVGID_00000057144882954638571490000005980360695247531142_);}
	.st47{opacity:0.6;fill:url(#SVGID_00000155866803608595473700000015524100889454387375_);}
	.st48{fill:url(#SVGID_00000143589526809864439130000012168987913240585393_);}
	.st49{fill:url(#SVGID_00000102530669326748118230000001613042169774450584_);}
	.st50{fill:url(#SVGID_00000039841657089887468500000014907493430706311824_);}
	.st51{fill:url(#SVGID_00000071548047998887642520000010492217392236755590_);}
	.st52{fill:url(#SVGID_00000025430717197836458320000007767647911298358205_);}
	.st53{opacity:0.6;fill:url(#SVGID_00000116947812617615021340000018102255075475332009_);}
	.st54{opacity:0.6;fill:url(#SVGID_00000014621537925492841530000010725347541473306505_);}
	.st55{fill:url(#SVGID_00000030481686102193876990000003366451718643109253_);}
	.st56{opacity:0.6;fill:url(#SVGID_00000180340389733160849150000002914662307117205412_);}
	.st57{opacity:0.6;fill:url(#SVGID_00000110433637801267612870000007448168355529808776_);}
	.st58{opacity:0.3;}
	.st59{fill:url(#SVGID_00000029021131380979534490000013807675861487179939_);}
	.st60{fill:url(#SVGID_00000061450617788366503380000016732242523394459051_);}
	.st61{fill:#2D358E;}
	.st62{fill:#43C6F2;}
</style>
<g>
	<g>
		<rect x="27.8" y="31.4" class="st0" width="1.7" height="1.7"/>
		<rect x="30.3" y="31.4" class="st0" width="1.7" height="1.7"/>
		<rect x="27.8" y="33.9" class="st0" width="1.7" height="1.7"/>
		<rect x="30.3" y="33.9" class="st0" width="1.7" height="1.7"/>
	</g>
	<g>
		<rect x="49.6" y="38.4" class="st2" width="2.7" height="2.7"/>
		<rect x="53.5" y="38.4" class="st2" width="2.7" height="2.7"/>
		<rect x="49.6" y="42.2" class="st2" width="2.7" height="2.7"/>
		<rect x="53.5" y="42.2" class="st2" width="2.7" height="2.7"/>
	</g>
	
		<linearGradient id="SVGID_1_" gradientUnits="userSpaceOnUse" x1="-5804.1982" y1="1727.0802" x2="-5804.1982" y2="1538.8527" gradientTransform="matrix(0.1914 0 0 0.1914 1132.2412 -280.9029)">
		<stop  offset="0" style="stop-color:#05509F"/>
		<stop  offset="1" style="stop-color:#26B3E8"/>
	</linearGradient>
	<path class="st3" d="M25.8,44.6v-11L17.1,38v7.2c-0.2,3.2-2.4,3-2.4,3v1.2h13.4v-1.2C28.1,48.3,25.8,48.5,25.8,44.6z"/>
	
		<linearGradient id="SVGID_00000119117162135645673390000002642064064127708035_" gradientUnits="userSpaceOnUse" x1="-5804.1982" y1="1727.0802" x2="-5804.1982" y2="1538.8527" gradientTransform="matrix(0.1914 0 0 0.1914 1132.2412 -280.9029)">
		<stop  offset="0" style="stop-color:#05509F"/>
		<stop  offset="1" style="stop-color:#26B3E8"/>
	</linearGradient>
	<path style="fill:url(#SVGID_00000119117162135645673390000002642064064127708035_);" d="M14.8,14.1v1.2c0,0,2.2-0.2,2.4,3v17
		l8.6-4.4v-12c0-3.8,2.4-3.6,2.4-3.6v-1.2H14.8z"/>
	
		<linearGradient id="SVGID_00000036210103022134257990000000888379688937366188_" gradientUnits="userSpaceOnUse" x1="-5665.8794" y1="1727.0802" x2="-5665.8794" y2="1538.8527" gradientTransform="matrix(0.1914 0 0 0.1914 1132.2412 -280.9029)">
		<stop  offset="0" style="stop-color:#05509F"/>
		<stop  offset="1" style="stop-color:#26B3E8"/>
	</linearGradient>
	<path style="fill:url(#SVGID_00000036210103022134257990000000888379688937366188_);" d="M63.1,43.9c0,0,0.1,3.7-7,3.7H42.7l0-9.6
		L34,33.5v11.8c-0.3,3.2-2.4,3-2.4,3v1.2h32.5v-5.5H63.1z"/>
	
		<linearGradient id="SVGID_00000124156745387555911450000012596559277562538129_" gradientUnits="userSpaceOnUse" x1="-5715.8271" y1="1727.0802" x2="-5715.8271" y2="1538.8527" gradientTransform="matrix(0.1914 0 0 0.1914 1132.2412 -280.9029)">
		<stop  offset="0" style="stop-color:#05509F"/>
		<stop  offset="1" style="stop-color:#26B3E8"/>
	</linearGradient>
	<path style="fill:url(#SVGID_00000124156745387555911450000012596559277562538129_);" d="M34,18.2v12.5l8.7,4.4l0-16.3
		c0-3.8,2.4-3.6,2.4-3.6v-1.2H31.7v1.2C31.7,15.2,33.8,15.1,34,18.2z"/>
	
		<radialGradient id="SVGID_00000099629000869002320580000016233530504489718460_" cx="-5714.7627" cy="1598.73" r="27.666" gradientTransform="matrix(0.1684 9.083909e-02 -9.800865e-03 1.817379e-02 1016.8536 515.1251)" gradientUnits="userSpaceOnUse">
		<stop  offset="0" style="stop-color:#707274"/>
		<stop  offset="1" style="stop-color:#FFFFFF;stop-opacity:0"/>
	</radialGradient>
	<path style="opacity:0.6;fill:url(#SVGID_00000099629000869002320580000016233530504489718460_);" d="M34,22.6
		c0.8,0.2,1.6,0.4,2.4,0.8c0.4,0.1,0.7,0.3,1.1,0.5c0.4,0.2,0.7,0.4,1.1,0.5c0.4,0.2,0.7,0.4,1.1,0.6c0.3,0.2,0.7,0.4,1,0.7
		c0.7,0.5,1.3,0.9,2,1.5l0,0.1L38.3,25L34,22.6L34,22.6z"/>
	
		<radialGradient id="SVGID_00000160898626361647999570000008139300772505366923_" cx="4097.665" cy="1599.3463" r="27.666" gradientTransform="matrix(-0.1684 9.083909e-02 9.800865e-03 1.817379e-02 695.8118 -376.1202)" gradientUnits="userSpaceOnUse">
		<stop  offset="0" style="stop-color:#707274"/>
		<stop  offset="1" style="stop-color:#FFFFFF;stop-opacity:0"/>
	</radialGradient>
	<path style="opacity:0.6;fill:url(#SVGID_00000160898626361647999570000008139300772505366923_);" d="M25.8,22.8
		c-0.8,0.2-1.6,0.4-2.4,0.8c-0.4,0.1-0.7,0.3-1.1,0.5c-0.4,0.2-0.7,0.4-1.1,0.5c-0.4,0.2-0.7,0.4-1.1,0.6c-0.3,0.2-0.7,0.4-1,0.7
		c-0.7,0.5-1.3,0.9-2,1.5l0,0.1l4.3-2.2L25.8,22.8L25.8,22.8z"/>
	
		<linearGradient id="SVGID_00000136390211110218748840000011470221133990723507_" gradientUnits="userSpaceOnUse" x1="-5916.3071" y1="1596.9346" x2="-5580.8662" y2="1596.9346" gradientTransform="matrix(0.1914 0 0 0.1914 1132.2412 -280.9029)">
		<stop  offset="0" style="stop-color:#26B3E8"/>
		<stop  offset="1" style="stop-color:#05509F"/>
	</linearGradient>
	<path style="fill:url(#SVGID_00000136390211110218748840000011470221133990723507_);" d="M64.2,17.7c0,4.9-2,9.3-5.2,12.5
		c-3.2,3.2-7.6,5.2-12.5,5.2h-3.4L30,28.7l-16,8.2v-7.9l0.8-0.4l15.2-8l15.2,8h0.9c3,0,5.7-1.2,7.7-3.2c2-2,3.2-4.7,3.2-7.7
		c0-6-4.9-10.9-10.9-10.9H11v37.8c0,3.8,2.4,3.6,2.4,3.6v1.2H0v-1.2c0,0,2.2,0.2,2.4-3V4.2C2.2,1,0,1.2,0,1.2V0h46.5
		C56.3,0,64.2,7.9,64.2,17.7z"/>
	<g>
		<path d="M43.1,35.4c0,0-13.3-6.7-13-6.6c0,0-16,8.1-16,8.1l0-0.1c1.3-0.8,2.5-1.6,3.8-2.4c3.6-2.1,8.1-4.6,11.8-6.4
			c0,0,0.4-0.2,0.4-0.2l0.3,0.2C34.6,30.3,39.3,32.6,43.1,35.4L43.1,35.4z"/>
	</g>
</g>
<g>
	<rect x="49.6" y="38.4" class="st0" width="2.7" height="2.7"/>
	<rect x="53.5" y="38.4" class="st0" width="2.7" height="2.7"/>
	<rect x="49.6" y="42.2" class="st0" width="2.7" height="2.7"/>
	<rect x="53.5" y="42.2" class="st0" width="2.7" height="2.7"/>
</g>
<g>
	<path class="st0" d="M214.3,29.1H73.6V0h140.7V29.1z M74.8,27.9h138.3V1.2H74.8V27.9z"/>
</g>
<g>
	<g>
		<path class="st0" d="M95,16.2h-8.5c-1.1,0-2.1-0.9-2.1-2.1s0.9-2.1,2.1-2.1H95c1,0,1.8-0.8,1.8-1.8V9.1c0-1-0.8-1.8-1.8-1.8H83.5
			c-1.1,0-2.1-0.9-2.1-2.1c0-1.1,0.9-2.1,2.1-2.1H95c3.3,0,5.9,2.7,5.9,5.9v1.1C101,13.5,98.3,16.2,95,16.2z"/>
	</g>
	<g>
		<path class="st0" d="M131.3,25.6h-8.2c-3.3,0-6-2.7-6-6v-3c0-3.3,2.7-6,6-6h8.2c3.3,0,6,2.7,6,6v3
			C137.2,22.9,134.6,25.6,131.3,25.6z M123.1,14.8c-1,0-1.8,0.8-1.8,1.8v3c0,1,0.8,1.8,1.8,1.8h8.2c1,0,1.8-0.8,1.8-1.8v-3
			c0-1-0.8-1.8-1.8-1.8H123.1z"/>
	</g>
	<g>
		<path class="st0" d="M158.6,25.6c-1.1,0-2.1-0.9-2.1-2.1v-7.7c0-0.9-0.7-1.6-1.6-1.6h-9.2c-0.9,0-1.6,0.7-1.6,1.6v7.7
			c0,1.1-0.9,2.1-2.1,2.1c-1.1,0-2.1-0.9-2.1-2.1v-7.7c0-3.1,2.6-5.7,5.7-5.7h9.2c3.1,0,5.7,2.6,5.7,5.7v7.7
			C160.7,24.7,159.8,25.6,158.6,25.6z"/>
	</g>
	<g>
		<path class="st0" d="M150.4,24.2c-1,0-1.7-0.8-1.7-1.7v-5.1c0-1,0.8-1.7,1.7-1.7c1,0,1.7,0.8,1.7,1.7v5.1
			C152.1,23.4,151.4,24.2,150.4,24.2z"/>
	</g>
	<g>
		<path class="st0" d="M113.4,18.7c-1,0-1.9-0.8-1.9-1.9v-2.4c0-0.3-0.2-0.5-0.5-0.5h-6.4c-1,0-1.9-0.8-1.9-1.9s0.8-1.9,1.9-1.9h6.4
			c2.3,0,4.2,1.9,4.2,4.2v2.4C115.2,17.9,114.4,18.7,113.4,18.7z"/>
	</g>
	<g>
		<path class="st0" d="M82.5,25.3c-1,0-1.7-0.8-1.7-1.7v-6.9c0-1,0.8-1.7,1.7-1.7c1,0,1.7,0.8,1.7,1.7v6.9
			C84.2,24.5,83.4,25.3,82.5,25.3z"/>
	</g>
	<g>
		<path class="st0" d="M103.4,25.5c-1,0-1.7-0.8-1.7-1.7V9c0-1,0.8-1.7,1.7-1.7c1,0,1.7,0.8,1.7,1.7v14.7
			C105.2,24.7,104.4,25.5,103.4,25.5z"/>
	</g>
	<g>
		<path class="st0" d="M166.2,25.6c-1,0-1.7-0.8-1.7-1.7V12.7c0-1,0.8-1.7,1.7-1.7c1,0,1.7,0.8,1.7,1.7v11.2
			C167.9,24.9,167.1,25.6,166.2,25.6z"/>
	</g>
	<circle class="st0" cx="166.1" cy="6.8" r="2"/>
	<g>
		<path class="st0" d="M184.8,25.6h-11.7c-1,0-1.7-0.8-1.7-1.7c0-1,0.8-1.7,1.7-1.7h11.3v-2.7h-10.1c-1.7,0-3.1-1.4-3.1-3.1V13
			c0-1.7,1.4-3.1,3.1-3.1h10.6c1,0,1.7,0.8,1.7,1.7s-0.8,1.7-1.7,1.7h-10.2v2.4h10.1c1.7,0,3.1,1.4,3.1,3.1v3.6
			C187.8,24.2,186.5,25.6,184.8,25.6z"/>
	</g>
	<g>
		<path class="st0" d="M205.4,25.9h-11.6c-1.7,0-3.1-1.4-3.1-3.1v-8.2c0-2.4,1.9-4.3,4.3-4.3h7.2c2.7,0,4.9,2.2,4.9,4.9
			s-2.2,4.9-4.9,4.9h-8v2.3h11.2c1,0,1.7,0.8,1.7,1.7C207.1,25.2,206.3,25.9,205.4,25.9z M194.2,16.7h8c0.8,0,1.4-0.6,1.4-1.4
			c0-0.8-0.6-1.4-1.4-1.4H195c-0.4,0-0.8,0.4-0.8,0.8V16.7z"/>
	</g>
</g>
<g>
	<rect x="49.6" y="38.4" class="st0" width="2.7" height="2.7"/>
	<rect x="53.5" y="38.4" class="st0" width="2.7" height="2.7"/>
	<rect x="49.6" y="42.2" class="st0" width="2.7" height="2.7"/>
	<rect x="53.5" y="42.2" class="st0" width="2.7" height="2.7"/>
</g>
<g>
	<path class="st0" d="M214.3,29.1H73.6V0h140.7V29.1z M74.8,27.9h138.3V1.2H74.8V27.9z"/>
</g>
<g>
	<path class="st0" d="M91.5,37c-0.2,0-0.3,0-0.4,0.1c-0.3,0.1-0.6,0.3-0.8,0.6c-0.6,0.7-1,2-1,3.4c0,1.4,0.4,2.6,1,3.4
		c0.2,0.3,0.5,0.5,0.8,0.6c0.1,0.1,0.3,0.1,0.4,0.1c0.3,0,0.6-0.1,0.9-0.3c0.8-0.6,1.3-2.1,1.3-3.7c0-1.7-0.5-3.1-1.3-3.7
		C92.1,37.1,91.8,37,91.5,37z"/>
	<path class="st0" d="M206.9,36.7c-0.1,0-0.1,0-0.2,0.1c-0.2,0.1-0.3,0.4-0.3,0.9v6.9c0,0.1,0,0.2,0,0.3c0,0.3,0.1,0.5,0.4,0.5
		c0.3,0,0.5-0.1,0.8-0.3c0.1-0.1,0.2-0.1,0.2-0.2c0.1-0.2,0.3-0.3,0.4-0.5c0.1-0.1,0.1-0.2,0.2-0.3c0.5-1,0.7-2.3,0.7-3
		C209.1,39.8,209,36.7,206.9,36.7z"/>
	<path class="st0" d="M73.6,31.8V50h140.7V31.8H73.6z M85.9,36.6c0,0-0.1,0-0.2,0c-0.1,0-0.3,0.1-0.3,0.4c-0.1,0.1-0.1,0.3-0.1,0.6
		v6.9c0,0.3,0,0.4,0.1,0.6c0.1,0.2,0.2,0.3,0.3,0.4c0.1,0,0.1,0,0.2,0c0,0,0,0,0,0l0,0l0,0v0.3l0,0h-3.6v-0.3c0,0,0.3,0,0.5-0.3
		c0.1-0.1,0.1-0.3,0.1-0.5V42h-2.7v2.5c0,0.4,0.1,0.6,0.2,0.8c0,0,0.1,0.1,0.1,0.1c0.1,0.1,0.2,0.1,0.2,0.1c0.1,0,0.1,0,0.1,0v0.3
		h-3.6l0,0v-0.3l0,0l0,0c0,0,0,0,0,0c0,0,0.2,0,0.3-0.1c0.2-0.1,0.3-0.3,0.3-0.7v-7.2c0-0.4-0.2-0.6-0.3-0.7
		c-0.1-0.1-0.2-0.1-0.3-0.1c0,0,0,0,0,0l0,0l0,0v-0.3l0,0h3.6v0.3c0,0,0,0-0.1,0c-0.1,0-0.1,0-0.2,0.1c0,0-0.1,0.1-0.1,0.1
		c-0.1,0.1-0.2,0.4-0.2,0.8v3.9l0,0l0,0l0,0h2.6v-4c0-0.2-0.1-0.4-0.1-0.5c-0.2-0.3-0.5-0.3-0.5-0.3v-0.3h3.6l0,0V36.6z M95.7,42.9
		c-0.5,1.1-1.3,2-2.4,2.5c-0.3,0.1-0.6,0.2-0.9,0.3c-0.3,0.1-0.6,0.1-0.9,0.1l0,0l0,0c-0.3,0-0.6,0-0.9-0.1
		c-0.9-0.2-1.7-0.6-2.3-1.3c-0.8-0.9-1.3-2-1.3-3.4c0-1.3,0.5-2.5,1.3-3.4c0.6-0.6,1.4-1.1,2.3-1.3c0.3-0.1,0.6-0.1,0.9-0.1l0,0l0,0
		c0.3,0,0.6,0,0.9,0.1c0.3,0.1,0.6,0.2,0.9,0.3c1.1,0.5,2,1.4,2.4,2.5c0.2,0.6,0.4,1.2,0.4,1.8C96,41.7,95.9,42.3,95.7,42.9z
		 M104.1,45.8L104.1,45.8h-6.8l0,0v-0.3l0,0l0,0c0,0,0,0,0,0c0,0,0.1,0,0.2,0c0.2-0.1,0.4-0.2,0.5-0.8v-7.2c0-0.5-0.3-0.7-0.5-0.8
		c-0.1,0-0.1,0-0.2,0c0,0,0,0,0,0l0,0l0,0v-0.3l0,0h3.6v0.3c0,0-0.1,0-0.2,0c-0.2,0.1-0.4,0.3-0.4,0.9l0,3.8l0,3.8h1.7
		c0.2,0,0.4,0,0.6,0c0.4-0.1,0.6-0.2,0.8-0.3c0.1-0.1,0.2-0.1,0.2-0.2c0.2-0.2,0.2-0.5,0.2-0.5l0,0h0.3l0,0V45.8z M112.5,44.2
		c-0.2,0.2-0.4,0.4-0.6,0.6c-0.7,0.6-1.6,1-2.7,1l0,0h-3.6l0,0v-0.3l0,0l0,0c0,0,0,0,0,0c0,0,0.1,0,0.2,0c0.2-0.1,0.4-0.2,0.5-0.8
		v-7.2c0-0.5-0.3-0.7-0.5-0.8c-0.1,0-0.1,0-0.2,0c0,0,0,0,0,0l0,0l0,0v-0.3l0,0c0,0,3.3,0,3.6,0l0,0c0.4,0,0.7,0,1,0.1
		c0.6,0.1,1.2,0.4,1.6,0.7c0.7,0.5,1.2,1.3,1.5,2.1c0.2,0.6,0.3,1.2,0.3,1.8C113.6,42.1,113.2,43.3,112.5,44.2z M118.5,36.6
		c0,0-0.1,0-0.2,0c-0.1,0-0.2,0.1-0.3,0.4c-0.1,0.1-0.1,0.3-0.1,0.6v6.9c0,0.3,0,0.4,0.1,0.6c0.1,0.2,0.2,0.3,0.3,0.4
		c0.1,0,0.1,0,0.2,0c0,0,0,0,0,0l0,0l0,0v0.3l0,0H115v-0.3c0,0,0.1,0,0.2,0c0.2-0.1,0.4-0.2,0.4-0.8v-7.2c0-0.5-0.3-0.7-0.4-0.8
		c-0.1,0-0.2,0-0.2,0v-0.3h3.6l0,0V36.6z M127.7,36.6L127.7,36.6L127.7,36.6C127.7,36.6,127.7,36.6,127.7,36.6c-0.2,0-0.2,0-0.3,0
		c-0.2,0.1-0.3,0.3-0.3,0.8l0,8.3l0,0h-0.9l0,0l-2.1-4.2l-2.1-4.2c0,0-0.1-0.1-0.1-0.1c0,0-0.1-0.1-0.1-0.1c0,0.1,0,0.2,0,0.3v7.2
		c0,0.6,0.2,0.8,0.4,0.8c0.1,0,0.2,0,0.2,0v0.3h-2.2v-0.3c0,0,0,0,0.1,0c0.1,0,0.2-0.1,0.3-0.2c0.1-0.1,0.2-0.3,0.2-0.6v-7.2
		c0-0.3-0.1-0.5-0.2-0.6c-0.1-0.1-0.2-0.2-0.3-0.2c-0.1,0-0.1,0-0.1,0v-0.3h3.4l2.5,5v-3.8c0-0.1,0-0.2,0-0.3
		c-0.1-0.3-0.3-0.4-0.4-0.5c-0.1,0-0.1,0-0.2,0c0,0,0,0,0,0l0,0l0,0v-0.3l0,0h2.2l0,0V36.6z M137.7,42.4c-0.1,0-0.2,0-0.2,0.1
		c0,0.1-0.1,0.2-0.1,0.4c0,0.8-0.3,1.8-1.2,2.4c-0.5,0.4-1.2,0.6-2.2,0.6c-3.5-0.1-5.1-2.2-5.1-4.8c0-2.6,2.1-4.7,4.6-4.7
		c0.3,0,0.5,0,0.8,0c0.5,0.1,1,0.2,1.4,0.4c0.2,0.1,0.4,0.3,0.6,0.4c0,0,0.1,0,0.1,0c0,0,0.1,0,0.1,0c0.2-0.1,0.4-0.5,0.6-0.5l0,0
		l0,0v2.5l-0.4,0.1l0,0l0,0c-0.2-0.3-0.3-0.7-0.6-1.1c-0.2-0.3-0.4-0.5-0.6-0.8c-0.3-0.2-0.6-0.4-1-0.5c-0.2,0-0.4-0.1-0.7-0.1
		c-1.2,0-1.9,0.7-2.3,1.8c-0.2,0.6-0.4,1.4-0.4,2.3c0,0.6,0,1.1,0.2,1.6c0.1,0.5,0.3,1,0.5,1.4c0.4,0.8,1.1,1.4,2.1,1.4
		c0.3,0,0.6,0,0.8-0.1c0.8-0.3,1.3-0.8,1.3-1.6c0-0.8-0.2-1.1-0.4-1.2c-0.1-0.1-0.2,0-0.2,0v-0.3h2.2l0,0V42.4z M145.3,45.5
		c-0.4,0.2-0.9,0.3-1.5,0.3c-0.3,0-0.6,0-0.9,0l0,0l0,0c-0.9,0-1.5-0.1-2-0.2c-0.3-0.1-0.5-0.1-0.6-0.1c-0.2,0-0.4,0-0.5,0.2l0,0
		c0,0-0.3,0-0.4,0l0,0v-2.5l0,0h0.4l0,0c0,0.8,0.9,1.4,2,1.7c0.4,0.1,0.7,0.1,1.1,0.1c1.4,0,2.1-0.7,2-1.4c0-0.2-0.1-0.5-0.3-0.7
		c-0.2-0.3-0.6-0.5-1.1-0.7c-0.1,0-0.2-0.1-0.3-0.1c-1.1-0.3-2.6-0.7-3.4-1.6c-0.2-0.2-0.3-0.4-0.4-0.6c-0.2-0.3-0.3-0.7-0.3-1.2
		c0,0,0-0.1,0-0.2c0-0.1,0-0.2,0.1-0.3c0.1-0.5,0.5-1.1,1.4-1.5c0.5-0.2,1.2-0.4,2.1-0.4l0,0l0,0c0.4,0,0.8,0,1,0.1
		c0.1,0,0.3,0.1,0.4,0.1c0.2,0.1,0.4,0.2,0.6,0.2c0.1,0,0.2,0,0.3,0c0.2,0,0.3,0,0.5-0.2c0.1,0,0.1-0.1,0.2-0.1
		c0.1,0,0.1-0.1,0.2-0.1c0,0.4,0,2.4,0,2.4l-0.3,0c0,0-0.2-1.5-2.1-1.8c-0.3-0.1-0.6-0.1-0.9-0.1c-1.6,0-2.2,2-1.1,2.4
		c0.2,0.1,0.4,0.1,0.7,0.2c0.1,0,0.3,0.1,0.4,0.1c0.7,0.2,1.5,0.4,2.3,0.7c0.8,0.3,1.4,0.8,1.8,1.5c0.2,0.4,0.3,0.9,0.3,1.6
		C146.8,44.3,146.3,45.1,145.3,45.5z M161.7,45.8L161.7,45.8h-6.8v-0.3c0,0,0.3,0,0.5-0.3c0.1-0.1,0.1-0.3,0.1-0.5v-7.2
		c0-0.2-0.1-0.4-0.1-0.5c-0.2-0.3-0.5-0.3-0.5-0.3v-0.3h3.6v0.3c0,0-0.6-0.1-0.6,1l0,7.7h1.7c0.2,0,0.4,0,0.6,0
		c0.4-0.1,0.6-0.2,0.8-0.3c0.1-0.1,0.2-0.1,0.2-0.2c0.2-0.2,0.2-0.5,0.2-0.5l0,0h0.3l0,0V45.8z M166.9,36.6c0,0-0.1,0-0.2,0
		c-0.1,0-0.2,0.1-0.3,0.4c-0.1,0.1-0.1,0.3-0.1,0.6v6.9c0,0.3,0,0.4,0.1,0.6c0.1,0.2,0.2,0.3,0.3,0.4c0.1,0,0.1,0,0.2,0c0,0,0,0,0,0
		l0,0l0,0v0.3l0,0h-3.6v-0.3c0,0,0.1,0,0.2,0c0.2-0.1,0.4-0.2,0.4-0.8v-7.2c0-0.5-0.3-0.7-0.4-0.8c-0.1,0-0.2,0-0.2,0v-0.3h3.6l0,0
		V36.6z M179.2,36.6c0,0-0.1,0-0.2,0c-0.1,0-0.2,0.1-0.3,0.4c-0.1,0.1-0.1,0.3-0.1,0.6v6.9c0,0.3,0,0.4,0.1,0.6
		c0.1,0.2,0.2,0.3,0.3,0.4c0.1,0,0.1,0,0.2,0c0,0,0,0,0,0l0,0l0,0v0.3l0,0h-3.6v-0.3c0,0,0.1,0,0.2,0c0.1,0,0.1-0.1,0.2-0.1
		c0.1-0.1,0.1-0.2,0.2-0.3c0-0.1,0-0.2,0-0.3v-7.1l-2.7,7.2l-0.3,0.8v0v0l-3.1-8v7.1c0,0.3,0,0.4,0.1,0.6c0.1,0.2,0.2,0.3,0.3,0.3
		c0,0,0.1,0,0.1,0c0.1,0,0.1,0,0.1,0l0,0l0,0v0.3l0,0h-2.2l0,0v-0.3l0,0l0,0c0,0,0,0,0,0c0,0,0.2,0,0.3-0.1c0.1-0.1,0.3-0.3,0.3-0.7
		v-7.2c0-0.4-0.2-0.6-0.3-0.7c-0.1-0.1-0.2-0.1-0.3-0.1c0,0,0,0,0,0l0,0l0,0v-0.3l0,0h3.8l0,0.3c-0.2,0.1-0.1,0.4,0,0.7
		c0,0.1,0.1,0.2,0.1,0.3l1.3,3.3l1.5-4c0,0,0-0.1,0-0.1c0-0.1,0-0.2,0-0.2c0,0,0,0-0.1,0l0.1-0.3h3.9l0,0V36.6z M184.4,36.6
		c0,0-0.6,0-0.6,1v6.9c0,1,0.6,1,0.6,1v0.3h-3.6v-0.3c0,0,0.1,0,0.3-0.1c0.1-0.1,0.2-0.2,0.3-0.4c0-0.1,0-0.2,0-0.3v-7.2
		c0-0.1,0-0.2,0-0.3c-0.1-0.2-0.2-0.4-0.3-0.4c-0.2-0.1-0.3-0.1-0.3-0.1v-0.3h3.6V36.6z M193.5,38.2h-0.3c0,0-0.3-1.3-2.2-1.3
		c0,0-0.2,0.4-0.2,0.7v6.9c0,1,0.6,1,0.6,1v0.3h-3.6l0,0v-0.3c0,0,0.2,0,0.4-0.2c0.1-0.1,0.1-0.2,0.2-0.4c0-0.1,0-0.2,0-0.3v-7.2
		c0-0.1-0.1-0.2-0.1-0.3c0-0.1-0.1-0.2-0.1-0.2c-0.2,0-0.4,0-0.6,0.1c-0.2,0-0.4,0.1-0.5,0.1c-0.3,0.1-0.5,0.3-0.7,0.4
		c-0.1,0.1-0.1,0.2-0.2,0.2c-0.2,0.2-0.2,0.4-0.2,0.4l0,0h-0.3l0.3-1.9h7l0,0l0.2,0.9L193.5,38.2L193.5,38.2z M201.1,37.2
		c-0.1-0.1-0.4-0.2-0.7-0.3c-0.2,0-0.4,0-0.6,0h-1.7v3.3h0.9c0.3,0,0.5-0.1,0.6-0.2s0.3-0.2,0.4-0.3c0.1-0.2,0.2-0.4,0.2-0.5
		c0,0,0,0,0,0l0,0h0.3v2.3h-0.3l0,0c0,0,0,0,0,0c0-0.1-0.1-0.3-0.2-0.5c-0.1-0.1-0.2-0.3-0.4-0.3s-0.4-0.2-0.6-0.2h-0.9v4.8h1.7
		c0.2,0,0.4,0,0.6,0c0.3-0.1,0.6-0.2,0.7-0.3c0.4-0.3,0.2-0.7,0.2-0.7h0.3l0,0l0.3,1.5l0,0h-6.8v-0.3c0,0,0,0,0.1,0
		c0.1,0,0.2-0.1,0.3-0.2c0.1-0.1,0.2-0.3,0.2-0.6v-7.2c0-0.3-0.1-0.5-0.2-0.6c-0.1-0.1-0.2-0.2-0.3-0.2c-0.1,0-0.1,0-0.1,0v-0.3h6.8
		l0,0l-0.3,1.5l0,0h-0.3C201.3,37.9,201.5,37.5,201.1,37.2z M209.8,44.8c-0.2,0.2-0.5,0.4-0.8,0.5c-0.3,0.1-0.6,0.3-0.9,0.3
		c-0.3,0.1-0.7,0.1-1.1,0.1l0,0h-3.6l0,0v-0.3l0,0l0,0c0,0,0,0,0,0c0,0,0.1,0,0.2,0c0.2-0.1,0.4-0.2,0.5-0.8v-7.2
		c0-0.5-0.3-0.7-0.5-0.8c-0.1,0-0.1,0-0.2,0c0,0,0,0,0,0l0,0l0,0v-0.3l0,0c0,0,3.3,0,3.6,0l0,0c0.7,0,1.3,0.1,1.9,0.4
		c1.6,0.8,2.5,2.5,2.5,4.3C211.4,42.4,210.9,43.9,209.8,44.8z"/>
	<path class="st0" d="M109,36.7c-0.1,0-0.1,0-0.2,0.1c-0.2,0.1-0.3,0.4-0.3,0.9v6.9c0,0.1,0,0.2,0,0.3c0,0.3,0.1,0.5,0.4,0.5
		c0.7,0,1.2-0.6,1.6-1.3c0.4-0.8,0.6-1.7,0.7-2.4c0-0.2,0-0.4,0-0.6C111.2,39.8,111.1,36.7,109,36.7z"/>
</g>
<g>
	<g>
		<path class="st0" d="M95,16.2h-8.5c-1.1,0-2.1-0.9-2.1-2.1s0.9-2.1,2.1-2.1H95c1,0,1.8-0.8,1.8-1.8V9.1c0-1-0.8-1.8-1.8-1.8H83.5
			c-1.1,0-2.1-0.9-2.1-2.1c0-1.1,0.9-2.1,2.1-2.1H95c3.3,0,5.9,2.7,5.9,5.9v1.1C101,13.5,98.3,16.2,95,16.2z"/>
	</g>
	<g>
		<path class="st0" d="M131.3,25.6h-8.2c-3.3,0-6-2.7-6-6v-3c0-3.3,2.7-6,6-6h8.2c3.3,0,6,2.7,6,6v3
			C137.2,22.9,134.6,25.6,131.3,25.6z M123.1,14.8c-1,0-1.8,0.8-1.8,1.8v3c0,1,0.8,1.8,1.8,1.8h8.2c1,0,1.8-0.8,1.8-1.8v-3
			c0-1-0.8-1.8-1.8-1.8H123.1z"/>
	</g>
	<g>
		<path class="st0" d="M158.6,25.6c-1.1,0-2.1-0.9-2.1-2.1v-7.7c0-0.9-0.7-1.6-1.6-1.6h-9.2c-0.9,0-1.6,0.7-1.6,1.6v7.7
			c0,1.1-0.9,2.1-2.1,2.1c-1.1,0-2.1-0.9-2.1-2.1v-7.7c0-3.1,2.6-5.7,5.7-5.7h9.2c3.1,0,5.7,2.6,5.7,5.7v7.7
			C160.7,24.7,159.8,25.6,158.6,25.6z"/>
	</g>
	<g>
		<path class="st0" d="M150.4,24.2c-1,0-1.7-0.8-1.7-1.7v-5.1c0-1,0.8-1.7,1.7-1.7c1,0,1.7,0.8,1.7,1.7v5.1
			C152.1,23.4,151.4,24.2,150.4,24.2z"/>
	</g>
	<g>
		<path class="st0" d="M113.4,18.7c-1,0-1.9-0.8-1.9-1.9v-2.4c0-0.3-0.2-0.5-0.5-0.5h-6.4c-1,0-1.9-0.8-1.9-1.9s0.8-1.9,1.9-1.9h6.4
			c2.3,0,4.2,1.9,4.2,4.2v2.4C115.2,17.9,114.4,18.7,113.4,18.7z"/>
	</g>
	<g>
		<path class="st0" d="M82.5,25.3c-1,0-1.7-0.8-1.7-1.7v-6.9c0-1,0.8-1.7,1.7-1.7c1,0,1.7,0.8,1.7,1.7v6.9
			C84.2,24.5,83.4,25.3,82.5,25.3z"/>
	</g>
	<g>
		<path class="st0" d="M103.4,25.5c-1,0-1.7-0.8-1.7-1.7V9c0-1,0.8-1.7,1.7-1.7c1,0,1.7,0.8,1.7,1.7v14.7
			C105.2,24.7,104.4,25.5,103.4,25.5z"/>
	</g>
	<g>
		<path class="st0" d="M166.2,25.6c-1,0-1.7-0.8-1.7-1.7V12.7c0-1,0.8-1.7,1.7-1.7c1,0,1.7,0.8,1.7,1.7v11.2
			C167.9,24.9,167.1,25.6,166.2,25.6z"/>
	</g>
	<circle class="st0" cx="166.1" cy="6.8" r="2"/>
	<g>
		<path class="st0" d="M184.8,25.6h-11.7c-1,0-1.7-0.8-1.7-1.7c0-1,0.8-1.7,1.7-1.7h11.3v-2.7h-10.1c-1.7,0-3.1-1.4-3.1-3.1V13
			c0-1.7,1.4-3.1,3.1-3.1h10.6c1,0,1.7,0.8,1.7,1.7s-0.8,1.7-1.7,1.7h-10.2v2.4h10.1c1.7,0,3.1,1.4,3.1,3.1v3.6
			C187.8,24.2,186.5,25.6,184.8,25.6z"/>
	</g>
	<g>
		<path class="st0" d="M205.4,25.9h-11.6c-1.7,0-3.1-1.4-3.1-3.1v-8.2c0-2.4,1.9-4.3,4.3-4.3h7.2c2.7,0,4.9,2.2,4.9,4.9
			s-2.2,4.9-4.9,4.9h-8v2.3h11.2c1,0,1.7,0.8,1.7,1.7C207.1,25.2,206.3,25.9,205.4,25.9z M194.2,16.7h8c0.8,0,1.4-0.6,1.4-1.4
			c0-0.8-0.6-1.4-1.4-1.4H195c-0.4,0-0.8,0.4-0.8,0.8V16.7z"/>
	</g>
</g>
</svg>
