<?xml version="1.0" encoding="utf-8"?>
<!-- Generator: Adobe Illustrator 27.1.1, SVG Export Plug-In . SVG Version: 6.00 Build 0)  -->
<svg version="1.1" id="Layer_1" xmlns="http://www.w3.org/2000/svg" xmlns:xlink="http://www.w3.org/1999/xlink" x="0px" y="0px"
	 viewBox="0 0 214.3 50" style="enable-background:new 0 0 214.3 50;" xml:space="preserve">
<style type="text/css">
	.st0{fill:#FFFFFF;}
	.st1{opacity:0.6;fill:#FFFFFF;}
	.st2{fill:#221F1F;}
	.st3{fill:url(#SVGID_1_);}
	.st4{fill:url(#SVGID_00000044175966541454576620000006836542470694854534_);}
	.st5{fill:url(#SVGID_00000156584810807006566290000002314615249013016225_);}
	.st6{fill:url(#SVGID_00000181077181820853579960000006684414603171002035_);}
	.st7{opacity:0.6;fill:url(#SVGID_00000149355309734414480790000015624704514047416505_);}
	.st8{opacity:0.6;fill:url(#SVGID_00000008843162582515400840000000960095500595500464_);}
	.st9{fill:#0958A7;}
	.st10{fill:url(#SVGID_00000088095326119198134990000015926204384590620338_);}
	.st11{fill:url(#SVGID_00000083770467704227813760000002201704058267928197_);}
	.st12{fill:url(#SVGID_00000050650153481119774700000011787734854312201632_);}
	.st13{fill:url(#SVGID_00000126307126356934256970000007881681770304022708_);}
	.st14{fill:url(#SVGID_00000042710197435776816430000017413084042066985383_);}
	.st15{fill:url(#SVGID_00000134232788449660045550000003450177418530948537_);}
	.st16{fill:url(#SVGID_00000039833456693984560110000002778206812576800940_);}
	.st17{fill:url(#SVGID_00000030462708795808858710000001652490024931973254_);}
	.st18{fill:url(#SVGID_00000021085858613810930310000011993523801443847299_);}
	.st19{fill:url(#SVGID_00000036252898682832105450000012549571192089923717_);}
	.st20{fill:url(#SVGID_00000064336755909282715340000000666039507051920295_);}
	.st21{fill:url(#SVGID_00000042720216700066672680000016681778708282196610_);}
	.st22{fill:url(#SVGID_00000034080631679209044840000014290751351529588667_);}
	.st23{fill:url(#SVGID_00000003807011693865653570000003571766195748459437_);}
	.st24{fill:url(#SVGID_00000067951986658663307020000012747379404741278652_);}
	.st25{fill:url(#SVGID_00000176736927989365188760000002882640874784754578_);}
	.st26{fill:url(#SVGID_00000003803775570047731270000008687593966292178108_);}
	.st27{opacity:0.6;fill:url(#SVGID_00000023278218642051945060000002291303076902658456_);}
	.st28{opacity:0.6;fill:url(#SVGID_00000140692557222287676970000010149346857617411495_);}
	.st29{fill:url(#SVGID_00000091004167015839918920000016111885465290367419_);}
	.st30{fill:url(#SVGID_00000020400308878067413520000002274547979932053125_);}
	.st31{fill:url(#SVGID_00000070830493697720816040000010679097811877172116_);}
	.st32{fill:url(#SVGID_00000079456249494641732320000004111300587866922680_);}
	.st33{fill:url(#SVGID_00000007412862245620746670000007580096327838676924_);}
	.st34{fill:url(#SVGID_00000120548282456981863400000000486799161852776084_);}
	.st35{fill:url(#SVGID_00000057832608641694257840000005557873951625927359_);}
	.st36{fill:url(#SVGID_00000091705807888670042720000017284079220509401262_);}
	.st37{fill:url(#SVGID_00000078739109218945974180000003141101542063622562_);}
	.st38{fill:url(#SVGID_00000134931204887194962870000013850705253221759402_);}
	.st39{fill:url(#SVGID_00000063598872137969942420000009356820114618848690_);}
	.st40{fill:url(#SVGID_00000182513610647712294440000016640671026405951642_);}
	.st41{fill:url(#SVGID_00000143614061811420214730000016624345309428637069_);}
	.st42{fill:url(#SVGID_00000055697686978685420170000005883450870666549130_);}
	.st43{fill:url(#SVGID_00000075865200488812130310000017551119134010086838_);}
	.st44{fill:url(#SVGID_00000013880088794577211330000018323792657457340318_);}
	.st45{fill:url(#SVGID_00000057122851555642509500000015672759399461940121_);}
	.st46{opacity:0.6;fill:url(#SVGID_00000003082362284678666940000009713365904113303717_);}
	.st47{opacity:0.6;fill:url(#SVGID_00000040541464596670490180000011702136841594120327_);}
	.st48{fill:url(#SVGID_00000013898512684927470970000017894727126902195591_);}
	.st49{fill:url(#SVGID_00000047041271084800410760000008162690397559050633_);}
	.st50{fill:url(#SVGID_00000029740298002494187020000007001469464289056901_);}
	.st51{fill:url(#SVGID_00000031924976658048231800000015529336426566281349_);}
	.st52{fill:url(#SVGID_00000119115065275913546420000007667222402437549194_);}
	.st53{opacity:0.6;fill:url(#SVGID_00000085214610303913013870000000982819481930313396_);}
	.st54{opacity:0.6;fill:url(#SVGID_00000060013297160400131200000003184693328305229963_);}
	.st55{fill:url(#SVGID_00000010295699201504290240000008965528812350897820_);}
	.st56{opacity:0.6;fill:url(#SVGID_00000106130666211239902830000013159436149139480249_);}
	.st57{opacity:0.6;fill:url(#SVGID_00000108271459661524467540000011432829290868837800_);}
	.st58{opacity:0.3;}
	.st59{fill:url(#SVGID_00000057112306291340394520000011212640105452472205_);}
	.st60{fill:url(#SVGID_00000003817731668058645050000010109892884168465592_);}
	.st61{fill:#2D358E;}
	.st62{fill:#43C6F2;}
</style>
<g>
	<g>
		<rect x="27.8" y="31.4" class="st0" width="1.7" height="1.7"/>
		<rect x="30.3" y="31.4" class="st0" width="1.7" height="1.7"/>
		<rect x="27.8" y="33.9" class="st0" width="1.7" height="1.7"/>
		<rect x="30.3" y="33.9" class="st0" width="1.7" height="1.7"/>
	</g>
	<g>
		<rect x="49.6" y="38.4" class="st0" width="2.7" height="2.7"/>
		<rect x="53.5" y="38.4" class="st0" width="2.7" height="2.7"/>
		<rect x="49.6" y="42.2" class="st0" width="2.7" height="2.7"/>
		<rect x="53.5" y="42.2" class="st0" width="2.7" height="2.7"/>
	</g>
	<path class="st0" d="M25.8,44.6v-11L17.1,38v7.2c-0.2,3.2-2.4,3-2.4,3v1.2h13.4v-1.2C28.1,48.3,25.8,48.5,25.8,44.6z"/>
	<path class="st0" d="M14.8,14.1v1.2c0,0,2.2-0.2,2.4,3v17l8.6-4.4v-12c0-3.8,2.4-3.6,2.4-3.6v-1.2H14.8z"/>
	<path class="st0" d="M63.1,43.9c0,0,0.1,3.7-7,3.7H42.7l0-9.6L34,33.5v11.8c-0.3,3.2-2.4,3-2.4,3v1.2h32.5v-5.5H63.1z"/>
	<path class="st0" d="M34,18.2v12.5l8.7,4.4l0-16.3c0-3.8,2.4-3.6,2.4-3.6v-1.2H31.7v1.2C31.7,15.2,33.8,15.1,34,18.2z"/>
	<path class="st1" d="M34,22.6c0.8,0.2,1.6,0.4,2.4,0.8c0.4,0.1,0.7,0.3,1.1,0.5c0.4,0.2,0.7,0.4,1.1,0.5c0.4,0.2,0.7,0.4,1.1,0.6
		c0.3,0.2,0.7,0.4,1,0.7c0.7,0.5,1.3,0.9,2,1.5l0,0.1L38.3,25L34,22.6L34,22.6z"/>
	<path class="st1" d="M25.8,22.8c-0.8,0.2-1.6,0.4-2.4,0.8c-0.4,0.1-0.7,0.3-1.1,0.5c-0.4,0.2-0.7,0.4-1.1,0.5
		c-0.4,0.2-0.7,0.4-1.1,0.6c-0.3,0.2-0.7,0.4-1,0.7c-0.7,0.5-1.3,0.9-2,1.5l0,0.1l4.3-2.2L25.8,22.8L25.8,22.8z"/>
	<g>
		<path class="st0" d="M214.3,29.1H73.6V0h140.7V29.1z M74.8,27.9h138.3V1.2H74.8V27.9z"/>
	</g>
	<path class="st0" d="M64.2,17.7c0,4.9-2,9.3-5.2,12.5c-3.2,3.2-7.6,5.2-12.5,5.2h-3.4L30,28.7l-16,8.2v-7.9l0.8-0.4l15.2-8l15.2,8
		h0.9c3,0,5.7-1.2,7.7-3.2c2-2,3.2-4.7,3.2-7.7c0-6-4.9-10.9-10.9-10.9H11v37.8c0,3.8,2.4,3.6,2.4,3.6v1.2H0v-1.2c0,0,2.2,0.2,2.4-3
		V4.2C2.2,1,0,1.2,0,1.2V0h46.5C56.3,0,64.2,7.9,64.2,17.7z"/>
	<g>
		<g>
			<path class="st0" d="M95,16.2h-8.5c-1.1,0-2.1-0.9-2.1-2.1s0.9-2.1,2.1-2.1H95c1,0,1.8-0.8,1.8-1.8V9.1c0-1-0.8-1.8-1.8-1.8H83.5
				c-1.1,0-2.1-0.9-2.1-2.1c0-1.1,0.9-2.1,2.1-2.1H95c3.3,0,5.9,2.7,5.9,5.9v1.1C101,13.5,98.3,16.2,95,16.2z"/>
		</g>
		<g>
			<path class="st0" d="M131.3,25.6h-8.2c-3.3,0-6-2.7-6-6v-3c0-3.3,2.7-6,6-6h8.2c3.3,0,6,2.7,6,6v3
				C137.2,22.9,134.6,25.6,131.3,25.6z M123.1,14.8c-1,0-1.8,0.8-1.8,1.8v3c0,1,0.8,1.8,1.8,1.8h8.2c1,0,1.8-0.8,1.8-1.8v-3
				c0-1-0.8-1.8-1.8-1.8H123.1z"/>
		</g>
		<g>
			<path class="st0" d="M158.6,25.6c-1.1,0-2.1-0.9-2.1-2.1v-7.7c0-0.9-0.7-1.6-1.6-1.6h-9.2c-0.9,0-1.6,0.7-1.6,1.6v7.7
				c0,1.1-0.9,2.1-2.1,2.1c-1.1,0-2.1-0.9-2.1-2.1v-7.7c0-3.1,2.6-5.7,5.7-5.7h9.2c3.1,0,5.7,2.6,5.7,5.7v7.7
				C160.7,24.7,159.8,25.6,158.6,25.6z"/>
		</g>
		<g>
			<path class="st0" d="M150.4,24.2c-1,0-1.7-0.8-1.7-1.7v-5.1c0-1,0.8-1.7,1.7-1.7c1,0,1.7,0.8,1.7,1.7v5.1
				C152.1,23.4,151.4,24.2,150.4,24.2z"/>
		</g>
		<g>
			<path class="st0" d="M113.4,18.7c-1,0-1.9-0.8-1.9-1.9v-2.4c0-0.3-0.2-0.5-0.5-0.5h-6.4c-1,0-1.9-0.8-1.9-1.9s0.8-1.9,1.9-1.9
				h6.4c2.3,0,4.2,1.9,4.2,4.2v2.4C115.2,17.9,114.4,18.7,113.4,18.7z"/>
		</g>
		<g>
			<path class="st0" d="M82.5,25.3c-1,0-1.7-0.8-1.7-1.7v-6.9c0-1,0.8-1.7,1.7-1.7c1,0,1.7,0.8,1.7,1.7v6.9
				C84.2,24.5,83.4,25.3,82.5,25.3z"/>
		</g>
		<g>
			<path class="st0" d="M103.4,25.5c-1,0-1.7-0.8-1.7-1.7V9c0-1,0.8-1.7,1.7-1.7c1,0,1.7,0.8,1.7,1.7v14.7
				C105.2,24.7,104.4,25.5,103.4,25.5z"/>
		</g>
		<g>
			<path class="st0" d="M166.2,25.6c-1,0-1.7-0.8-1.7-1.7V12.7c0-1,0.8-1.7,1.7-1.7c1,0,1.7,0.8,1.7,1.7v11.2
				C167.9,24.9,167.1,25.6,166.2,25.6z"/>
		</g>
		<circle class="st0" cx="166.1" cy="6.8" r="2"/>
		<g>
			<path class="st0" d="M184.8,25.6h-11.7c-1,0-1.7-0.8-1.7-1.7c0-1,0.8-1.7,1.7-1.7h11.3v-2.7h-10.1c-1.7,0-3.1-1.4-3.1-3.1V13
				c0-1.7,1.4-3.1,3.1-3.1h10.6c1,0,1.7,0.8,1.7,1.7s-0.8,1.7-1.7,1.7h-10.2v2.4h10.1c1.7,0,3.1,1.4,3.1,3.1v3.6
				C187.8,24.2,186.5,25.6,184.8,25.6z"/>
		</g>
		<g>
			<path class="st0" d="M205.4,25.9h-11.6c-1.7,0-3.1-1.4-3.1-3.1v-8.2c0-2.4,1.9-4.3,4.3-4.3h7.2c2.7,0,4.9,2.2,4.9,4.9
				s-2.2,4.9-4.9,4.9h-8v2.3h11.2c1,0,1.7,0.8,1.7,1.7C207.1,25.2,206.3,25.9,205.4,25.9z M194.2,16.7h8c0.8,0,1.4-0.6,1.4-1.4
				c0-0.8-0.6-1.4-1.4-1.4H195c-0.4,0-0.8,0.4-0.8,0.8V16.7z"/>
		</g>
	</g>
	<g>
		<rect x="27.8" y="31.4" class="st2" width="1.7" height="1.7"/>
		<rect x="30.3" y="31.4" class="st2" width="1.7" height="1.7"/>
		<rect x="27.8" y="33.9" class="st2" width="1.7" height="1.7"/>
		<rect x="30.3" y="33.9" class="st2" width="1.7" height="1.7"/>
	</g>
	<g>
		<rect x="49.6" y="38.4" class="st0" width="2.7" height="2.7"/>
		<rect x="53.5" y="38.4" class="st0" width="2.7" height="2.7"/>
		<rect x="49.6" y="42.2" class="st0" width="2.7" height="2.7"/>
		<rect x="53.5" y="42.2" class="st0" width="2.7" height="2.7"/>
	</g>
	<path class="st0" d="M25.8,44.6v-11L17.1,38v7.2c-0.2,3.2-2.4,3-2.4,3v1.2h13.4v-1.2C28.1,48.3,25.8,48.5,25.8,44.6z"/>
	<path class="st0" d="M14.8,14.1v1.2c0,0,2.2-0.2,2.4,3v17l8.6-4.4v-12c0-3.8,2.4-3.6,2.4-3.6v-1.2H14.8z"/>
	<path class="st0" d="M63.1,43.9c0,0,0.1,3.7-7,3.7H42.7l0-9.6L34,33.5v11.8c-0.3,3.2-2.4,3-2.4,3v1.2h32.5v-5.5H63.1z"/>
	<path class="st0" d="M34,18.2v12.5l8.7,4.4l0-16.3c0-3.8,2.4-3.6,2.4-3.6v-1.2H31.7v1.2C31.7,15.2,33.8,15.1,34,18.2z"/>
	
		<radialGradient id="SVGID_1_" cx="-4764.0684" cy="1598.7301" r="27.666" gradientTransform="matrix(0.1684 9.083909e-02 -9.800865e-03 1.817379e-02 856.7155 428.7649)" gradientUnits="userSpaceOnUse">
		<stop  offset="0" style="stop-color:#707274"/>
		<stop  offset="1" style="stop-color:#FFFFFF;stop-opacity:0"/>
	</radialGradient>
	<path style="opacity:0.6;fill:url(#SVGID_1_);" d="M34,22.6c0.8,0.2,1.6,0.4,2.4,0.8c0.4,0.1,0.7,0.3,1.1,0.5
		c0.4,0.2,0.7,0.4,1.1,0.5c0.4,0.2,0.7,0.4,1.1,0.6c0.3,0.2,0.7,0.4,1,0.7c0.7,0.5,1.3,0.9,2,1.5l0,0.1L38.3,25L34,22.6L34,22.6z"/>
	
		<radialGradient id="SVGID_00000125598124540413375080000001450769085048160670_" cx="2696.9712" cy="1599.3464" r="27.666" gradientTransform="matrix(-0.1684 9.083909e-02 9.800865e-03 1.817379e-02 459.8742 -248.8824)" gradientUnits="userSpaceOnUse">
		<stop  offset="0" style="stop-color:#707274"/>
		<stop  offset="1" style="stop-color:#FFFFFF;stop-opacity:0"/>
	</radialGradient>
	<path style="opacity:0.6;fill:url(#SVGID_00000125598124540413375080000001450769085048160670_);" d="M25.8,22.8
		c-0.8,0.2-1.6,0.4-2.4,0.8c-0.4,0.1-0.7,0.3-1.1,0.5c-0.4,0.2-0.7,0.4-1.1,0.5c-0.4,0.2-0.7,0.4-1.1,0.6c-0.3,0.2-0.7,0.4-1,0.7
		c-0.7,0.5-1.3,0.9-2,1.5l0,0.1l4.3-2.2L25.8,22.8L25.8,22.8z"/>
	<g>
		<path class="st0" d="M214.3,29.1H73.6V0h140.7V29.1z M74.8,27.9h138.3V1.2H74.8V27.9z"/>
	</g>
	<path class="st0" d="M64.2,17.7c0,4.9-2,9.3-5.2,12.5c-3.2,3.2-7.6,5.2-12.5,5.2h-3.4L30,28.7l-16,8.2v-7.9l0.8-0.4l15.2-8l15.2,8
		h0.9c3,0,5.7-1.2,7.7-3.2c2-2,3.2-4.7,3.2-7.7c0-6-4.9-10.9-10.9-10.9H11v37.8c0,3.8,2.4,3.6,2.4,3.6v1.2H0v-1.2c0,0,2.2,0.2,2.4-3
		V4.2C2.2,1,0,1.2,0,1.2V0h46.5C56.3,0,64.2,7.9,64.2,17.7z"/>
	<g class="st58">
		<path d="M43.1,35.4c0,0-13.3-6.7-13-6.6c0,0-16,8.1-16,8.1l0-0.1c1.3-0.8,2.5-1.6,3.8-2.4c3.6-2.1,8.1-4.6,11.8-6.4
			c0,0,0.4-0.2,0.4-0.2l0.3,0.2C34.6,30.3,39.3,32.6,43.1,35.4L43.1,35.4z"/>
	</g>
	<g>
		<path class="st0" d="M91.5,37c-0.2,0-0.3,0-0.4,0.1c-0.3,0.1-0.6,0.3-0.8,0.6c-0.6,0.7-1,2-1,3.4c0,1.4,0.4,2.6,1,3.4
			c0.2,0.3,0.5,0.5,0.8,0.6c0.1,0.1,0.3,0.1,0.4,0.1c0.3,0,0.6-0.1,0.9-0.3c0.8-0.6,1.3-2.1,1.3-3.7c0-1.7-0.5-3.1-1.3-3.7
			C92.1,37.1,91.8,37,91.5,37z"/>
		<path class="st0" d="M206.9,36.7c-0.1,0-0.1,0-0.2,0.1c-0.2,0.1-0.3,0.4-0.3,0.9v6.9c0,0.1,0,0.2,0,0.3c0,0.3,0.1,0.5,0.4,0.5
			c0.3,0,0.5-0.1,0.8-0.3c0.1-0.1,0.2-0.1,0.2-0.2c0.1-0.2,0.3-0.3,0.4-0.5c0.1-0.1,0.1-0.2,0.2-0.3c0.5-1,0.7-2.3,0.7-3
			C209.1,39.8,209,36.7,206.9,36.7z"/>
		<path class="st0" d="M73.6,31.8V50h140.7V31.8H73.6z M85.9,36.6c0,0-0.1,0-0.2,0c-0.1,0-0.3,0.1-0.3,0.4c-0.1,0.1-0.1,0.3-0.1,0.6
			v6.9c0,0.3,0,0.4,0.1,0.6c0.1,0.2,0.2,0.3,0.3,0.4c0.1,0,0.1,0,0.2,0c0,0,0,0,0,0l0,0l0,0v0.3l0,0h-3.6v-0.3c0,0,0.3,0,0.5-0.3
			c0.1-0.1,0.1-0.3,0.1-0.5V42h-2.7v2.5c0,0.4,0.1,0.6,0.2,0.8c0,0,0.1,0.1,0.1,0.1c0.1,0.1,0.2,0.1,0.2,0.1c0.1,0,0.1,0,0.1,0v0.3
			h-3.6l0,0v-0.3l0,0l0,0c0,0,0,0,0,0c0,0,0.2,0,0.3-0.1c0.2-0.1,0.3-0.3,0.3-0.7v-7.2c0-0.4-0.2-0.6-0.3-0.7
			c-0.1-0.1-0.2-0.1-0.3-0.1c0,0,0,0,0,0l0,0l0,0v-0.3l0,0h3.6v0.3c0,0,0,0-0.1,0c-0.1,0-0.1,0-0.2,0.1c0,0-0.1,0.1-0.1,0.1
			c-0.1,0.1-0.2,0.4-0.2,0.8v3.9l0,0l0,0l0,0h2.6v-4c0-0.2-0.1-0.4-0.1-0.5c-0.2-0.3-0.5-0.3-0.5-0.3v-0.3h3.6l0,0V36.6z M95.7,42.9
			c-0.5,1.1-1.3,2-2.4,2.5c-0.3,0.1-0.6,0.2-0.9,0.3c-0.3,0.1-0.6,0.1-0.9,0.1l0,0l0,0c-0.3,0-0.6,0-0.9-0.1
			c-0.9-0.2-1.7-0.6-2.3-1.3c-0.8-0.9-1.3-2-1.3-3.4c0-1.3,0.5-2.5,1.3-3.4c0.6-0.6,1.4-1.1,2.3-1.3c0.3-0.1,0.6-0.1,0.9-0.1l0,0
			l0,0c0.3,0,0.6,0,0.9,0.1c0.3,0.1,0.6,0.2,0.9,0.3c1.1,0.5,2,1.4,2.4,2.5c0.2,0.6,0.4,1.2,0.4,1.8C96,41.7,95.9,42.3,95.7,42.9z
			 M104.1,45.8L104.1,45.8h-6.8l0,0v-0.3l0,0l0,0c0,0,0,0,0,0c0,0,0.1,0,0.2,0c0.2-0.1,0.4-0.2,0.5-0.8v-7.2c0-0.5-0.3-0.7-0.5-0.8
			c-0.1,0-0.1,0-0.2,0c0,0,0,0,0,0l0,0l0,0v-0.3l0,0h3.6v0.3c0,0-0.1,0-0.2,0c-0.2,0.1-0.4,0.3-0.4,0.9l0,3.8l0,3.8h1.7
			c0.2,0,0.4,0,0.6,0c0.4-0.1,0.6-0.2,0.8-0.3c0.1-0.1,0.2-0.1,0.2-0.2c0.2-0.2,0.2-0.5,0.2-0.5l0,0h0.3l0,0V45.8z M112.5,44.2
			c-0.2,0.2-0.4,0.4-0.6,0.6c-0.7,0.6-1.6,1-2.7,1l0,0h-3.6l0,0v-0.3l0,0l0,0c0,0,0,0,0,0c0,0,0.1,0,0.2,0c0.2-0.1,0.4-0.2,0.5-0.8
			v-7.2c0-0.5-0.3-0.7-0.5-0.8c-0.1,0-0.1,0-0.2,0c0,0,0,0,0,0l0,0l0,0v-0.3l0,0c0,0,3.3,0,3.6,0l0,0c0.4,0,0.7,0,1,0.1
			c0.6,0.1,1.2,0.4,1.6,0.7c0.7,0.5,1.2,1.3,1.5,2.1c0.2,0.6,0.3,1.2,0.3,1.8C113.6,42.1,113.2,43.3,112.5,44.2z M118.5,36.6
			c0,0-0.1,0-0.2,0c-0.1,0-0.2,0.1-0.3,0.4c-0.1,0.1-0.1,0.3-0.1,0.6v6.9c0,0.3,0,0.4,0.1,0.6c0.1,0.2,0.2,0.3,0.3,0.4
			c0.1,0,0.1,0,0.2,0c0,0,0,0,0,0l0,0l0,0v0.3l0,0H115v-0.3c0,0,0.1,0,0.2,0c0.2-0.1,0.4-0.2,0.4-0.8v-7.2c0-0.5-0.3-0.7-0.4-0.8
			c-0.1,0-0.2,0-0.2,0v-0.3h3.6l0,0V36.6z M127.7,36.6L127.7,36.6L127.7,36.6C127.7,36.6,127.7,36.6,127.7,36.6c-0.2,0-0.2,0-0.3,0
			c-0.2,0.1-0.3,0.3-0.3,0.8l0,8.3l0,0h-0.9l0,0l-2.1-4.2l-2.1-4.2c0,0-0.1-0.1-0.1-0.1c0,0-0.1-0.1-0.1-0.1c0,0.1,0,0.2,0,0.3v7.2
			c0,0.6,0.2,0.8,0.4,0.8c0.1,0,0.2,0,0.2,0v0.3h-2.2v-0.3c0,0,0,0,0.1,0c0.1,0,0.2-0.1,0.3-0.2c0.1-0.1,0.2-0.3,0.2-0.6v-7.2
			c0-0.3-0.1-0.5-0.2-0.6c-0.1-0.1-0.2-0.2-0.3-0.2c-0.1,0-0.1,0-0.1,0v-0.3h3.4l2.5,5v-3.8c0-0.1,0-0.2,0-0.3
			c-0.1-0.3-0.3-0.4-0.4-0.5c-0.1,0-0.1,0-0.2,0c0,0,0,0,0,0l0,0l0,0v-0.3l0,0h2.2l0,0V36.6z M137.7,42.4c-0.1,0-0.2,0-0.2,0.1
			c0,0.1-0.1,0.2-0.1,0.4c0,0.8-0.3,1.8-1.2,2.4c-0.5,0.4-1.2,0.6-2.2,0.6c-3.5-0.1-5.1-2.2-5.1-4.8c0-2.6,2.1-4.7,4.6-4.7
			c0.3,0,0.5,0,0.8,0c0.5,0.1,1,0.2,1.4,0.4c0.2,0.1,0.4,0.3,0.6,0.4c0,0,0.1,0,0.1,0c0,0,0.1,0,0.1,0c0.2-0.1,0.4-0.5,0.6-0.5l0,0
			l0,0v2.5l-0.4,0.1l0,0l0,0c-0.2-0.3-0.3-0.7-0.6-1.1c-0.2-0.3-0.4-0.5-0.6-0.8c-0.3-0.2-0.6-0.4-1-0.5c-0.2,0-0.4-0.1-0.7-0.1
			c-1.2,0-1.9,0.7-2.3,1.8c-0.2,0.6-0.4,1.4-0.4,2.3c0,0.6,0,1.1,0.2,1.6c0.1,0.5,0.3,1,0.5,1.4c0.4,0.8,1.1,1.4,2.1,1.4
			c0.3,0,0.6,0,0.8-0.1c0.8-0.3,1.3-0.8,1.3-1.6c0-0.8-0.2-1.1-0.4-1.2c-0.1-0.1-0.2,0-0.2,0v-0.3h2.2l0,0V42.4z M145.3,45.5
			c-0.4,0.2-0.9,0.3-1.5,0.3c-0.3,0-0.6,0-0.9,0l0,0l0,0c-0.9,0-1.5-0.1-2-0.2c-0.3-0.1-0.5-0.1-0.6-0.1c-0.2,0-0.4,0-0.5,0.2l0,0
			c0,0-0.3,0-0.4,0l0,0v-2.5l0,0h0.4l0,0c0,0.8,0.9,1.4,2,1.7c0.4,0.1,0.7,0.1,1.1,0.1c1.4,0,2.1-0.7,2-1.4c0-0.2-0.1-0.5-0.3-0.7
			c-0.2-0.3-0.6-0.5-1.1-0.7c-0.1,0-0.2-0.1-0.3-0.1c-1.1-0.3-2.6-0.7-3.4-1.6c-0.2-0.2-0.3-0.4-0.4-0.6c-0.2-0.3-0.3-0.7-0.3-1.2
			c0,0,0-0.1,0-0.2c0-0.1,0-0.2,0.1-0.3c0.1-0.5,0.5-1.1,1.4-1.5c0.5-0.2,1.2-0.4,2.1-0.4l0,0l0,0c0.4,0,0.8,0,1,0.1
			c0.1,0,0.3,0.1,0.4,0.1c0.2,0.1,0.4,0.2,0.6,0.2c0.1,0,0.2,0,0.3,0c0.2,0,0.3,0,0.5-0.2c0.1,0,0.1-0.1,0.2-0.1
			c0.1,0,0.1-0.1,0.2-0.1c0,0.4,0,2.4,0,2.4l-0.3,0c0,0-0.2-1.5-2.1-1.8c-0.3-0.1-0.6-0.1-0.9-0.1c-1.6,0-2.2,2-1.1,2.4
			c0.2,0.1,0.4,0.1,0.7,0.2c0.1,0,0.3,0.1,0.4,0.1c0.7,0.2,1.5,0.4,2.3,0.7c0.8,0.3,1.4,0.8,1.8,1.5c0.2,0.4,0.3,0.9,0.3,1.6
			C146.8,44.3,146.3,45.1,145.3,45.5z M161.7,45.8L161.7,45.8h-6.8v-0.3c0,0,0.3,0,0.5-0.3c0.1-0.1,0.1-0.3,0.1-0.5v-7.2
			c0-0.2-0.1-0.4-0.1-0.5c-0.2-0.3-0.5-0.3-0.5-0.3v-0.3h3.6v0.3c0,0-0.6-0.1-0.6,1l0,7.7h1.7c0.2,0,0.4,0,0.6,0
			c0.4-0.1,0.6-0.2,0.8-0.3c0.1-0.1,0.2-0.1,0.2-0.2c0.2-0.2,0.2-0.5,0.2-0.5l0,0h0.3l0,0V45.8z M166.9,36.6c0,0-0.1,0-0.2,0
			c-0.1,0-0.2,0.1-0.3,0.4c-0.1,0.1-0.1,0.3-0.1,0.6v6.9c0,0.3,0,0.4,0.1,0.6c0.1,0.2,0.2,0.3,0.3,0.4c0.1,0,0.1,0,0.2,0
			c0,0,0,0,0,0l0,0l0,0v0.3l0,0h-3.6v-0.3c0,0,0.1,0,0.2,0c0.2-0.1,0.4-0.2,0.4-0.8v-7.2c0-0.5-0.3-0.7-0.4-0.8c-0.1,0-0.2,0-0.2,0
			v-0.3h3.6l0,0V36.6z M179.2,36.6c0,0-0.1,0-0.2,0c-0.1,0-0.2,0.1-0.3,0.4c-0.1,0.1-0.1,0.3-0.1,0.6v6.9c0,0.3,0,0.4,0.1,0.6
			c0.1,0.2,0.2,0.3,0.3,0.4c0.1,0,0.1,0,0.2,0c0,0,0,0,0,0l0,0l0,0v0.3l0,0h-3.6v-0.3c0,0,0.1,0,0.2,0c0.1,0,0.1-0.1,0.2-0.1
			c0.1-0.1,0.1-0.2,0.2-0.3c0-0.1,0-0.2,0-0.3v-7.1l-2.7,7.2l-0.3,0.8v0v0l-3.1-8v7.1c0,0.3,0,0.4,0.1,0.6c0.1,0.2,0.2,0.3,0.3,0.3
			c0,0,0.1,0,0.1,0c0.1,0,0.1,0,0.1,0l0,0l0,0v0.3l0,0h-2.2l0,0v-0.3l0,0l0,0c0,0,0,0,0,0c0,0,0.2,0,0.3-0.1
			c0.1-0.1,0.3-0.3,0.3-0.7v-7.2c0-0.4-0.2-0.6-0.3-0.7c-0.1-0.1-0.2-0.1-0.3-0.1c0,0,0,0,0,0l0,0l0,0v-0.3l0,0h3.8l0,0.3
			c-0.2,0.1-0.1,0.4,0,0.7c0,0.1,0.1,0.2,0.1,0.3l1.3,3.3l1.5-4c0,0,0-0.1,0-0.1c0-0.1,0-0.2,0-0.2c0,0,0,0-0.1,0l0.1-0.3h3.9l0,0
			V36.6z M184.4,36.6c0,0-0.6,0-0.6,1v6.9c0,1,0.6,1,0.6,1v0.3h-3.6v-0.3c0,0,0.1,0,0.3-0.1c0.1-0.1,0.2-0.2,0.3-0.4
			c0-0.1,0-0.2,0-0.3v-7.2c0-0.1,0-0.2,0-0.3c-0.1-0.2-0.2-0.4-0.3-0.4c-0.2-0.1-0.3-0.1-0.3-0.1v-0.3h3.6V36.6z M193.5,38.2h-0.3
			c0,0-0.3-1.3-2.2-1.3c0,0-0.2,0.4-0.2,0.7v6.9c0,1,0.6,1,0.6,1v0.3h-3.6l0,0v-0.3c0,0,0.2,0,0.4-0.2c0.1-0.1,0.1-0.2,0.2-0.4
			c0-0.1,0-0.2,0-0.3v-7.2c0-0.1-0.1-0.2-0.1-0.3c0-0.1-0.1-0.2-0.1-0.2c-0.2,0-0.4,0-0.6,0.1c-0.2,0-0.4,0.1-0.5,0.1
			c-0.3,0.1-0.5,0.3-0.7,0.4c-0.1,0.1-0.1,0.2-0.2,0.2c-0.2,0.2-0.2,0.4-0.2,0.4l0,0h-0.3l0.3-1.9h7l0,0l0.2,0.9L193.5,38.2
			L193.5,38.2z M201.1,37.2c-0.1-0.1-0.4-0.2-0.7-0.3c-0.2,0-0.4,0-0.6,0h-1.7v3.3h0.9c0.3,0,0.5-0.1,0.6-0.2s0.3-0.2,0.4-0.3
			c0.1-0.2,0.2-0.4,0.2-0.5c0,0,0,0,0,0l0,0h0.3v2.3h-0.3l0,0c0,0,0,0,0,0c0-0.1-0.1-0.3-0.2-0.5c-0.1-0.1-0.2-0.3-0.4-0.3
			s-0.4-0.2-0.6-0.2h-0.9v4.8h1.7c0.2,0,0.4,0,0.6,0c0.3-0.1,0.6-0.2,0.7-0.3c0.4-0.3,0.2-0.7,0.2-0.7h0.3l0,0l0.3,1.5l0,0h-6.8
			v-0.3c0,0,0,0,0.1,0c0.1,0,0.2-0.1,0.3-0.2c0.1-0.1,0.2-0.3,0.2-0.6v-7.2c0-0.3-0.1-0.5-0.2-0.6c-0.1-0.1-0.2-0.2-0.3-0.2
			c-0.1,0-0.1,0-0.1,0v-0.3h6.8l0,0l-0.3,1.5l0,0h-0.3C201.3,37.9,201.5,37.5,201.1,37.2z M209.8,44.8c-0.2,0.2-0.5,0.4-0.8,0.5
			c-0.3,0.1-0.6,0.3-0.9,0.3c-0.3,0.1-0.7,0.1-1.1,0.1l0,0h-3.6l0,0v-0.3l0,0l0,0c0,0,0,0,0,0c0,0,0.1,0,0.2,0
			c0.2-0.1,0.4-0.2,0.5-0.8v-7.2c0-0.5-0.3-0.7-0.5-0.8c-0.1,0-0.1,0-0.2,0c0,0,0,0,0,0l0,0l0,0v-0.3l0,0c0,0,3.3,0,3.6,0l0,0
			c0.7,0,1.3,0.1,1.9,0.4c1.6,0.8,2.5,2.5,2.5,4.3C211.4,42.4,210.9,43.9,209.8,44.8z"/>
		<path class="st0" d="M109,36.7c-0.1,0-0.1,0-0.2,0.1c-0.2,0.1-0.3,0.4-0.3,0.9v6.9c0,0.1,0,0.2,0,0.3c0,0.3,0.1,0.5,0.4,0.5
			c0.7,0,1.2-0.6,1.6-1.3c0.4-0.8,0.6-1.7,0.7-2.4c0-0.2,0-0.4,0-0.6C111.2,39.8,111.1,36.7,109,36.7z"/>
	</g>
	<g>
		<g>
			<path class="st0" d="M95,16.2h-8.5c-1.1,0-2.1-0.9-2.1-2.1s0.9-2.1,2.1-2.1H95c1,0,1.8-0.8,1.8-1.8V9.1c0-1-0.8-1.8-1.8-1.8H83.5
				c-1.1,0-2.1-0.9-2.1-2.1c0-1.1,0.9-2.1,2.1-2.1H95c3.3,0,5.9,2.7,5.9,5.9v1.1C101,13.5,98.3,16.2,95,16.2z"/>
		</g>
		<g>
			<path class="st0" d="M131.3,25.6h-8.2c-3.3,0-6-2.7-6-6v-3c0-3.3,2.7-6,6-6h8.2c3.3,0,6,2.7,6,6v3
				C137.2,22.9,134.6,25.6,131.3,25.6z M123.1,14.8c-1,0-1.8,0.8-1.8,1.8v3c0,1,0.8,1.8,1.8,1.8h8.2c1,0,1.8-0.8,1.8-1.8v-3
				c0-1-0.8-1.8-1.8-1.8H123.1z"/>
		</g>
		<g>
			<path class="st0" d="M158.6,25.6c-1.1,0-2.1-0.9-2.1-2.1v-7.7c0-0.9-0.7-1.6-1.6-1.6h-9.2c-0.9,0-1.6,0.7-1.6,1.6v7.7
				c0,1.1-0.9,2.1-2.1,2.1c-1.1,0-2.1-0.9-2.1-2.1v-7.7c0-3.1,2.6-5.7,5.7-5.7h9.2c3.1,0,5.7,2.6,5.7,5.7v7.7
				C160.7,24.7,159.8,25.6,158.6,25.6z"/>
		</g>
		<g>
			<path class="st0" d="M150.4,24.2c-1,0-1.7-0.8-1.7-1.7v-5.1c0-1,0.8-1.7,1.7-1.7c1,0,1.7,0.8,1.7,1.7v5.1
				C152.1,23.4,151.4,24.2,150.4,24.2z"/>
		</g>
		<g>
			<path class="st0" d="M113.4,18.7c-1,0-1.9-0.8-1.9-1.9v-2.4c0-0.3-0.2-0.5-0.5-0.5h-6.4c-1,0-1.9-0.8-1.9-1.9s0.8-1.9,1.9-1.9
				h6.4c2.3,0,4.2,1.9,4.2,4.2v2.4C115.2,17.9,114.4,18.7,113.4,18.7z"/>
		</g>
		<g>
			<path class="st0" d="M82.5,25.3c-1,0-1.7-0.8-1.7-1.7v-6.9c0-1,0.8-1.7,1.7-1.7c1,0,1.7,0.8,1.7,1.7v6.9
				C84.2,24.5,83.4,25.3,82.5,25.3z"/>
		</g>
		<g>
			<path class="st0" d="M103.4,25.5c-1,0-1.7-0.8-1.7-1.7V9c0-1,0.8-1.7,1.7-1.7c1,0,1.7,0.8,1.7,1.7v14.7
				C105.2,24.7,104.4,25.5,103.4,25.5z"/>
		</g>
		<g>
			<path class="st0" d="M166.2,25.6c-1,0-1.7-0.8-1.7-1.7V12.7c0-1,0.8-1.7,1.7-1.7c1,0,1.7,0.8,1.7,1.7v11.2
				C167.9,24.9,167.1,25.6,166.2,25.6z"/>
		</g>
		<circle class="st0" cx="166.1" cy="6.8" r="2"/>
		<g>
			<path class="st0" d="M184.8,25.6h-11.7c-1,0-1.7-0.8-1.7-1.7c0-1,0.8-1.7,1.7-1.7h11.3v-2.7h-10.1c-1.7,0-3.1-1.4-3.1-3.1V13
				c0-1.7,1.4-3.1,3.1-3.1h10.6c1,0,1.7,0.8,1.7,1.7s-0.8,1.7-1.7,1.7h-10.2v2.4h10.1c1.7,0,3.1,1.4,3.1,3.1v3.6
				C187.8,24.2,186.5,25.6,184.8,25.6z"/>
		</g>
		<g>
			<path class="st0" d="M205.4,25.9h-11.6c-1.7,0-3.1-1.4-3.1-3.1v-8.2c0-2.4,1.9-4.3,4.3-4.3h7.2c2.7,0,4.9,2.2,4.9,4.9
				s-2.2,4.9-4.9,4.9h-8v2.3h11.2c1,0,1.7,0.8,1.7,1.7C207.1,25.2,206.3,25.9,205.4,25.9z M194.2,16.7h8c0.8,0,1.4-0.6,1.4-1.4
				c0-0.8-0.6-1.4-1.4-1.4H195c-0.4,0-0.8,0.4-0.8,0.8V16.7z"/>
		</g>
	</g>
</g>
</svg>
