<?xml version="1.0" encoding="utf-8"?>
<!-- Generator: Adobe Illustrator 27.1.1, SVG Export Plug-In . SVG Version: 6.00 Build 0)  -->
<svg version="1.1" id="Layer_1" xmlns="http://www.w3.org/2000/svg" xmlns:xlink="http://www.w3.org/1999/xlink" x="0px" y="0px"
	 viewBox="0 0 43.6 50" style="enable-background:new 0 0 43.6 50;" xml:space="preserve">
<style type="text/css">
	.st0{fill:#FFFFFF;}
	.st1{opacity:0.6;fill:#FFFFFF;}
	.st2{fill:#221F1F;}
	.st3{fill:url(#SVGID_1_);}
	.st4{fill:url(#SVGID_00000076582769504141925300000009600559784718079134_);}
	.st5{fill:url(#SVGID_00000155137959711694229960000004404598015643546272_);}
	.st6{fill:url(#SVGID_00000104694215110109269960000006084416494234640796_);}
	.st7{opacity:0.6;fill:url(#SVGID_00000052097321230611838290000009570805110206154423_);}
	.st8{opacity:0.6;fill:url(#SVGID_00000116952412762345949430000005205146002121786501_);}
	.st9{fill:#0958A7;}
	.st10{fill:url(#SVGID_00000139259920264483924960000001551687604969819582_);}
	.st11{fill:url(#SVGID_00000160172794588260215530000012155006640456615863_);}
	.st12{fill:url(#SVGID_00000101799776996125423740000014369872957264507318_);}
	.st13{fill:url(#SVGID_00000109021663173642310070000009218136195336885402_);}
	.st14{fill:url(#SVGID_00000105410632418916996440000013385738329050925232_);}
	.st15{fill:url(#SVGID_00000123420062148695779340000009455173788684416650_);}
	.st16{fill:url(#SVGID_00000073720547310649554160000005843441285685260453_);}
	.st17{fill:url(#SVGID_00000082354833369238134000000007048295749138598276_);}
	.st18{fill:url(#SVGID_00000087390449352040748120000018157528327174363558_);}
	.st19{fill:url(#SVGID_00000044139565911755703370000010883034510791388330_);}
	.st20{fill:url(#SVGID_00000147197974644822061630000012408144716625962388_);}
	.st21{fill:url(#SVGID_00000158720935990369148250000001415687936258171288_);}
	.st22{fill:url(#SVGID_00000112616651870266886190000011024101820306260882_);}
	.st23{fill:url(#SVGID_00000119095204794499117920000007499571765137583490_);}
	.st24{fill:url(#SVGID_00000066477354129486165530000013970940847664470456_);}
	.st25{fill:url(#SVGID_00000162354171024382952650000009493089914086044073_);}
	.st26{fill:url(#SVGID_00000126291269204177880100000016390686772289307560_);}
	.st27{opacity:0.6;fill:url(#SVGID_00000147939919941756966450000018353309464300528539_);}
	.st28{opacity:0.6;fill:url(#SVGID_00000116944854252214216060000017316315352383600036_);}
	.st29{fill:url(#SVGID_00000005246655023935599460000009954427953409586358_);}
	.st30{fill:url(#SVGID_00000000214160925753848640000003161642269625706904_);}
	.st31{fill:url(#SVGID_00000134949050348890554780000006596248106146541214_);}
	.st32{fill:url(#SVGID_00000072253609748585841820000016793864698446808965_);}
	.st33{fill:url(#SVGID_00000111878502350742090860000015808113279303009950_);}
	.st34{fill:url(#SVGID_00000160150336057499174350000018142387736096176789_);}
	.st35{fill:url(#SVGID_00000010280654314446935470000006776455572061809827_);}
	.st36{fill:url(#SVGID_00000178886136567795062300000018029210599600529315_);}
	.st37{fill:url(#SVGID_00000097470909269973458580000007536000307354868920_);}
	.st38{fill:url(#SVGID_00000166663602622434533510000017794098984483758489_);}
	.st39{fill:url(#SVGID_00000153698755399430758600000008598082371540577933_);}
	.st40{fill:url(#SVGID_00000014607169577268021160000009966987310892403333_);}
	.st41{fill:url(#SVGID_00000012452172995214878890000002295163494174896312_);}
	.st42{fill:url(#SVGID_00000181084331040914504700000017878813457760059790_);}
	.st43{fill:url(#SVGID_00000083084786931916802080000016986099031469425820_);}
	.st44{fill:url(#SVGID_00000176025988615269866730000016641797671653705376_);}
	.st45{fill:url(#SVGID_00000080889533690251975190000012041667079359941265_);}
	.st46{opacity:0.6;fill:url(#SVGID_00000142164459601353453630000012786929486411101576_);}
	.st47{opacity:0.6;fill:url(#SVGID_00000118362120131636891720000008813100607741309316_);}
	.st48{fill:url(#SVGID_00000047742360119741577090000007496333908062487733_);}
	.st49{fill:url(#SVGID_00000043434131645778009400000010933197919876785047_);}
	.st50{fill:url(#SVGID_00000159449093063805892850000006840259715896326826_);}
	.st51{fill:url(#SVGID_00000096742521994966291560000018028777175294304185_);}
	.st52{fill:url(#SVGID_00000172428955064170620870000004343021879966505646_);}
	.st53{opacity:0.6;fill:url(#SVGID_00000090292467269699398740000001891578664222426496_);}
	.st54{opacity:0.6;fill:url(#SVGID_00000062905313529093333510000010479135178670612903_);}
	.st55{fill:url(#SVGID_00000142898979087669605960000006887911042201855625_);}
	.st56{opacity:0.6;fill:url(#SVGID_00000170277394493399077400000005453942633033665710_);}
	.st57{opacity:0.6;fill:url(#SVGID_00000018211127013833573750000015807211740251786411_);}
	.st58{opacity:0.3;}
	.st59{fill:url(#SVGID_00000035511637154436935370000018428523345064961675_);}
	.st60{fill:url(#SVGID_00000166662627985066088810000010921626392710462370_);}
	.st61{fill:#2D358E;}
	.st62{fill:#43C6F2;}
</style>
<g>
	<g>
		<rect x="18.9" y="21.2" class="st2" width="1.2" height="1.2"/>
		<rect x="20.6" y="21.2" class="st2" width="1.2" height="1.2"/>
		<rect x="18.9" y="22.8" class="st2" width="1.2" height="1.2"/>
		<rect x="20.6" y="22.8" class="st2" width="1.2" height="1.2"/>
	</g>
	<g>
		<rect x="33.6" y="25.9" class="st2" width="1.8" height="1.8"/>
		<rect x="36.2" y="25.9" class="st2" width="1.8" height="1.8"/>
		<rect x="33.6" y="28.4" class="st2" width="1.8" height="1.8"/>
		<rect x="36.2" y="28.4" class="st2" width="1.8" height="1.8"/>
	</g>
	<linearGradient id="SVGID_1_" gradientUnits="userSpaceOnUse" x1="14.6399" y1="33.4262" x2="14.6399" y2="9.1597">
		<stop  offset="0" style="stop-color:#05509F"/>
		<stop  offset="1" style="stop-color:#26B3E8"/>
	</linearGradient>
	<path class="st3" d="M17.5,30.1v-7.4l-5.8,3v4.9c-0.1,2.1-1.6,2-1.6,2v0.8h9v-0.8C19.1,32.5,17.5,32.7,17.5,30.1z"/>
	
		<linearGradient id="SVGID_00000090275041713097992530000000943221481794074555_" gradientUnits="userSpaceOnUse" x1="14.6399" y1="33.4262" x2="14.6399" y2="9.1597">
		<stop  offset="0" style="stop-color:#05509F"/>
		<stop  offset="1" style="stop-color:#26B3E8"/>
	</linearGradient>
	<path style="fill:url(#SVGID_00000090275041713097992530000000943221481794074555_);" d="M10.1,9.5v0.8c0,0,1.5-0.1,1.6,2v11.5
		l5.8-3v-8.1c0-2.6,1.6-2.4,1.6-2.4V9.5H10.1z"/>
	
		<linearGradient id="SVGID_00000149376945822402614200000012198311592079409291_" gradientUnits="userSpaceOnUse" x1="32.4721" y1="33.4262" x2="32.4721" y2="9.1597">
		<stop  offset="0" style="stop-color:#05509F"/>
		<stop  offset="1" style="stop-color:#26B3E8"/>
	</linearGradient>
	<path style="fill:url(#SVGID_00000149376945822402614200000012198311592079409291_);" d="M42.7,29.6c0,0,0,2.5-4.7,2.5h-9l0-6.5
		l-5.8-3v7.9c-0.2,2.1-1.6,2-1.6,2v0.8h21.9v-3.7H42.7z"/>
	
		<linearGradient id="SVGID_00000173848791216433150310000017522564630875231621_" gradientUnits="userSpaceOnUse" x1="26.0328" y1="33.4262" x2="26.0328" y2="9.1597">
		<stop  offset="0" style="stop-color:#05509F"/>
		<stop  offset="1" style="stop-color:#26B3E8"/>
	</linearGradient>
	<path style="fill:url(#SVGID_00000173848791216433150310000017522564630875231621_);" d="M23.1,12.3v8.4l5.8,3l0-11
		c0-2.6,1.6-2.4,1.6-2.4V9.5h-9v0.8C21.5,10.3,22.9,10.2,23.1,12.3z"/>
	
		<radialGradient id="SVGID_00000137111188330473372650000005958256431765417651_" cx="26.17" cy="16.8792" r="3.5667" gradientTransform="matrix(0.8802 0.4747 -5.121252e-02 9.496362e-02 4.0004 2.8544)" gradientUnits="userSpaceOnUse">
		<stop  offset="0" style="stop-color:#707274"/>
		<stop  offset="1" style="stop-color:#FFFFFF;stop-opacity:0"/>
	</radialGradient>
	<path style="opacity:0.6;fill:url(#SVGID_00000137111188330473372650000005958256431765417651_);" d="M23.1,15.2
		c0.6,0.1,1.1,0.3,1.6,0.5c0.3,0.1,0.5,0.2,0.8,0.3c0.2,0.1,0.5,0.2,0.7,0.4c0.2,0.1,0.5,0.3,0.7,0.4c0.2,0.1,0.5,0.3,0.7,0.4
		c0.5,0.3,0.9,0.6,1.3,1l0,0L26,16.8L23.1,15.2L23.1,15.2z"/>
	
		<radialGradient id="SVGID_00000045610792499956284600000006738211855686497169_" cx="-933.9876" cy="16.9586" r="3.5667" gradientTransform="matrix(-0.8802 0.4747 5.121252e-02 9.496362e-02 -808.4246 458.6767)" gradientUnits="userSpaceOnUse">
		<stop  offset="0" style="stop-color:#707274"/>
		<stop  offset="1" style="stop-color:#FFFFFF;stop-opacity:0"/>
	</radialGradient>
	<path style="opacity:0.6;fill:url(#SVGID_00000045610792499956284600000006738211855686497169_);" d="M17.6,15.3
		c-0.6,0.1-1.1,0.3-1.6,0.5c-0.3,0.1-0.5,0.2-0.8,0.3c-0.2,0.1-0.5,0.2-0.7,0.4c-0.2,0.1-0.5,0.3-0.7,0.4c-0.2,0.1-0.5,0.3-0.7,0.4
		c-0.5,0.3-0.9,0.6-1.3,1l0,0l2.9-1.5L17.6,15.3L17.6,15.3z"/>
	<g>
		
			<rect x="19.2" y="25.6" transform="matrix(-1.836970e-16 1 -1 -1.836970e-16 68.9879 25.3692)" class="st9" width="5.3" height="43.2"/>
		<path class="st9" d="M43.6,50H0v-5.6h43.6V50z M0.4,49.6h42.9v-4.9H0.4V49.6z"/>
	</g>
	<g>
		
			<linearGradient id="SVGID_00000176037803484139293950000006663902018836562084_" gradientUnits="userSpaceOnUse" x1="0" y1="39.0118" x2="43.6187" y2="39.0118">
			<stop  offset="0.2" style="stop-color:#43C6F2"/>
			<stop  offset="1" style="stop-color:#2D358E"/>
		</linearGradient>
		<path style="fill:url(#SVGID_00000176037803484139293950000006663902018836562084_);" d="M43.6,43.5H0v-9h43.6V43.5z M0.4,43.1
			h42.9v-8.3H0.4V43.1z"/>
	</g>
	
		<linearGradient id="SVGID_00000137814339258271823280000007669630320899837861_" gradientUnits="userSpaceOnUse" x1="0.1866" y1="16.6477" x2="43.4321" y2="16.6477">
		<stop  offset="0" style="stop-color:#26B3E8"/>
		<stop  offset="1" style="stop-color:#05509F"/>
	</linearGradient>
	<path style="fill:url(#SVGID_00000137814339258271823280000007669630320899837861_);" d="M43.4,11.9c0,3.3-1.3,6.3-3.5,8.4
		c-2.2,2.2-5.1,3.5-8.4,3.5h-2.3l-8.8-4.5L9.7,24.8v-5.3l0.5-0.3l10.3-5.4l10.3,5.4h0.6c2,0,3.9-0.8,5.2-2.1
		c1.3-1.3,2.1-3.2,2.1-5.2c0-4-3.3-7.3-7.3-7.3H7.6v25.5c0,2.6,1.6,2.4,1.6,2.4v0.8h-9v-0.8c0,0,1.5,0.1,1.6-2V2.8
		c-0.1-2.1-1.6-2-1.6-2V0h31.3C38.1,0,43.4,5.3,43.4,11.9z"/>
	<g>
		<path d="M29.2,23.8c0,0-9-4.5-8.8-4.5c0,0-10.8,5.5-10.8,5.5l0-0.1c3.4-2.2,7.2-4.2,10.8-6C23.4,20.4,26.6,21.9,29.2,23.8
			L29.2,23.8z"/>
	</g>
	<g>
		<g>
			<path class="st0" d="M2.3,48.7H1.1v-0.1c0,0,0.2,0,0.2-0.2v-2.2c0-0.3-0.2-0.2-0.2-0.2v-0.1h1.1v0.1c0,0-0.2,0-0.2,0.3v1.2l0,0
				h0.8v-1.2c0-0.3-0.2-0.2-0.2-0.2v-0.1h1.1v0.1c0,0-0.2,0-0.2,0.3v2.1c0,0.3,0.2,0.3,0.2,0.3v0.1H2.7v-0.1c0,0,0.2,0,0.2-0.2v-0.8
				H2.1v0.8C2.1,48.6,2.3,48.6,2.3,48.7L2.3,48.7z"/>
			<path class="st0" d="M5.6,45.8c0.8,0,1.4,0.7,1.4,1.5c0,0.8-0.6,1.5-1.4,1.5c-0.8,0-1.4-0.7-1.4-1.5C4.1,46.4,4.8,45.8,5.6,45.8z
				 M5.6,46c-0.4,0-0.7,0.6-0.7,1.3c0,0.7,0.3,1.3,0.7,1.3c0.4,0,0.7-0.6,0.7-1.3C6.2,46.5,5.9,46,5.6,46z"/>
			<path class="st0" d="M7.3,48.6c0,0,0.2,0,0.2-0.2v-2.2c0-0.3-0.2-0.2-0.2-0.2v-0.1h1.1v0.1c0,0-0.2,0-0.2,0.3l0,2.4h0.5
				c0.6,0,0.6-0.3,0.6-0.3h0.1v0.5L7.3,48.6L7.3,48.6z"/>
			<path class="st0" d="M9.9,45.8c0,0,1,0,1.1,0c0.9,0,1.4,0.7,1.4,1.5c0,0.6-0.4,1.5-1.4,1.5H9.9v-0.1c0,0,0.2,0,0.2-0.2v-2.2
				C10.1,45.8,9.9,45.9,9.9,45.8L9.9,45.8z M11,45.9c-0.1,0-0.1,0.1-0.1,0.3v2.1c0,0.2,0,0.3,0.1,0.3c0.5,0,0.7-0.9,0.7-1.3
				C11.7,46.8,11.6,45.9,11,45.9z"/>
			<path class="st0" d="M12.8,45.8h1.1v0.1c0,0-0.2,0-0.2,0.3v2.1c0,0.3,0.2,0.3,0.2,0.3v0.1h-1.1v-0.1c0,0,0.2,0,0.2-0.2v-2.2
				C13,45.8,12.8,45.9,12.8,45.8L12.8,45.8z"/>
			<path class="st0" d="M16.3,47.3v-1.2c0-0.3-0.2-0.2-0.2-0.2v-0.1h0.7v0.1c0,0-0.2-0.1-0.2,0.3l0,2.6h-0.3L15,46.1
				c0,0,0-0.1-0.1-0.1c0,0,0,0.1,0,0.1v2.2c0,0.3,0.2,0.3,0.2,0.3v0.1h-0.7v-0.1c0,0,0.2,0,0.2-0.2v-2.2c0-0.3-0.2-0.2-0.2-0.2v-0.1
				h1.1L16.3,47.3z"/>
			<path class="st0" d="M19.8,47.8c0,0.4-0.3,1-1,0.9c-1.1,0-1.6-0.7-1.6-1.5c0-0.8,0.6-1.5,1.4-1.5c0.3,0,0.6,0.1,0.9,0.3
				c0.1,0.1,0.1-0.2,0.3-0.2v0.8l-0.1,0c-0.1-0.2-0.3-0.8-0.9-0.8c-0.6,0-0.8,0.6-0.8,1.3c0,0.7,0.2,1.4,0.8,1.4
				c0.4,0,0.7-0.2,0.7-0.5c0-0.4-0.2-0.4-0.2-0.4v-0.1h0.7v0.1C19.8,47.6,19.8,47.7,19.8,47.8z"/>
			<path class="st0" d="M22.4,45.8c0,0.1,0,0.8,0,0.8l-0.1,0c0,0-0.1-0.6-0.9-0.6c-0.5,0-0.7,0.6-0.4,0.7c0.5,0.2,1.8,0.2,1.7,1.3
				c0,0.4-0.4,0.7-1.2,0.7c-0.8,0-0.8-0.2-1,0c0,0-0.1,0-0.1,0v-0.8h0.1c0,0.3,0.5,0.6,1,0.6c0.8,0,0.8-0.7,0.2-0.9
				c-0.5-0.2-1.4-0.3-1.4-1.1c0,0,0-0.8,1.1-0.8c0.5,0,0.6,0.2,0.9,0.1C22.3,45.8,22.3,45.8,22.4,45.8z"/>
			<path class="st0" d="M25.2,48.6c0,0,0.2,0,0.2-0.2v-2.2c0-0.3-0.2-0.2-0.2-0.2v-0.1h1.1v0.1c0,0-0.2,0-0.2,0.3l0,2.4h0.5
				c0.6,0,0.6-0.3,0.6-0.3h0.1v0.5L25.2,48.6L25.2,48.6z"/>
			<path class="st0" d="M27.8,45.8h1.1v0.1c0,0-0.2,0-0.2,0.3v2.1c0,0.3,0.2,0.3,0.2,0.3v0.1h-1.1v-0.1c0,0,0.2,0,0.2-0.2v-2.2
				C28,45.8,27.8,45.9,27.8,45.8L27.8,45.8z"/>
			<path class="st0" d="M30.6,45.8L30.6,45.8c-0.1,0.1,0,0.3,0,0.4l0.4,1l0.5-1.2c0-0.1,0-0.1,0-0.1l0-0.1h1.2v0.1
				c0,0-0.2,0-0.2,0.3v2.1c0,0.3,0.2,0.3,0.2,0.3v0.1h-1.1v-0.1c0,0,0.2,0,0.2-0.2v-2.2L31,48.4l-0.1,0.2l-1-2.5v2.2
				c0,0.3,0.2,0.3,0.2,0.3v0.1h-0.7v-0.1c0,0,0.2,0,0.2-0.2v-2.2c0-0.3-0.2-0.2-0.2-0.2v-0.1H30.6z"/>
			<path class="st0" d="M33.2,45.8h1.1v0.1c0,0-0.2,0-0.2,0.3v2.1c0,0.3,0.2,0.3,0.2,0.3v0.1h-1.1v-0.1c0,0,0.2,0,0.2-0.2v-2.2
				C33.4,45.8,33.2,45.9,33.2,45.8L33.2,45.8z"/>
			<path class="st0" d="M34.9,45.8h2.2l0.1,0.6h-0.1c0,0-0.1-0.4-0.7-0.4c0,0-0.1,0.1-0.1,0.2v2.1c0,0.3,0.2,0.3,0.2,0.3v0.1h-1.1
				v-0.1c0,0,0.2,0,0.2-0.3v-2.2c0-0.1-0.1-0.2-0.1-0.2c-0.6,0-0.7,0.4-0.7,0.4h-0.1L34.9,45.8z"/>
			<path class="st0" d="M39.3,47.4L39.3,47.4c-0.1,0-0.2-0.3-0.5-0.3h-0.3v1.5h0.5c0.6,0,0.5-0.3,0.5-0.3h0.1l0.1,0.5h-2.1v-0.1
				c0,0,0.2,0,0.2-0.2v-2.2c0-0.3-0.2-0.2-0.2-0.2v-0.1h2.1l-0.1,0.5h-0.1c0,0,0.1-0.3-0.5-0.3h-0.5v1h0.3c0.3,0,0.4-0.3,0.4-0.3
				h0.1V47.4z"/>
			<path class="st0" d="M40.3,45.8c0,0,1,0,1.1,0c0.9,0,1.4,0.7,1.4,1.5c0,0.6-0.4,1.5-1.4,1.5h-1.1v-0.1c0,0,0.2,0,0.2-0.2v-2.2
				C40.4,45.8,40.3,45.9,40.3,45.8L40.3,45.8z M41.3,45.9c-0.1,0-0.1,0.1-0.1,0.3v2.1c0,0.2,0,0.3,0.1,0.3c0.5,0,0.7-0.9,0.7-1.3
				C42,46.8,42,45.9,41.3,45.9z"/>
		</g>
	</g>
	<g>
		<g>
			
				<linearGradient id="SVGID_00000076582666771465430440000008209847179388156293_" gradientUnits="userSpaceOnUse" x1="5.4536" y1="39.5103" x2="5.4536" y2="35.481">
				<stop  offset="0.2" style="stop-color:#43C6F2"/>
				<stop  offset="1" style="stop-color:#2D358E"/>
			</linearGradient>
			<path style="fill:url(#SVGID_00000076582666771465430440000008209847179388156293_);" d="M6.6,39.5H4c-0.4,0-0.6-0.3-0.6-0.6
				c0-0.4,0.3-0.6,0.6-0.6h2.6c0.3,0,0.6-0.2,0.6-0.6v-0.4c0-0.3-0.2-0.6-0.6-0.6H3.1c-0.4,0-0.6-0.3-0.6-0.6c0-0.4,0.3-0.6,0.6-0.6
				h3.6c1,0,1.8,0.8,1.8,1.8v0.4C8.5,38.7,7.7,39.5,6.6,39.5z"/>
		</g>
		<g>
			
				<linearGradient id="SVGID_00000104697886584411904760000000325514677019231667_" gradientUnits="userSpaceOnUse" x1="16.6154" y1="42.4397" x2="16.6154" y2="37.803">
				<stop  offset="0.2" style="stop-color:#43C6F2"/>
				<stop  offset="1" style="stop-color:#2D358E"/>
			</linearGradient>
			<path style="fill:url(#SVGID_00000104697886584411904760000000325514677019231667_);" d="M17.9,42.4h-2.5c-1,0-1.8-0.8-1.8-1.8
				v-0.9c0-1,0.8-1.8,1.8-1.8h2.5c1,0,1.8,0.8,1.8,1.8v0.9C19.7,41.6,18.9,42.4,17.9,42.4z M15.4,39.1c-0.3,0-0.6,0.3-0.6,0.6v0.9
				c0,0.3,0.3,0.6,0.6,0.6h2.5c0.3,0,0.6-0.3,0.6-0.6v-0.9c0-0.3-0.3-0.6-0.6-0.6H15.4z"/>
		</g>
		<g>
			
				<linearGradient id="SVGID_00000072267923002937260690000017905263064038605477_" gradientUnits="userSpaceOnUse" x1="23.8075" y1="42.4397" x2="23.8075" y2="37.6513">
				<stop  offset="0.2" style="stop-color:#43C6F2"/>
				<stop  offset="1" style="stop-color:#2D358E"/>
			</linearGradient>
			<path style="fill:url(#SVGID_00000072267923002937260690000017905263064038605477_);" d="M26.4,42.4c-0.4,0-0.6-0.3-0.6-0.6v-2.4
				c0-0.3-0.2-0.5-0.5-0.5h-2.8c-0.3,0-0.5,0.2-0.5,0.5v2.4c0,0.4-0.3,0.6-0.6,0.6c-0.4,0-0.6-0.3-0.6-0.6v-2.4c0-1,0.8-1.8,1.8-1.8
				h2.8c1,0,1.8,0.8,1.8,1.8v2.4C27,42.2,26.7,42.4,26.4,42.4z"/>
		</g>
		<g>
			
				<linearGradient id="SVGID_00000110469533779768491690000001532615988898173348_" gradientUnits="userSpaceOnUse" x1="23.8075" y1="42.0023" x2="23.8075" y2="39.3486">
				<stop  offset="0.2" style="stop-color:#43C6F2"/>
				<stop  offset="1" style="stop-color:#2D358E"/>
			</linearGradient>
			<path style="fill:url(#SVGID_00000110469533779768491690000001532615988898173348_);" d="M23.8,42c-0.3,0-0.5-0.2-0.5-0.5v-1.6
				c0-0.3,0.2-0.5,0.5-0.5c0.3,0,0.5,0.2,0.5,0.5v1.6C24.3,41.8,24.1,42,23.8,42z"/>
		</g>
		<g>
			
				<linearGradient id="SVGID_00000052825936477925259100000016272428899070366136_" gradientUnits="userSpaceOnUse" x1="10.9678" y1="40.3014" x2="10.9678" y2="37.6885">
				<stop  offset="0.2" style="stop-color:#43C6F2"/>
				<stop  offset="1" style="stop-color:#2D358E"/>
			</linearGradient>
			<path style="fill:url(#SVGID_00000052825936477925259100000016272428899070366136_);" d="M12.3,40.3c-0.3,0-0.6-0.3-0.6-0.6V39
				c0-0.1-0.1-0.1-0.1-0.1h-2c-0.3,0-0.6-0.3-0.6-0.6c0-0.3,0.3-0.6,0.6-0.6h2c0.7,0,1.3,0.6,1.3,1.3v0.7
				C12.9,40,12.6,40.3,12.3,40.3z"/>
		</g>
		<g>
			
				<linearGradient id="SVGID_00000145038126352458078390000001726909475992484270_" gradientUnits="userSpaceOnUse" x1="2.7486" y1="42.3384" x2="2.7486" y2="39.1279">
				<stop  offset="0.2" style="stop-color:#43C6F2"/>
				<stop  offset="1" style="stop-color:#2D358E"/>
			</linearGradient>
			<path style="fill:url(#SVGID_00000145038126352458078390000001726909475992484270_);" d="M2.7,42.3c-0.3,0-0.5-0.2-0.5-0.5v-2.1
				c0-0.3,0.2-0.5,0.5-0.5s0.5,0.2,0.5,0.5v2.1C3.3,42.1,3,42.3,2.7,42.3z"/>
		</g>
		<g>
			
				<linearGradient id="SVGID_00000078743390493092564930000006836619327755411624_" gradientUnits="userSpaceOnUse" x1="9.2451" y1="42.3967" x2="9.2451" y2="36.7589">
				<stop  offset="0.2" style="stop-color:#43C6F2"/>
				<stop  offset="1" style="stop-color:#2D358E"/>
			</linearGradient>
			<path style="fill:url(#SVGID_00000078743390493092564930000006836619327755411624_);" d="M9.2,42.4c-0.3,0-0.5-0.2-0.5-0.5v-4.6
				c0-0.3,0.2-0.5,0.5-0.5s0.5,0.2,0.5,0.5v4.6C9.8,42.2,9.5,42.4,9.2,42.4z"/>
		</g>
		<g>
			
				<linearGradient id="SVGID_00000084521368680130160510000005403560002360258454_" gradientUnits="userSpaceOnUse" x1="28.692" y1="42.4478" x2="28.692" y2="37.8845">
				<stop  offset="0.2" style="stop-color:#43C6F2"/>
				<stop  offset="1" style="stop-color:#2D358E"/>
			</linearGradient>
			<path style="fill:url(#SVGID_00000084521368680130160510000005403560002360258454_);" d="M28.7,42.4c-0.3,0-0.5-0.2-0.5-0.5v-3.5
				c0-0.3,0.2-0.5,0.5-0.5s0.5,0.2,0.5,0.5v3.5C29.2,42.2,29,42.4,28.7,42.4z"/>
		</g>
		
			<linearGradient id="SVGID_00000038403264172541110410000006777154089163961771_" gradientUnits="userSpaceOnUse" x1="28.6753" y1="37.2042" x2="28.6753" y2="35.9948">
			<stop  offset="0.2" style="stop-color:#43C6F2"/>
			<stop  offset="1" style="stop-color:#2D358E"/>
		</linearGradient>
		<circle style="fill:url(#SVGID_00000038403264172541110410000006777154089163961771_);" cx="28.7" cy="36.6" r="0.6"/>
		<g>
			
				<linearGradient id="SVGID_00000069366469182433678610000002388747441746923931_" gradientUnits="userSpaceOnUse" x1="32.8386" y1="42.4293" x2="32.8386" y2="37.5847">
				<stop  offset="0.2" style="stop-color:#43C6F2"/>
				<stop  offset="1" style="stop-color:#2D358E"/>
			</linearGradient>
			<path style="fill:url(#SVGID_00000069366469182433678610000002388747441746923931_);" d="M34.5,42.4h-3.6c-0.3,0-0.5-0.2-0.5-0.5
				c0-0.3,0.2-0.5,0.5-0.5h3.5v-0.8h-3.1c-0.5,0-0.9-0.4-0.9-0.9v-1c0-0.5,0.4-0.9,0.9-0.9h3.3c0.3,0,0.5,0.2,0.5,0.5
				s-0.2,0.5-0.5,0.5h-3.2v0.8h3.1c0.5,0,0.9,0.4,0.9,0.9v1.1C35.4,42,35,42.4,34.5,42.4z"/>
		</g>
		<g>
			
				<linearGradient id="SVGID_00000051373605289214963660000005691519267908022150_" gradientUnits="userSpaceOnUse" x1="38.8414" y1="42.5425" x2="38.8414" y2="37.7387">
				<stop  offset="0.2" style="stop-color:#43C6F2"/>
				<stop  offset="1" style="stop-color:#2D358E"/>
			</linearGradient>
			<path style="fill:url(#SVGID_00000051373605289214963660000005691519267908022150_);" d="M40.8,42.5h-3.6c-0.5,0-0.9-0.4-0.9-0.9
				v-2.5c0-0.7,0.6-1.3,1.3-1.3h2.2c0.8,0,1.5,0.7,1.5,1.5c0,0.8-0.7,1.5-1.5,1.5h-2.5v0.7h3.5c0.3,0,0.5,0.2,0.5,0.5
				C41.4,42.3,41.1,42.5,40.8,42.5z M37.4,39.7h2.5c0.2,0,0.4-0.2,0.4-0.4c0-0.2-0.2-0.4-0.4-0.4h-2.2c-0.1,0-0.2,0.1-0.2,0.2V39.7z
				"/>
		</g>
	</g>
</g>
</svg>
