<?xml version="1.0" encoding="utf-8"?>
<!-- Generator: Adobe Illustrator 27.1.1, SVG Export Plug-In . SVG Version: 6.00 Build 0)  -->
<svg version="1.1" id="Layer_1" xmlns="http://www.w3.org/2000/svg" xmlns:xlink="http://www.w3.org/1999/xlink" x="0px" y="0px"
	 viewBox="0 0 43.6 50" style="enable-background:new 0 0 43.6 50;" xml:space="preserve">
<style type="text/css">
	.st0{fill:#FFFFFF;}
	.st1{opacity:0.6;fill:#FFFFFF;}
	.st2{fill:#221F1F;}
	.st3{fill:url(#SVGID_1_);}
	.st4{fill:url(#SVGID_00000091711109458015681550000008255327485039116431_);}
	.st5{fill:url(#SVGID_00000173877421348575425780000000561956883740701056_);}
	.st6{fill:url(#SVGID_00000173130316109787289140000018198252252009559183_);}
	.st7{opacity:0.6;fill:url(#SVGID_00000005242664663666936050000008363867488285001652_);}
	.st8{opacity:0.6;fill:url(#SVGID_00000150086797004063152300000000231421907580407230_);}
	.st9{fill:#0958A7;}
	.st10{fill:url(#SVGID_00000135667958161849313860000005393883541661577406_);}
	.st11{fill:url(#SVGID_00000182511124657275062530000014939190506397236364_);}
	.st12{fill:url(#SVGID_00000159437408729533708320000001394528214937890952_);}
	.st13{fill:url(#SVGID_00000173125100555091046180000010655994243011350708_);}
	.st14{fill:url(#SVGID_00000070120924234370514600000008973260154883606665_);}
	.st15{fill:url(#SVGID_00000026859804363807644680000011646772689717397889_);}
	.st16{fill:url(#SVGID_00000041977998744772888040000010261755449850502810_);}
	.st17{fill:url(#SVGID_00000129190269940569994630000008057486933228946083_);}
	.st18{fill:url(#SVGID_00000057855844535750918540000008920085898282240641_);}
	.st19{fill:url(#SVGID_00000100364748615869157900000004331248213208740516_);}
	.st20{fill:url(#SVGID_00000041993684711884388030000005479454109581800089_);}
	.st21{fill:url(#SVGID_00000169549473092115115960000016181506825564998538_);}
	.st22{fill:url(#SVGID_00000138547535618064701240000000257676230144937881_);}
	.st23{fill:url(#SVGID_00000165937485065866600510000016540195928920528531_);}
	.st24{fill:url(#SVGID_00000104680041977447207550000000538675405791760063_);}
	.st25{fill:url(#SVGID_00000134247614521392996990000007995629795211110079_);}
	.st26{fill:url(#SVGID_00000130622647203839394780000001953335562015296919_);}
	.st27{opacity:0.6;fill:url(#SVGID_00000132050801601029782450000002651215565351478973_);}
	.st28{opacity:0.6;fill:url(#SVGID_00000029752710776298103400000002222265139065972389_);}
	.st29{fill:url(#SVGID_00000006673504199575591940000010319967923010284424_);}
	.st30{fill:url(#SVGID_00000133520213586057294530000000861146633537699995_);}
	.st31{fill:url(#SVGID_00000026126172918475838310000005859113991424547724_);}
	.st32{fill:url(#SVGID_00000145757133699001008510000011213655809164735402_);}
	.st33{fill:url(#SVGID_00000088854935307822713410000002438179203850275465_);}
	.st34{fill:url(#SVGID_00000011733671599888082430000013294869256764574142_);}
	.st35{fill:url(#SVGID_00000056401875987489845720000008297816418093217933_);}
	.st36{fill:url(#SVGID_00000081624594284331909140000005993661969996724374_);}
	.st37{fill:url(#SVGID_00000081637372017075878990000009216987572745534117_);}
	.st38{fill:url(#SVGID_00000059275289657521209880000004742398030615408287_);}
	.st39{fill:url(#SVGID_00000101086962456590496050000011511231925979013257_);}
	.st40{fill:url(#SVGID_00000127725064555622823990000014088976097398698651_);}
	.st41{fill:url(#SVGID_00000036218613578461899970000015657495671362067334_);}
	.st42{fill:url(#SVGID_00000095323092950381684040000001506749360791572609_);}
	.st43{fill:url(#SVGID_00000083800388651751293240000006102208677890073267_);}
	.st44{fill:url(#SVGID_00000034772963800226052010000010866066049365467776_);}
	.st45{fill:url(#SVGID_00000035516168977049748650000004505686740099841187_);}
	.st46{opacity:0.6;fill:url(#SVGID_00000079473243433879728190000016169867222128076679_);}
	.st47{opacity:0.6;fill:url(#SVGID_00000008116921145688983030000000135466480197603739_);}
	.st48{fill:url(#SVGID_00000084505832846956419750000012611115502518443937_);}
	.st49{fill:url(#SVGID_00000037674915826912752300000005942010027624423867_);}
	.st50{fill:url(#SVGID_00000130622681630889257590000013007959314413824947_);}
	.st51{fill:url(#SVGID_00000016781255932578317150000001155652614121621178_);}
	.st52{fill:url(#SVGID_00000020382143992282299320000000777618363095372443_);}
	.st53{opacity:0.6;fill:url(#SVGID_00000004515295049705303730000009857232705121124285_);}
	.st54{opacity:0.6;fill:url(#SVGID_00000134971605964070992190000007449298209025075114_);}
	.st55{fill:url(#SVGID_00000054962605481845282060000010621920440351157376_);}
	.st56{opacity:0.6;fill:url(#SVGID_00000146480547121801967710000000153152645157871238_);}
	.st57{opacity:0.6;fill:url(#SVGID_00000170964611318339786240000010022566423769056435_);}
	.st58{opacity:0.3;}
	.st59{fill:url(#SVGID_00000036245413450961871680000017237343682284371607_);}
	.st60{fill:url(#SVGID_00000132085884660680785350000004970421025553694605_);}
	.st61{fill:#2D358E;}
	.st62{fill:#43C6F2;}
</style>
<g>
	<g>
		<rect x="18.9" y="21.2" class="st0" width="1.2" height="1.2"/>
		<rect x="20.6" y="21.2" class="st0" width="1.2" height="1.2"/>
		<rect x="18.9" y="22.8" class="st0" width="1.2" height="1.2"/>
		<rect x="20.6" y="22.8" class="st0" width="1.2" height="1.2"/>
	</g>
	<g>
		<rect x="33.6" y="25.9" class="st0" width="1.8" height="1.8"/>
		<rect x="36.2" y="25.9" class="st0" width="1.8" height="1.8"/>
		<rect x="33.6" y="28.4" class="st0" width="1.8" height="1.8"/>
		<rect x="36.2" y="28.4" class="st0" width="1.8" height="1.8"/>
	</g>
	<path class="st0" d="M17.5,30.1v-7.4l-5.8,3v4.9c-0.1,2.1-1.6,2-1.6,2v0.8h9v-0.8C19.1,32.5,17.5,32.7,17.5,30.1z"/>
	<path class="st0" d="M10.1,9.5v0.8c0,0,1.5-0.1,1.6,2v11.5l5.8-3v-8.1c0-2.6,1.6-2.4,1.6-2.4V9.5H10.1z"/>
	<path class="st0" d="M42.7,29.6c0,0,0,2.5-4.7,2.5h-9l0-6.5l-5.8-3v7.9c-0.2,2.1-1.6,2-1.6,2v0.8h21.9v-3.7H42.7z"/>
	<path class="st0" d="M23.1,12.3v8.4l5.8,3l0-11c0-2.6,1.6-2.4,1.6-2.4V9.5h-9v0.8C21.5,10.3,22.9,10.2,23.1,12.3z"/>
	<path class="st1" d="M23.1,15.2c0.6,0.1,1.1,0.3,1.6,0.5c0.3,0.1,0.5,0.2,0.8,0.3c0.2,0.1,0.5,0.2,0.7,0.4c0.2,0.1,0.5,0.3,0.7,0.4
		c0.2,0.1,0.5,0.3,0.7,0.4c0.5,0.3,0.9,0.6,1.3,1l0,0L26,16.8L23.1,15.2L23.1,15.2z"/>
	<path class="st1" d="M17.6,15.3c-0.6,0.1-1.1,0.3-1.6,0.5c-0.3,0.1-0.5,0.2-0.8,0.3c-0.2,0.1-0.5,0.2-0.7,0.4
		c-0.2,0.1-0.5,0.3-0.7,0.4c-0.2,0.1-0.5,0.3-0.7,0.4c-0.5,0.3-0.9,0.6-1.3,1l0,0l2.9-1.5L17.6,15.3L17.6,15.3z"/>
	<g>
		
			<rect x="19.2" y="25.6" transform="matrix(-1.836970e-16 1 -1 -1.836970e-16 68.9879 25.3692)" class="st0" width="5.3" height="43.2"/>
		<path class="st0" d="M43.6,50H0v-5.6h43.6V50z M0.4,49.6h42.9v-4.9H0.4V49.6z"/>
	</g>
	<g>
		<path class="st0" d="M43.6,43.5H0v-9h43.6V43.5z M0.4,43.1h42.9v-8.3H0.4V43.1z"/>
	</g>
	<path class="st0" d="M43.4,11.9c0,3.3-1.3,6.3-3.5,8.4c-2.2,2.2-5.1,3.5-8.4,3.5h-2.3l-8.8-4.5L9.7,24.8v-5.3l0.5-0.3l10.3-5.4
		l10.3,5.4h0.6c2,0,3.9-0.8,5.2-2.1c1.3-1.3,2.1-3.2,2.1-5.2c0-4-3.3-7.3-7.3-7.3H7.6v25.5c0,2.6,1.6,2.4,1.6,2.4v0.8h-9v-0.8
		c0,0,1.5,0.1,1.6-2V2.8c-0.1-2.1-1.6-2-1.6-2V0h31.3C38.1,0,43.4,5.3,43.4,11.9z"/>
	<polyline class="st0" points="29.2,23.8 20.4,19.3 9.7,24.8 	"/>
	<g>
		<g>
			<path class="st0" d="M2.3,48.7H1.1v-0.1c0,0,0.2,0,0.2-0.2v-2.2c0-0.3-0.2-0.2-0.2-0.2v-0.1h1.1v0.1c0,0-0.2,0-0.2,0.3v1.2l0,0
				h0.8v-1.2c0-0.3-0.2-0.2-0.2-0.2v-0.1h1.1v0.1c0,0-0.2,0-0.2,0.3v2.1c0,0.3,0.2,0.3,0.2,0.3v0.1H2.7v-0.1c0,0,0.2,0,0.2-0.2v-0.8
				H2.1v0.8C2.1,48.6,2.3,48.6,2.3,48.7L2.3,48.7z"/>
			<path class="st0" d="M5.6,45.8c0.8,0,1.4,0.7,1.4,1.5c0,0.8-0.6,1.5-1.4,1.5c-0.8,0-1.4-0.7-1.4-1.5C4.1,46.4,4.8,45.8,5.6,45.8z
				 M5.6,46c-0.4,0-0.7,0.6-0.7,1.3c0,0.7,0.3,1.3,0.7,1.3c0.4,0,0.7-0.6,0.7-1.3C6.2,46.5,5.9,46,5.6,46z"/>
			<path class="st0" d="M7.3,48.6c0,0,0.2,0,0.2-0.2v-2.2c0-0.3-0.2-0.2-0.2-0.2v-0.1h1.1v0.1c0,0-0.2,0-0.2,0.3l0,2.4h0.5
				c0.6,0,0.6-0.3,0.6-0.3h0.1v0.5L7.3,48.6L7.3,48.6z"/>
			<path class="st0" d="M9.9,45.8c0,0,1,0,1.1,0c0.9,0,1.4,0.7,1.4,1.5c0,0.6-0.4,1.5-1.4,1.5H9.9v-0.1c0,0,0.2,0,0.2-0.2v-2.2
				C10.1,45.8,9.9,45.9,9.9,45.8L9.9,45.8z M11,45.9c-0.1,0-0.1,0.1-0.1,0.3v2.1c0,0.2,0,0.3,0.1,0.3c0.5,0,0.7-0.9,0.7-1.3
				C11.7,46.8,11.6,45.9,11,45.9z"/>
			<path class="st0" d="M12.8,45.8h1.1v0.1c0,0-0.2,0-0.2,0.3v2.1c0,0.3,0.2,0.3,0.2,0.3v0.1h-1.1v-0.1c0,0,0.2,0,0.2-0.2v-2.2
				C13,45.8,12.8,45.9,12.8,45.8L12.8,45.8z"/>
			<path class="st0" d="M16.3,47.3v-1.2c0-0.3-0.2-0.2-0.2-0.2v-0.1h0.7v0.1c0,0-0.2-0.1-0.2,0.3l0,2.6h-0.3L15,46.1
				c0,0,0-0.1-0.1-0.1c0,0,0,0.1,0,0.1v2.2c0,0.3,0.2,0.3,0.2,0.3v0.1h-0.7v-0.1c0,0,0.2,0,0.2-0.2v-2.2c0-0.3-0.2-0.2-0.2-0.2v-0.1
				h1.1L16.3,47.3z"/>
			<path class="st0" d="M19.8,47.8c0,0.4-0.3,1-1,0.9c-1.1,0-1.6-0.7-1.6-1.5c0-0.8,0.6-1.5,1.4-1.5c0.3,0,0.6,0.1,0.9,0.3
				c0.1,0.1,0.1-0.2,0.3-0.2v0.8l-0.1,0c-0.1-0.2-0.3-0.8-0.9-0.8c-0.6,0-0.8,0.6-0.8,1.3c0,0.7,0.2,1.4,0.8,1.4
				c0.4,0,0.7-0.2,0.7-0.5c0-0.4-0.2-0.4-0.2-0.4v-0.1h0.7v0.1C19.8,47.6,19.8,47.7,19.8,47.8z"/>
			<path class="st0" d="M22.4,45.8c0,0.1,0,0.8,0,0.8l-0.1,0c0,0-0.1-0.6-0.9-0.6c-0.5,0-0.7,0.6-0.4,0.7c0.5,0.2,1.8,0.2,1.7,1.3
				c0,0.4-0.4,0.7-1.2,0.7c-0.8,0-0.8-0.2-1,0c0,0-0.1,0-0.1,0v-0.8h0.1c0,0.3,0.5,0.6,1,0.6c0.8,0,0.8-0.7,0.2-0.9
				c-0.5-0.2-1.4-0.3-1.4-1.1c0,0,0-0.8,1.1-0.8c0.5,0,0.6,0.2,0.9,0.1C22.3,45.8,22.3,45.8,22.4,45.8z"/>
			<path class="st0" d="M25.2,48.6c0,0,0.2,0,0.2-0.2v-2.2c0-0.3-0.2-0.2-0.2-0.2v-0.1h1.1v0.1c0,0-0.2,0-0.2,0.3l0,2.4h0.5
				c0.6,0,0.6-0.3,0.6-0.3h0.1v0.5L25.2,48.6L25.2,48.6z"/>
			<path class="st0" d="M27.8,45.8h1.1v0.1c0,0-0.2,0-0.2,0.3v2.1c0,0.3,0.2,0.3,0.2,0.3v0.1h-1.1v-0.1c0,0,0.2,0,0.2-0.2v-2.2
				C28,45.8,27.8,45.9,27.8,45.8L27.8,45.8z"/>
			<path class="st0" d="M30.6,45.8L30.6,45.8c-0.1,0.1,0,0.3,0,0.4l0.4,1l0.5-1.2c0-0.1,0-0.1,0-0.1l0-0.1h1.2v0.1
				c0,0-0.2,0-0.2,0.3v2.1c0,0.3,0.2,0.3,0.2,0.3v0.1h-1.1v-0.1c0,0,0.2,0,0.2-0.2v-2.2L31,48.4l-0.1,0.2l-1-2.5v2.2
				c0,0.3,0.2,0.3,0.2,0.3v0.1h-0.7v-0.1c0,0,0.2,0,0.2-0.2v-2.2c0-0.3-0.2-0.2-0.2-0.2v-0.1H30.6z"/>
			<path class="st0" d="M33.2,45.8h1.1v0.1c0,0-0.2,0-0.2,0.3v2.1c0,0.3,0.2,0.3,0.2,0.3v0.1h-1.1v-0.1c0,0,0.2,0,0.2-0.2v-2.2
				C33.4,45.8,33.2,45.9,33.2,45.8L33.2,45.8z"/>
			<path class="st0" d="M34.9,45.8h2.2l0.1,0.6h-0.1c0,0-0.1-0.4-0.7-0.4c0,0-0.1,0.1-0.1,0.2v2.1c0,0.3,0.2,0.3,0.2,0.3v0.1h-1.1
				v-0.1c0,0,0.2,0,0.2-0.3v-2.2c0-0.1-0.1-0.2-0.1-0.2c-0.6,0-0.7,0.4-0.7,0.4h-0.1L34.9,45.8z"/>
			<path class="st0" d="M39.3,47.4L39.3,47.4c-0.1,0-0.2-0.3-0.5-0.3h-0.3v1.5h0.5c0.6,0,0.5-0.3,0.5-0.3h0.1l0.1,0.5h-2.1v-0.1
				c0,0,0.2,0,0.2-0.2v-2.2c0-0.3-0.2-0.2-0.2-0.2v-0.1h2.1l-0.1,0.5h-0.1c0,0,0.1-0.3-0.5-0.3h-0.5v1h0.3c0.3,0,0.4-0.3,0.4-0.3
				h0.1V47.4z"/>
			<path class="st0" d="M40.3,45.8c0,0,1,0,1.1,0c0.9,0,1.4,0.7,1.4,1.5c0,0.6-0.4,1.5-1.4,1.5h-1.1v-0.1c0,0,0.2,0,0.2-0.2v-2.2
				C40.4,45.8,40.3,45.9,40.3,45.8L40.3,45.8z M41.3,45.9c-0.1,0-0.1,0.1-0.1,0.3v2.1c0,0.2,0,0.3,0.1,0.3c0.5,0,0.7-0.9,0.7-1.3
				C42,46.8,42,45.9,41.3,45.9z"/>
		</g>
	</g>
	<g>
		<g>
			<path class="st0" d="M6.6,39.5H4c-0.4,0-0.6-0.3-0.6-0.6c0-0.4,0.3-0.6,0.6-0.6h2.6c0.3,0,0.6-0.2,0.6-0.6v-0.4
				c0-0.3-0.2-0.6-0.6-0.6H3.1c-0.4,0-0.6-0.3-0.6-0.6c0-0.4,0.3-0.6,0.6-0.6h3.6c1,0,1.8,0.8,1.8,1.8v0.4
				C8.5,38.7,7.7,39.5,6.6,39.5z"/>
		</g>
		<g>
			<path class="st0" d="M17.9,42.4h-2.5c-1,0-1.8-0.8-1.8-1.8v-0.9c0-1,0.8-1.8,1.8-1.8h2.5c1,0,1.8,0.8,1.8,1.8v0.9
				C19.7,41.6,18.9,42.4,17.9,42.4z M15.4,39.1c-0.3,0-0.6,0.3-0.6,0.6v0.9c0,0.3,0.3,0.6,0.6,0.6h2.5c0.3,0,0.6-0.3,0.6-0.6v-0.9
				c0-0.3-0.3-0.6-0.6-0.6H15.4z"/>
		</g>
		<g>
			<path class="st0" d="M26.4,42.4c-0.4,0-0.6-0.3-0.6-0.6v-2.4c0-0.3-0.2-0.5-0.5-0.5h-2.8c-0.3,0-0.5,0.2-0.5,0.5v2.4
				c0,0.4-0.3,0.6-0.6,0.6c-0.4,0-0.6-0.3-0.6-0.6v-2.4c0-1,0.8-1.8,1.8-1.8h2.8c1,0,1.8,0.8,1.8,1.8v2.4
				C27,42.2,26.7,42.4,26.4,42.4z"/>
		</g>
		<g>
			<path class="st0" d="M23.8,42c-0.3,0-0.5-0.2-0.5-0.5v-1.6c0-0.3,0.2-0.5,0.5-0.5c0.3,0,0.5,0.2,0.5,0.5v1.6
				C24.3,41.8,24.1,42,23.8,42z"/>
		</g>
		<g>
			<path class="st0" d="M12.3,40.3c-0.3,0-0.6-0.3-0.6-0.6V39c0-0.1-0.1-0.1-0.1-0.1h-2c-0.3,0-0.6-0.3-0.6-0.6
				c0-0.3,0.3-0.6,0.6-0.6h2c0.7,0,1.3,0.6,1.3,1.3v0.7C12.9,40,12.6,40.3,12.3,40.3z"/>
		</g>
		<g>
			<path class="st0" d="M2.7,42.3c-0.3,0-0.5-0.2-0.5-0.5v-2.1c0-0.3,0.2-0.5,0.5-0.5s0.5,0.2,0.5,0.5v2.1C3.3,42.1,3,42.3,2.7,42.3
				z"/>
		</g>
		<g>
			<path class="st0" d="M9.2,42.4c-0.3,0-0.5-0.2-0.5-0.5v-4.6c0-0.3,0.2-0.5,0.5-0.5s0.5,0.2,0.5,0.5v4.6
				C9.8,42.2,9.5,42.4,9.2,42.4z"/>
		</g>
		<g>
			<path class="st0" d="M28.7,42.4c-0.3,0-0.5-0.2-0.5-0.5v-3.5c0-0.3,0.2-0.5,0.5-0.5s0.5,0.2,0.5,0.5v3.5
				C29.2,42.2,29,42.4,28.7,42.4z"/>
		</g>
		<circle class="st0" cx="28.7" cy="36.6" r="0.6"/>
		<g>
			<path class="st0" d="M34.5,42.4h-3.6c-0.3,0-0.5-0.2-0.5-0.5c0-0.3,0.2-0.5,0.5-0.5h3.5v-0.8h-3.1c-0.5,0-0.9-0.4-0.9-0.9v-1
				c0-0.5,0.4-0.9,0.9-0.9h3.3c0.3,0,0.5,0.2,0.5,0.5s-0.2,0.5-0.5,0.5h-3.2v0.8h3.1c0.5,0,0.9,0.4,0.9,0.9v1.1
				C35.4,42,35,42.4,34.5,42.4z"/>
		</g>
		<g>
			<path class="st0" d="M40.8,42.5h-3.6c-0.5,0-0.9-0.4-0.9-0.9v-2.5c0-0.7,0.6-1.3,1.3-1.3h2.2c0.8,0,1.5,0.7,1.5,1.5
				c0,0.8-0.7,1.5-1.5,1.5h-2.5v0.7h3.5c0.3,0,0.5,0.2,0.5,0.5C41.4,42.3,41.1,42.5,40.8,42.5z M37.4,39.7h2.5
				c0.2,0,0.4-0.2,0.4-0.4c0-0.2-0.2-0.4-0.4-0.4h-2.2c-0.1,0-0.2,0.1-0.2,0.2V39.7z"/>
		</g>
	</g>
</g>
</svg>
