<?xml version="1.0" encoding="utf-8"?>
<!-- Generator: Adobe Illustrator 27.1.1, SVG Export Plug-In . SVG Version: 6.00 Build 0)  -->
<svg version="1.1" id="Layer_1" xmlns="http://www.w3.org/2000/svg" xmlns:xlink="http://www.w3.org/1999/xlink" x="0px" y="0px"
	 viewBox="0 0 214.3 50" style="enable-background:new 0 0 214.3 50;" xml:space="preserve">
<style type="text/css">
	.st0{fill:#FFFFFF;}
	.st1{opacity:0.6;fill:#FFFFFF;}
	.st2{fill:#221F1F;}
	.st3{fill:url(#SVGID_1_);}
	.st4{fill:url(#SVGID_00000130637666974727670630000013143473426365598611_);}
	.st5{fill:url(#SVGID_00000165954110735009661710000005471431485244142508_);}
	.st6{fill:url(#SVGID_00000096017386629108468060000006728672357592564409_);}
	.st7{opacity:0.6;fill:url(#SVGID_00000142869077013379556020000012364356584800570247_);}
	.st8{opacity:0.6;fill:url(#SVGID_00000032620438664655996100000001518687563433229462_);}
	.st9{fill:#0958A7;}
	.st10{fill:url(#SVGID_00000145767583071143222020000016151611233398176167_);}
	.st11{fill:url(#SVGID_00000088835890423337020360000015826920299972418965_);}
	.st12{fill:url(#SVGID_00000111887671922845375270000005565664765358729902_);}
	.st13{fill:url(#SVGID_00000114037172792684687630000012753088584934438027_);}
	.st14{fill:url(#SVGID_00000172440135268985055570000008145315154205151922_);}
	.st15{fill:url(#SVGID_00000039125506838245966670000017190926629491511453_);}
	.st16{fill:url(#SVGID_00000147913218308803369120000003030543869489099680_);}
	.st17{fill:url(#SVGID_00000008130168664154101080000010995813877448926642_);}
	.st18{fill:url(#SVGID_00000131352266072438609620000017197450063930690997_);}
	.st19{fill:url(#SVGID_00000074427860886773020080000009245819336231006344_);}
	.st20{fill:url(#SVGID_00000141448412984202152640000012962154546583769756_);}
	.st21{fill:url(#SVGID_00000074436049396709352790000002848318747534557580_);}
	.st22{fill:url(#SVGID_00000110471344455693629740000001969156541079681707_);}
	.st23{fill:url(#SVGID_00000152248248024605884070000005942298099134367106_);}
	.st24{fill:url(#SVGID_00000071545537432504206670000001365031100996231568_);}
	.st25{fill:url(#SVGID_00000119086328273630542340000001145149626424812421_);}
	.st26{fill:url(#SVGID_00000133523718559905112290000012058295183601844158_);}
	.st27{opacity:0.6;fill:url(#SVGID_00000052810971643666041910000012465495809062472368_);}
	.st28{opacity:0.6;fill:url(#SVGID_00000060732311203278459510000015719747600256608912_);}
	.st29{fill:url(#SVGID_00000132796674046996671690000006637176797651929021_);}
	.st30{fill:url(#SVGID_00000078032398899419056860000011247812183542652842_);}
	.st31{fill:url(#SVGID_00000103960973412757443860000014718336479353952899_);}
	.st32{fill:url(#SVGID_00000049191569803285810650000006579681055568269981_);}
	.st33{fill:url(#SVGID_00000075140073316239700980000007078333549521431225_);}
	.st34{fill:url(#SVGID_00000122689483369754150710000003933579159411026349_);}
	.st35{fill:url(#SVGID_00000079455381172425538500000000412359114424545200_);}
	.st36{fill:url(#SVGID_00000012463557049145490550000003906486557122785458_);}
	.st37{fill:url(#SVGID_00000139996639005384382470000007535579725903823006_);}
	.st38{fill:url(#SVGID_00000127764087964531623560000014077703247548922777_);}
	.st39{fill:url(#SVGID_00000116207339642834401410000015634143033033356730_);}
	.st40{fill:url(#SVGID_00000029735405477808921500000015018329731249867392_);}
	.st41{fill:url(#SVGID_00000039831452468751804470000018220973207900292506_);}
	.st42{fill:url(#SVGID_00000056396884826062635380000011692638357902220444_);}
	.st43{fill:url(#SVGID_00000039846818016697516770000001689981850196146328_);}
	.st44{fill:url(#SVGID_00000107579997892883178990000002358684266143125902_);}
	.st45{fill:url(#SVGID_00000121260480895170291470000000393409489151178420_);}
	.st46{opacity:0.6;fill:url(#SVGID_00000060719314052958718540000005515840199985151112_);}
	.st47{opacity:0.6;fill:url(#SVGID_00000047754266285955032310000011368970116919493534_);}
	.st48{fill:url(#SVGID_00000096040776456447711310000003857735419584167325_);}
	.st49{fill:url(#SVGID_00000108289028657525443730000006065276110721762983_);}
	.st50{fill:url(#SVGID_00000142865608489346575450000001240440970221227653_);}
	.st51{fill:url(#SVGID_00000127745308612491749360000010712345754586115515_);}
	.st52{fill:url(#SVGID_00000036966262347590924450000002157383504295105721_);}
	.st53{opacity:0.6;fill:url(#SVGID_00000052825454204840480230000000428819239860503704_);}
	.st54{opacity:0.6;fill:url(#SVGID_00000039111018364706159260000007114757223943188920_);}
	.st55{fill:url(#SVGID_00000105403129044473041770000002419786993574630579_);}
	.st56{opacity:0.6;fill:url(#SVGID_00000005978955352838685700000013137171799502121114_);}
	.st57{opacity:0.6;fill:url(#SVGID_00000001626184835667474640000003923860689572551607_);}
	.st58{opacity:0.3;}
	.st59{fill:url(#SVGID_00000039134982564352100070000004229096345019657375_);}
	.st60{fill:url(#SVGID_00000091728909476492697140000001756584314893034422_);}
	.st61{fill:#2D358E;}
	.st62{fill:#43C6F2;}
</style>
<g>
	<g>
		<rect x="27.8" y="31.4" class="st2" width="1.7" height="1.7"/>
		<rect x="30.3" y="31.4" class="st2" width="1.7" height="1.7"/>
		<rect x="27.8" y="33.9" class="st2" width="1.7" height="1.7"/>
		<rect x="30.3" y="33.9" class="st2" width="1.7" height="1.7"/>
	</g>
	<g>
		<rect x="49.6" y="38.4" class="st2" width="2.7" height="2.7"/>
		<rect x="53.5" y="38.4" class="st2" width="2.7" height="2.7"/>
		<rect x="49.6" y="42.2" class="st2" width="2.7" height="2.7"/>
		<rect x="53.5" y="42.2" class="st2" width="2.7" height="2.7"/>
	</g>
	
		<linearGradient id="SVGID_1_" gradientUnits="userSpaceOnUse" x1="-6784.4692" y1="1727.0802" x2="-6784.4692" y2="1538.8527" gradientTransform="matrix(0.1914 0 0 0.1914 1319.8419 -280.9029)">
		<stop  offset="0" style="stop-color:#05509F"/>
		<stop  offset="1" style="stop-color:#26B3E8"/>
	</linearGradient>
	<path class="st3" d="M25.8,44.6v-11L17.1,38v7.2c-0.2,3.2-2.4,3-2.4,3v1.2h13.4v-1.2C28.1,48.3,25.8,48.5,25.8,44.6z"/>
	
		<linearGradient id="SVGID_00000012441964347738071760000009557641229468227732_" gradientUnits="userSpaceOnUse" x1="-6784.4692" y1="1727.0802" x2="-6784.4692" y2="1538.8527" gradientTransform="matrix(0.1914 0 0 0.1914 1319.8419 -280.9029)">
		<stop  offset="0" style="stop-color:#05509F"/>
		<stop  offset="1" style="stop-color:#26B3E8"/>
	</linearGradient>
	<path style="fill:url(#SVGID_00000012441964347738071760000009557641229468227732_);" d="M14.8,14.1v1.2c0,0,2.2-0.2,2.4,3v17
		l8.6-4.4v-12c0-3.8,2.4-3.6,2.4-3.6v-1.2H14.8z"/>
	
		<linearGradient id="SVGID_00000101811628817559261920000017079211151345815183_" gradientUnits="userSpaceOnUse" x1="-6646.1504" y1="1727.0802" x2="-6646.1504" y2="1538.8527" gradientTransform="matrix(0.1914 0 0 0.1914 1319.8419 -280.9029)">
		<stop  offset="0" style="stop-color:#05509F"/>
		<stop  offset="1" style="stop-color:#26B3E8"/>
	</linearGradient>
	<path style="fill:url(#SVGID_00000101811628817559261920000017079211151345815183_);" d="M63.1,43.9c0,0,0.1,3.7-7,3.7H42.7l0-9.6
		L34,33.5v11.8c-0.3,3.2-2.4,3-2.4,3v1.2h32.5v-5.5H63.1z"/>
	
		<linearGradient id="SVGID_00000031203616651696910570000005168181296168123779_" gradientUnits="userSpaceOnUse" x1="-6696.0981" y1="1727.0802" x2="-6696.0981" y2="1538.8527" gradientTransform="matrix(0.1914 0 0 0.1914 1319.8419 -280.9029)">
		<stop  offset="0" style="stop-color:#05509F"/>
		<stop  offset="1" style="stop-color:#26B3E8"/>
	</linearGradient>
	<path style="fill:url(#SVGID_00000031203616651696910570000005168181296168123779_);" d="M34,18.2v12.5l8.7,4.4l0-16.3
		c0-3.8,2.4-3.6,2.4-3.6v-1.2H31.7v1.2C31.7,15.2,33.8,15.1,34,18.2z"/>
	
		<radialGradient id="SVGID_00000000188790502313740880000012560423152498309262_" cx="-6695.0337" cy="1598.73" r="27.666" gradientTransform="matrix(0.1684 9.083909e-02 -9.800865e-03 1.817379e-02 1181.9738 604.172)" gradientUnits="userSpaceOnUse">
		<stop  offset="0" style="stop-color:#707274"/>
		<stop  offset="1" style="stop-color:#FFFFFF;stop-opacity:0"/>
	</radialGradient>
	<path style="opacity:0.6;fill:url(#SVGID_00000000188790502313740880000012560423152498309262_);" d="M34,22.6
		c0.8,0.2,1.6,0.4,2.4,0.8c0.4,0.1,0.7,0.3,1.1,0.5c0.4,0.2,0.7,0.4,1.1,0.5c0.4,0.2,0.7,0.4,1.1,0.6c0.3,0.2,0.7,0.4,1,0.7
		c0.7,0.5,1.3,0.9,2,1.5l0,0.1L38.3,25L34,22.6L34,22.6z"/>
	
		<radialGradient id="SVGID_00000078734470048800309610000013712819046916220054_" cx="5541.936" cy="1599.3463" r="27.666" gradientTransform="matrix(-0.1684 9.083909e-02 9.800865e-03 1.817379e-02 939.0897 -507.3165)" gradientUnits="userSpaceOnUse">
		<stop  offset="0" style="stop-color:#707274"/>
		<stop  offset="1" style="stop-color:#FFFFFF;stop-opacity:0"/>
	</radialGradient>
	<path style="opacity:0.6;fill:url(#SVGID_00000078734470048800309610000013712819046916220054_);" d="M25.8,22.8
		c-0.8,0.2-1.6,0.4-2.4,0.8c-0.4,0.1-0.7,0.3-1.1,0.5c-0.4,0.2-0.7,0.4-1.1,0.5c-0.4,0.2-0.7,0.4-1.1,0.6c-0.3,0.2-0.7,0.4-1,0.7
		c-0.7,0.5-1.3,0.9-2,1.5l0,0.1l4.3-2.2L25.8,22.8L25.8,22.8z"/>
	<g>
		
			<rect x="135.4" y="-28.9" transform="matrix(-1.836970e-16 1 -1 -1.836970e-16 184.8574 -103.0616)" class="st9" width="17.1" height="139.5"/>
		<path class="st9" d="M214.3,50H73.6V31.8h140.7V50z M74.8,48.9h138.4V32.9H74.8V48.9z"/>
	</g>
	<g>
		
			<linearGradient id="SVGID_00000058579117643089584730000012839171473385715126_" gradientUnits="userSpaceOnUse" x1="-6511.9834" y1="1543.8417" x2="-5776.708" y2="1543.8417" gradientTransform="matrix(0.1914 0 0 0.1914 1319.8419 -280.9029)">
			<stop  offset="0.2" style="stop-color:#43C6F2"/>
			<stop  offset="1" style="stop-color:#2D358E"/>
		</linearGradient>
		<path style="fill:url(#SVGID_00000058579117643089584730000012839171473385715126_);" d="M214.3,29.1H73.6V0h140.7V29.1z
			 M74.8,27.9h138.3V1.2H74.8V27.9z"/>
	</g>
	
		<linearGradient id="SVGID_00000181791559652025781150000002717432183887103403_" gradientUnits="userSpaceOnUse" x1="-6896.5781" y1="1596.9346" x2="-6561.1372" y2="1596.9346" gradientTransform="matrix(0.1914 0 0 0.1914 1319.8419 -280.9029)">
		<stop  offset="0" style="stop-color:#26B3E8"/>
		<stop  offset="1" style="stop-color:#05509F"/>
	</linearGradient>
	<path style="fill:url(#SVGID_00000181791559652025781150000002717432183887103403_);" d="M64.2,17.7c0,4.9-2,9.3-5.2,12.5
		c-3.2,3.2-7.6,5.2-12.5,5.2h-3.4L30,28.7l-16,8.2v-7.9l0.8-0.4l15.2-8l15.2,8h0.9c3,0,5.7-1.2,7.7-3.2c2-2,3.2-4.7,3.2-7.7
		c0-6-4.9-10.9-10.9-10.9H11v37.8c0,3.8,2.4,3.6,2.4,3.6v1.2H0v-1.2c0,0,2.2,0.2,2.4-3V4.2C2.2,1,0,1.2,0,1.2V0h46.5
		C56.3,0,64.2,7.9,64.2,17.7z"/>
	<g>
		<path d="M43.1,35.4c0,0-13.3-6.7-13-6.6c0,0-16,8.1-16,8.1l0-0.1c1.3-0.8,2.5-1.6,3.8-2.4c3.6-2.1,8.1-4.6,11.8-6.4
			c0,0,0.4-0.2,0.4-0.2l0.3,0.2C34.6,30.3,39.3,32.6,43.1,35.4L43.1,35.4z"/>
	</g>
	<g>
		<g>
			<path class="st0" d="M80.9,45.8h-3.6v-0.3c0,0,0.6,0,0.6-0.8v-7.2c-0.1-0.8-0.6-0.8-0.6-0.8v-0.3h3.6v0.3c0,0-0.6,0-0.6,1v3.9
				l0,0h2.6v-4c-0.1-0.8-0.6-0.8-0.6-0.8v-0.3h3.6v0.3c0,0-0.6,0-0.6,1v6.9c0,1,0.6,1,0.6,1v0.3h-3.6v-0.3c0,0,0.6,0,0.6-0.8V42
				h-2.7v2.5c0,1,0.6,1,0.6,1V45.8z"/>
			<path class="st0" d="M91.5,36.3c2.5,0,4.5,2.1,4.5,4.7c0,2.6-2,4.7-4.5,4.7C89,45.8,87,43.7,87,41C87,38.4,89,36.3,91.5,36.3z
				 M91.5,37c-1.2,0-2.2,1.8-2.2,4.1c0,2.2,1,4.1,2.2,4.1c1.2,0,2.2-1.8,2.2-4.1C93.7,38.8,92.7,37,91.5,37z"/>
			<path class="st0" d="M97.3,45.5c0,0,0.6,0,0.6-0.8v-7.2c-0.1-0.8-0.6-0.8-0.6-0.8v-0.3h3.6v0.3c0,0-0.6-0.1-0.6,1l0,7.7h1.7
				c1.9,0,1.9-1,1.9-1h0.3v1.5h-6.8V45.5z"/>
			<path class="st0" d="M105.6,36.3c0,0,3.3,0,3.6,0c2.8,0,4.4,2.3,4.4,4.7c0,2.1-1.3,4.7-4.4,4.7h-3.6v-0.3c0,0,0.6,0,0.6-0.8v-7.2
				c-0.1-0.8-0.6-0.8-0.6-0.8V36.3z M109,36.7c-0.3,0-0.5,0.3-0.5,0.9v6.9c0,0.5,0.1,0.9,0.4,0.9c1.5,0,2.3-3,2.3-4.4
				C111.2,39.8,111.1,36.7,109,36.7z"/>
			<path class="st0" d="M115,36.3h3.6v0.3c0,0-0.6,0-0.6,1v6.9c0,1,0.6,1,0.6,1v0.3H115v-0.3c0,0,0.6,0,0.6-0.8v-7.2
				c-0.1-0.8-0.6-0.8-0.6-0.8V36.3z"/>
			<path class="st0" d="M126.1,41.3v-3.8c-0.1-0.8-0.6-0.8-0.6-0.8v-0.3h2.2v0.3c0,0-0.6-0.2-0.6,0.8l0,8.3h-0.9l-4.2-8.4
				c-0.1-0.1-0.1-0.2-0.2-0.3c0,0.1,0,0.2,0,0.3v7.2c0,1,0.6,0.8,0.6,0.8v0.3h-2.2v-0.3c0,0,0.6,0,0.6-0.8v-7.2
				c-0.1-0.8-0.6-0.8-0.6-0.8v-0.3h3.4L126.1,41.3z"/>
			<path class="st0" d="M137.4,42.8c0,1.2-0.9,3.1-3.4,3c-3.5-0.1-5.1-2.2-5.1-4.8c0-2.6,2.1-4.7,4.6-4.7c1.1,0,2,0.3,2.8,0.9
				c0.3,0.2,0.5-0.5,0.8-0.5v2.5l-0.4,0.1c-0.4-0.7-0.8-2.4-2.9-2.4c-1.9,0-2.7,1.8-2.7,4.1c0,2.2,0.8,4.4,2.7,4.4
				c1.1,0,2.1-0.7,2.1-1.7c0-1.4-0.6-1.3-0.6-1.3v-0.3h2.2v0.3C137.5,42.4,137.4,42.5,137.4,42.8z"/>
			<path class="st0" d="M145.9,36.4c0,0.4,0,2.4,0,2.4l-0.3,0c0,0-0.3-1.9-3-1.9c-1.6,0-2.2,2-1.1,2.4c1.5,0.6,5.6,0.8,5.5,4.1
				c-0.1,1.4-1.3,2.4-3.9,2.4c-2.5,0-2.7-0.7-3.1-0.1c0,0-0.3,0-0.4,0v-2.5h0.4c0,1.1,1.6,1.8,3.1,1.8c2.6,0,2.5-2.2,0.6-2.8
				c-1.7-0.5-4.4-1-4.4-3.5c0,0,0-2.5,3.6-2.5c1.7,0,2,0.8,2.8,0.3C145.6,36.5,145.6,36.4,145.9,36.4z"/>
			<path class="st0" d="M154.8,45.5c0,0,0.6,0,0.6-0.8v-7.2c-0.1-0.8-0.6-0.8-0.6-0.8v-0.3h3.6v0.3c0,0-0.6-0.1-0.6,1l0,7.7h1.7
				c1.9,0,1.9-1,1.9-1h0.3v1.5h-6.8V45.5z"/>
			<path class="st0" d="M163.3,36.3h3.6v0.3c0,0-0.6,0-0.6,1v6.9c0,1,0.6,1,0.6,1v0.3h-3.6v-0.3c0,0,0.6,0,0.6-0.8v-7.2
				c-0.1-0.8-0.6-0.8-0.6-0.8V36.3z"/>
			<path class="st0" d="M172.4,36.3l0,0.3c-0.2,0.2,0,0.6,0.1,1l1.3,3.3l1.5-4c0.1-0.2,0-0.4,0-0.4l0.1-0.3h3.9v0.3c0,0-0.6,0-0.6,1
				v6.9c0,1,0.6,1,0.6,1v0.3h-3.6v-0.3c0,0,0.6,0,0.6-0.8v-7.1l-2.7,7.2l-0.3,0.8l-3.1-8v7.1c0,1,0.6,0.8,0.6,0.8v0.3h-2.2v-0.3
				c0,0,0.6,0,0.6-0.8v-7.2c-0.1-0.8-0.6-0.8-0.6-0.8v-0.3H172.4z"/>
			<path class="st0" d="M180.9,36.3h3.6v0.3c0,0-0.6,0-0.6,1v6.9c0,1,0.6,1,0.6,1v0.3h-3.6v-0.3c0,0,0.6,0,0.6-0.8v-7.2
				c-0.1-0.8-0.6-0.8-0.6-0.8V36.3z"/>
			<path class="st0" d="M186.1,36.3h7l0.4,1.9h-0.3c0,0-0.3-1.3-2.2-1.3c0,0-0.2,0.4-0.2,0.7v6.9c0,1,0.6,1,0.6,1v0.3h-3.6v-0.3
				c0,0,0.6,0,0.6-0.8v-7.2c0-0.2-0.2-0.5-0.2-0.5c-1.9,0-2.2,1.3-2.2,1.3h-0.3L186.1,36.3z"/>
			<path class="st0" d="M200.5,41.5h-0.3c0,0-0.2-1-1.2-1h-0.9v4.8h1.7c1.9,0,1.5-1,1.5-1h0.3l0.3,1.5h-6.8v-0.3c0,0,0.6,0,0.6-0.8
				v-7.2c-0.1-0.8-0.6-0.8-0.6-0.8v-0.3h6.8l-0.3,1.5h-0.3c0,0,0.3-1-1.5-1h-1.7v3.3h0.9c1,0,1.2-1,1.2-1h0.3V41.5z"/>
			<path class="st0" d="M203.5,36.3c0,0,3.3,0,3.6,0c2.8,0,4.4,2.3,4.4,4.7c0,2.1-1.3,4.7-4.4,4.7h-3.6v-0.3c0,0,0.6,0,0.6-0.8v-7.2
				c-0.1-0.8-0.6-0.8-0.6-0.8V36.3z M206.9,36.7c-0.3,0-0.5,0.3-0.5,0.9v6.9c0,0.5,0.1,0.9,0.4,0.9c1.5,0,2.3-3,2.3-4.4
				C209.1,39.8,209,36.7,206.9,36.7z"/>
		</g>
	</g>
	<g>
		<g>
			
				<linearGradient id="SVGID_00000032648198798518924010000003277707650686811039_" gradientUnits="userSpaceOnUse" x1="-6420.0532" y1="1552.2448" x2="-6420.0532" y2="1484.3245" gradientTransform="matrix(0.1914 0 0 0.1914 1319.8419 -280.9029)">
				<stop  offset="0.2" style="stop-color:#43C6F2"/>
				<stop  offset="1" style="stop-color:#2D358E"/>
			</linearGradient>
			<path style="fill:url(#SVGID_00000032648198798518924010000003277707650686811039_);" d="M95,16.2h-8.5c-1.1,0-2.1-0.9-2.1-2.1
				s0.9-2.1,2.1-2.1H95c1,0,1.8-0.8,1.8-1.8V9.1c0-1-0.8-1.8-1.8-1.8H83.5c-1.1,0-2.1-0.9-2.1-2.1c0-1.1,0.9-2.1,2.1-2.1H95
				c3.3,0,5.9,2.7,5.9,5.9v1.1C101,13.5,98.3,16.2,95,16.2z"/>
		</g>
		<g>
			
				<linearGradient id="SVGID_00000139980106013647285420000003463533256922570899_" gradientUnits="userSpaceOnUse" x1="-6231.8989" y1="1601.6255" x2="-6231.8989" y2="1523.4657" gradientTransform="matrix(0.1914 0 0 0.1914 1319.8419 -280.9029)">
				<stop  offset="0.2" style="stop-color:#43C6F2"/>
				<stop  offset="1" style="stop-color:#2D358E"/>
			</linearGradient>
			<path style="fill:url(#SVGID_00000139980106013647285420000003463533256922570899_);" d="M131.3,25.6h-8.2c-3.3,0-6-2.7-6-6v-3
				c0-3.3,2.7-6,6-6h8.2c3.3,0,6,2.7,6,6v3C137.2,22.9,134.6,25.6,131.3,25.6z M123.1,14.8c-1,0-1.8,0.8-1.8,1.8v3
				c0,1,0.8,1.8,1.8,1.8h8.2c1,0,1.8-0.8,1.8-1.8v-3c0-1-0.8-1.8-1.8-1.8H123.1z"/>
		</g>
		<g>
			
				<linearGradient id="SVGID_00000125603012323595034470000018197285268714796678_" gradientUnits="userSpaceOnUse" x1="-6110.6636" y1="1601.6255" x2="-6110.6636" y2="1520.9076" gradientTransform="matrix(0.1914 0 0 0.1914 1319.8419 -280.9029)">
				<stop  offset="0.2" style="stop-color:#43C6F2"/>
				<stop  offset="1" style="stop-color:#2D358E"/>
			</linearGradient>
			<path style="fill:url(#SVGID_00000125603012323595034470000018197285268714796678_);" d="M158.6,25.6c-1.1,0-2.1-0.9-2.1-2.1
				v-7.7c0-0.9-0.7-1.6-1.6-1.6h-9.2c-0.9,0-1.6,0.7-1.6,1.6v7.7c0,1.1-0.9,2.1-2.1,2.1c-1.1,0-2.1-0.9-2.1-2.1v-7.7
				c0-3.1,2.6-5.7,5.7-5.7h9.2c3.1,0,5.7,2.6,5.7,5.7v7.7C160.7,24.7,159.8,25.6,158.6,25.6z"/>
		</g>
		<g>
			
				<linearGradient id="SVGID_00000132779967483454946210000005114562607454202243_" gradientUnits="userSpaceOnUse" x1="-6110.6636" y1="1594.2524" x2="-6110.6636" y2="1549.5188" gradientTransform="matrix(0.1914 0 0 0.1914 1319.8419 -280.9029)">
				<stop  offset="0.2" style="stop-color:#43C6F2"/>
				<stop  offset="1" style="stop-color:#2D358E"/>
			</linearGradient>
			<path style="fill:url(#SVGID_00000132779967483454946210000005114562607454202243_);" d="M150.4,24.2c-1,0-1.7-0.8-1.7-1.7v-5.1
				c0-1,0.8-1.7,1.7-1.7c1,0,1.7,0.8,1.7,1.7v5.1C152.1,23.4,151.4,24.2,150.4,24.2z"/>
		</g>
		<g>
			
				<linearGradient id="SVGID_00000016036773535456072690000011490286034475509923_" gradientUnits="userSpaceOnUse" x1="-6327.1006" y1="1565.5809" x2="-6327.1006" y2="1521.5354" gradientTransform="matrix(0.1914 0 0 0.1914 1319.8419 -280.9029)">
				<stop  offset="0.2" style="stop-color:#43C6F2"/>
				<stop  offset="1" style="stop-color:#2D358E"/>
			</linearGradient>
			<path style="fill:url(#SVGID_00000016036773535456072690000011490286034475509923_);" d="M113.4,18.7c-1,0-1.9-0.8-1.9-1.9v-2.4
				c0-0.3-0.2-0.5-0.5-0.5h-6.4c-1,0-1.9-0.8-1.9-1.9s0.8-1.9,1.9-1.9h6.4c2.3,0,4.2,1.9,4.2,4.2v2.4
				C115.2,17.9,114.4,18.7,113.4,18.7z"/>
		</g>
		<g>
			
				<linearGradient id="SVGID_00000000929531511182472900000013144214343723720101_" gradientUnits="userSpaceOnUse" x1="-6465.6504" y1="1599.9178" x2="-6465.6504" y2="1545.7994" gradientTransform="matrix(0.1914 0 0 0.1914 1319.8419 -280.9029)">
				<stop  offset="0.2" style="stop-color:#43C6F2"/>
				<stop  offset="1" style="stop-color:#2D358E"/>
			</linearGradient>
			<path style="fill:url(#SVGID_00000000929531511182472900000013144214343723720101_);" d="M82.5,25.3c-1,0-1.7-0.8-1.7-1.7v-6.9
				c0-1,0.8-1.7,1.7-1.7c1,0,1.7,0.8,1.7,1.7v6.9C84.2,24.5,83.4,25.3,82.5,25.3z"/>
		</g>
		<g>
			
				<linearGradient id="SVGID_00000034051451798953805250000006073102061720428468_" gradientUnits="userSpaceOnUse" x1="-6356.1396" y1="1600.9017" x2="-6356.1396" y2="1505.8649" gradientTransform="matrix(0.1914 0 0 0.1914 1319.8419 -280.9029)">
				<stop  offset="0.2" style="stop-color:#43C6F2"/>
				<stop  offset="1" style="stop-color:#2D358E"/>
			</linearGradient>
			<path style="fill:url(#SVGID_00000034051451798953805250000006073102061720428468_);" d="M103.4,25.5c-1,0-1.7-0.8-1.7-1.7V9
				c0-1,0.8-1.7,1.7-1.7c1,0,1.7,0.8,1.7,1.7v14.7C105.2,24.7,104.4,25.5,103.4,25.5z"/>
		</g>
		<g>
			
				<linearGradient id="SVGID_00000081646776898232368130000011683442205231634056_" gradientUnits="userSpaceOnUse" x1="-6028.3252" y1="1601.7622" x2="-6028.3252" y2="1524.8401" gradientTransform="matrix(0.1914 0 0 0.1914 1319.8419 -280.9029)">
				<stop  offset="0.2" style="stop-color:#43C6F2"/>
				<stop  offset="1" style="stop-color:#2D358E"/>
			</linearGradient>
			<path style="fill:url(#SVGID_00000081646776898232368130000011683442205231634056_);" d="M166.2,25.6c-1,0-1.7-0.8-1.7-1.7V12.7
				c0-1,0.8-1.7,1.7-1.7c1,0,1.7,0.8,1.7,1.7v11.2C167.9,24.9,167.1,25.6,166.2,25.6z"/>
		</g>
		
			<linearGradient id="SVGID_00000158003409923564067780000011901971273484043701_" gradientUnits="userSpaceOnUse" x1="-6028.6074" y1="1513.3716" x2="-6028.6074" y2="1492.9851" gradientTransform="matrix(0.1914 0 0 0.1914 1319.8419 -280.9029)">
			<stop  offset="0.2" style="stop-color:#43C6F2"/>
			<stop  offset="1" style="stop-color:#2D358E"/>
		</linearGradient>
		<circle style="fill:url(#SVGID_00000158003409923564067780000011901971273484043701_);" cx="166.1" cy="6.8" r="2"/>
		<g>
			
				<linearGradient id="SVGID_00000092416283972177646560000013037640695760977802_" gradientUnits="userSpaceOnUse" x1="-5958.4268" y1="1601.4509" x2="-5958.4268" y2="1519.7859" gradientTransform="matrix(0.1914 0 0 0.1914 1319.8419 -280.9029)">
				<stop  offset="0.2" style="stop-color:#43C6F2"/>
				<stop  offset="1" style="stop-color:#2D358E"/>
			</linearGradient>
			<path style="fill:url(#SVGID_00000092416283972177646560000013037640695760977802_);" d="M184.8,25.6h-11.7c-1,0-1.7-0.8-1.7-1.7
				c0-1,0.8-1.7,1.7-1.7h11.3v-2.7h-10.1c-1.7,0-3.1-1.4-3.1-3.1V13c0-1.7,1.4-3.1,3.1-3.1h10.6c1,0,1.7,0.8,1.7,1.7
				s-0.8,1.7-1.7,1.7h-10.2v2.4h10.1c1.7,0,3.1,1.4,3.1,3.1v3.6C187.8,24.2,186.5,25.6,184.8,25.6z"/>
		</g>
		<g>
			
				<linearGradient id="SVGID_00000070809283682143202570000003644666173428584067_" gradientUnits="userSpaceOnUse" x1="-5857.2393" y1="1603.3593" x2="-5857.2393" y2="1522.381" gradientTransform="matrix(0.1914 0 0 0.1914 1319.8419 -280.9029)">
				<stop  offset="0.2" style="stop-color:#43C6F2"/>
				<stop  offset="1" style="stop-color:#2D358E"/>
			</linearGradient>
			<path style="fill:url(#SVGID_00000070809283682143202570000003644666173428584067_);" d="M205.4,25.9h-11.6
				c-1.7,0-3.1-1.4-3.1-3.1v-8.2c0-2.4,1.9-4.3,4.3-4.3h7.2c2.7,0,4.9,2.2,4.9,4.9s-2.2,4.9-4.9,4.9h-8v2.3h11.2
				c1,0,1.7,0.8,1.7,1.7C207.1,25.2,206.3,25.9,205.4,25.9z M194.2,16.7h8c0.8,0,1.4-0.6,1.4-1.4c0-0.8-0.6-1.4-1.4-1.4H195
				c-0.4,0-0.8,0.4-0.8,0.8V16.7z"/>
		</g>
	</g>
</g>
</svg>
