<?xml version="1.0" encoding="utf-8"?>
<!-- Generator: Adobe Illustrator 27.1.1, SVG Export Plug-In . SVG Version: 6.00 Build 0)  -->
<svg version="1.1" id="Layer_1" xmlns="http://www.w3.org/2000/svg" xmlns:xlink="http://www.w3.org/1999/xlink" x="0px" y="0px"
	 viewBox="0 0 214.3 50" style="enable-background:new 0 0 214.3 50;" xml:space="preserve">
<style type="text/css">
	.st0{fill:#FFFFFF;}
	.st1{opacity:0.6;fill:#FFFFFF;}
	.st2{fill:#221F1F;}
	.st3{fill:url(#SVGID_1_);}
	.st4{fill:url(#SVGID_00000151517135873298643380000001755322825187159205_);}
	.st5{fill:url(#SVGID_00000078024644410435321400000006349436540408551055_);}
	.st6{fill:url(#SVGID_00000098924544806718440540000007986147456753350041_);}
	.st7{opacity:0.6;fill:url(#SVGID_00000021836041919298715080000011049048212218521486_);}
	.st8{opacity:0.6;fill:url(#SVGID_00000068667858135171448580000009956175012619350171_);}
	.st9{fill:#0958A7;}
	.st10{fill:url(#SVGID_00000052821110636974277940000001904013462749071262_);}
	.st11{fill:url(#SVGID_00000153680761256750562850000003986590799972935569_);}
	.st12{fill:url(#SVGID_00000155126459109490229690000006720911998518323593_);}
	.st13{fill:url(#SVGID_00000127007462140083619250000003961174832463574414_);}
	.st14{fill:url(#SVGID_00000134228176896407491600000005450149423039154061_);}
	.st15{fill:url(#SVGID_00000033363193301586665580000004553160525238754700_);}
	.st16{fill:url(#SVGID_00000044149207781642163990000006200978527443101603_);}
	.st17{fill:url(#SVGID_00000047758589529938969660000011617543964709759905_);}
	.st18{fill:url(#SVGID_00000026149675939171514840000009501761239297061250_);}
	.st19{fill:url(#SVGID_00000124134875815555862590000011860960806930854019_);}
	.st20{fill:url(#SVGID_00000049182430552083481540000003075834786372034705_);}
	.st21{fill:url(#SVGID_00000078024663173740380690000011187038225240984747_);}
	.st22{fill:url(#SVGID_00000152984246016064530640000003969664527318695592_);}
	.st23{fill:url(#SVGID_00000171698364917417981680000008364167225815286404_);}
	.st24{fill:url(#SVGID_00000148633291881815401190000006345989513970122683_);}
	.st25{fill:url(#SVGID_00000002347911688847157980000011332038117989051575_);}
	.st26{fill:url(#SVGID_00000103226313568888482150000017485815307449000887_);}
	.st27{opacity:0.6;fill:url(#SVGID_00000128447903376554523000000008457702752835072433_);}
	.st28{opacity:0.6;fill:url(#SVGID_00000021112368449252043920000016808352712200712599_);}
	.st29{fill:url(#SVGID_00000078731681637459087800000012377724830833217456_);}
	.st30{fill:url(#SVGID_00000074415688478982800020000010516434558270573465_);}
	.st31{fill:url(#SVGID_00000168795417138297199510000014265718939756892299_);}
	.st32{fill:url(#SVGID_00000113315700180261939580000004207037704287241623_);}
	.st33{fill:url(#SVGID_00000148628986633870519130000012903479412711053708_);}
	.st34{fill:url(#SVGID_00000163762920101632332950000011525528177770487195_);}
	.st35{fill:url(#SVGID_00000131362796231816334240000008503084125103612863_);}
	.st36{fill:url(#SVGID_00000033328460564945999050000016149971935963923887_);}
	.st37{fill:url(#SVGID_00000142136952557476549260000005061054686491470511_);}
	.st38{fill:url(#SVGID_00000023257764508954621220000013343509903393193364_);}
	.st39{fill:url(#SVGID_00000167357895917783806990000008865722517557175731_);}
	.st40{fill:url(#SVGID_00000095314325504870121240000000016061490115507132_);}
	.st41{fill:url(#SVGID_00000091008638444623127880000013328270196349950392_);}
	.st42{fill:url(#SVGID_00000092449092989923858510000010490172422140520105_);}
	.st43{fill:url(#SVGID_00000108292686132927893930000012996911199509291944_);}
	.st44{fill:url(#SVGID_00000134228952325829178980000011624155493401501112_);}
	.st45{fill:url(#SVGID_00000036219439099615570430000017709929813668006797_);}
	.st46{opacity:0.6;fill:url(#SVGID_00000089550714068878351610000012406050581040562836_);}
	.st47{opacity:0.6;fill:url(#SVGID_00000124127199275923024170000007617898277550328483_);}
	.st48{fill:url(#SVGID_00000072279745261345768600000016531175672917645223_);}
	.st49{fill:url(#SVGID_00000142867160909437275000000016400355692573417100_);}
	.st50{fill:url(#SVGID_00000148633166149370226430000004308790474949909665_);}
	.st51{fill:url(#SVGID_00000172426502576555532970000016565447396740055174_);}
	.st52{fill:url(#SVGID_00000158741223530094283970000008951667726788351644_);}
	.st53{opacity:0.6;fill:url(#SVGID_00000119802563764168340170000011549804841885030026_);}
	.st54{opacity:0.6;fill:url(#SVGID_00000002380929402069583350000009839723033782409148_);}
	.st55{fill:url(#SVGID_00000173869283789235253010000007253617810239253160_);}
	.st56{opacity:0.6;fill:url(#SVGID_00000101809092563374093820000016875228186503402132_);}
	.st57{opacity:0.6;fill:url(#SVGID_00000059292882896958063050000006429713822101380501_);}
	.st58{opacity:0.3;}
	.st59{fill:url(#SVGID_00000129924572975612480540000008161734247720822686_);}
	.st60{fill:url(#SVGID_00000016798259411741691880000003929508821531908254_);}
	.st61{fill:#2D358E;}
	.st62{fill:#43C6F2;}
</style>
<g>
	<path class="st2" d="M214.3,29.1H73.6V0h140.7V29.1z M74.8,27.9h138.3V1.2H74.8V27.9z"/>
</g>
<g>
	<g>
		<path class="st0" d="M91.5,37c-1.2,0-2.2,1.8-2.2,4.1c0,2.2,1,4.1,2.2,4.1c1.2,0,2.2-1.8,2.2-4.1C93.7,38.8,92.7,37,91.5,37z"/>
		<path class="st0" d="M206.9,36.7c-0.3,0-0.5,0.3-0.5,0.9v6.9c0,0.5,0.1,0.9,0.4,0.9c1.5,0,2.3-3,2.3-4.4
			C209.1,39.8,209,36.7,206.9,36.7z"/>
		<path class="st0" d="M73.6,31.8V50h140.7V31.8H73.6z M85.9,36.6c0,0-0.6,0-0.6,1v6.9c0,1,0.6,1,0.6,1v0.3h-3.6v-0.3
			c0,0,0.6,0,0.6-0.8V42h-2.7v2.5c0,1,0.6,1,0.6,1v0.3h-3.6v-0.3c0,0,0.6,0,0.6-0.8v-7.2c-0.1-0.8-0.6-0.8-0.6-0.8v-0.3h3.6v0.3
			c0,0-0.6,0-0.6,1v3.9l0,0h2.6v-4c-0.1-0.8-0.6-0.8-0.6-0.8v-0.3h3.6V36.6z M91.5,45.8C89,45.8,87,43.7,87,41c0-2.6,2-4.7,4.5-4.7
			c2.5,0,4.5,2.1,4.5,4.7C96,43.7,94,45.8,91.5,45.8z M104.1,45.8h-6.8v-0.3c0,0,0.6,0,0.6-0.8v-7.2c-0.1-0.8-0.6-0.8-0.6-0.8v-0.3
			h3.6v0.3c0,0-0.6-0.1-0.6,1l0,7.7h1.7c1.9,0,1.9-1,1.9-1h0.3V45.8z M109.2,45.8h-3.6v-0.3c0,0,0.6,0,0.6-0.8v-7.2
			c-0.1-0.8-0.6-0.8-0.6-0.8v-0.3c0,0,3.3,0,3.6,0c2.8,0,4.4,2.3,4.4,4.7C113.6,43.1,112.3,45.8,109.2,45.8z M118.5,36.6
			c0,0-0.6,0-0.6,1v6.9c0,1,0.6,1,0.6,1v0.3H115v-0.3c0,0,0.6,0,0.6-0.8v-7.2c-0.1-0.8-0.6-0.8-0.6-0.8v-0.3h3.6V36.6z M127.7,36.6
			c0,0-0.6-0.2-0.6,0.8l0,8.3h-0.9l-4.2-8.4c-0.1-0.1-0.1-0.2-0.2-0.3c0,0.1,0,0.2,0,0.3v7.2c0,1,0.6,0.8,0.6,0.8v0.3h-2.2v-0.3
			c0,0,0.6,0,0.6-0.8v-7.2c-0.1-0.8-0.6-0.8-0.6-0.8v-0.3h3.4l2.5,5v-3.8c-0.1-0.8-0.6-0.8-0.6-0.8v-0.3h2.2V36.6z M137.7,42.4
			c-0.2,0-0.3,0.1-0.3,0.5c0,1.2-0.9,3.1-3.4,3c-3.5-0.1-5.1-2.2-5.1-4.8c0-2.6,2.1-4.7,4.6-4.7c1.1,0,2,0.3,2.8,0.9
			c0.3,0.2,0.5-0.5,0.8-0.5v2.5l-0.4,0.1c-0.4-0.7-0.8-2.4-2.9-2.4c-1.9,0-2.7,1.8-2.7,4.1c0,2.2,0.8,4.4,2.7,4.4
			c1.1,0,2.1-0.7,2.1-1.7c0-1.4-0.6-1.3-0.6-1.3v-0.3h2.2V42.4z M142.9,45.9c-2.5,0-2.7-0.7-3.1-0.1c0,0-0.3,0-0.4,0v-2.5h0.4
			c0,1.1,1.6,1.8,3.1,1.8c2.6,0,2.5-2.2,0.6-2.8c-1.7-0.5-4.4-1-4.4-3.5c0,0,0-2.5,3.6-2.5c1.7,0,2,0.8,2.8,0.3
			c0.1-0.1,0.2-0.2,0.4-0.2c0,0.4,0,2.4,0,2.4l-0.3,0c0,0-0.3-1.9-3-1.9c-1.6,0-2.2,2-1.1,2.4c1.5,0.6,5.6,0.8,5.5,4.1
			C146.8,44.8,145.6,45.9,142.9,45.9z M161.7,45.8h-6.8v-0.3c0,0,0.6,0,0.6-0.8v-7.2c-0.1-0.8-0.6-0.8-0.6-0.8v-0.3h3.6v0.3
			c0,0-0.6-0.1-0.6,1l0,7.7h1.7c1.9,0,1.9-1,1.9-1h0.3V45.8z M166.9,36.6c0,0-0.6,0-0.6,1v6.9c0,1,0.6,1,0.6,1v0.3h-3.6v-0.3
			c0,0,0.6,0,0.6-0.8v-7.2c-0.1-0.8-0.6-0.8-0.6-0.8v-0.3h3.6V36.6z M179.2,36.6c0,0-0.6,0-0.6,1v6.9c0,1,0.6,1,0.6,1v0.3h-3.6v-0.3
			c0,0,0.6,0,0.6-0.8v-7.1l-2.7,7.2l-0.3,0.8l-3.1-8v7.1c0,1,0.6,0.8,0.6,0.8v0.3h-2.2v-0.3c0,0,0.6,0,0.6-0.8v-7.2
			c-0.1-0.8-0.6-0.8-0.6-0.8v-0.3h3.8l0,0.3c-0.2,0.2,0,0.6,0.1,1l1.3,3.3l1.5-4c0.1-0.2,0-0.4,0-0.4l0.1-0.3h3.9V36.6z M184.4,36.6
			c0,0-0.6,0-0.6,1v6.9c0,1,0.6,1,0.6,1v0.3h-3.6v-0.3c0,0,0.6,0,0.6-0.8v-7.2c-0.1-0.8-0.6-0.8-0.6-0.8v-0.3h3.6V36.6z M193.2,38.2
			c0,0-0.3-1.3-2.2-1.3c0,0-0.2,0.4-0.2,0.7v6.9c0,1,0.6,1,0.6,1v0.3h-3.6v-0.3c0,0,0.6,0,0.6-0.8v-7.2c0-0.2-0.2-0.5-0.2-0.5
			c-1.9,0-2.2,1.3-2.2,1.3h-0.3l0.3-1.9h7l0.4,1.9H193.2z M199.8,36.9h-1.7v3.3h0.9c1,0,1.2-1,1.2-1h0.3v2.3h-0.3c0,0-0.2-1-1.2-1
			h-0.9v4.8h1.7c1.9,0,1.5-1,1.5-1h0.3l0.3,1.5h-6.8v-0.3c0,0,0.6,0,0.6-0.8v-7.2c-0.1-0.8-0.6-0.8-0.6-0.8v-0.3h6.8l-0.3,1.5h-0.3
			C201.3,37.9,201.7,36.9,199.8,36.9z M207.1,45.8h-3.6v-0.3c0,0,0.6,0,0.6-0.8v-7.2c-0.1-0.8-0.6-0.8-0.6-0.8v-0.3c0,0,3.3,0,3.6,0
			c2.8,0,4.4,2.3,4.4,4.7C211.4,43.1,210.1,45.8,207.1,45.8z"/>
		<path class="st0" d="M109,36.7c-0.3,0-0.5,0.3-0.5,0.9v6.9c0,0.5,0.1,0.9,0.4,0.9c1.5,0,2.3-3,2.3-4.4
			C111.2,39.8,111.1,36.7,109,36.7z"/>
	</g>
</g>
<g>
	<g>
		<path class="st2" d="M95,16.2h-8.5c-1.1,0-2.1-0.9-2.1-2.1s0.9-2.1,2.1-2.1H95c1,0,1.8-0.8,1.8-1.8V9.1c0-1-0.8-1.8-1.8-1.8H83.5
			c-1.1,0-2.1-0.9-2.1-2.1c0-1.1,0.9-2.1,2.1-2.1H95c3.3,0,5.9,2.7,5.9,5.9v1.1C101,13.5,98.3,16.2,95,16.2z"/>
	</g>
	<g>
		<path class="st2" d="M131.3,25.6h-8.2c-3.3,0-6-2.7-6-6v-3c0-3.3,2.7-6,6-6h8.2c3.3,0,6,2.7,6,6v3
			C137.2,22.9,134.6,25.6,131.3,25.6z M123.1,14.8c-1,0-1.8,0.8-1.8,1.8v3c0,1,0.8,1.8,1.8,1.8h8.2c1,0,1.8-0.8,1.8-1.8v-3
			c0-1-0.8-1.8-1.8-1.8H123.1z"/>
	</g>
	<g>
		<path class="st2" d="M158.6,25.6c-1.1,0-2.1-0.9-2.1-2.1v-7.7c0-0.9-0.7-1.6-1.6-1.6h-9.2c-0.9,0-1.6,0.7-1.6,1.6v7.7
			c0,1.1-0.9,2.1-2.1,2.1c-1.1,0-2.1-0.9-2.1-2.1v-7.7c0-3.1,2.6-5.7,5.7-5.7h9.2c3.1,0,5.7,2.6,5.7,5.7v7.7
			C160.7,24.7,159.8,25.6,158.6,25.6z"/>
	</g>
	<g>
		<path class="st2" d="M150.4,24.2c-1,0-1.7-0.8-1.7-1.7v-5.1c0-1,0.8-1.7,1.7-1.7c1,0,1.7,0.8,1.7,1.7v5.1
			C152.1,23.4,151.4,24.2,150.4,24.2z"/>
	</g>
	<g>
		<path class="st2" d="M113.4,18.7c-1,0-1.9-0.8-1.9-1.9v-2.4c0-0.3-0.2-0.5-0.5-0.5h-6.4c-1,0-1.9-0.8-1.9-1.9s0.8-1.9,1.9-1.9h6.4
			c2.3,0,4.2,1.9,4.2,4.2v2.4C115.2,17.9,114.4,18.7,113.4,18.7z"/>
	</g>
	<g>
		<path class="st2" d="M82.5,25.3c-1,0-1.7-0.8-1.7-1.7v-6.9c0-1,0.8-1.7,1.7-1.7c1,0,1.7,0.8,1.7,1.7v6.9
			C84.2,24.5,83.4,25.3,82.5,25.3z"/>
	</g>
	<g>
		<path class="st2" d="M103.4,25.5c-1,0-1.7-0.8-1.7-1.7V9c0-1,0.8-1.7,1.7-1.7c1,0,1.7,0.8,1.7,1.7v14.7
			C105.2,24.7,104.4,25.5,103.4,25.5z"/>
	</g>
	<g>
		<path class="st2" d="M166.2,25.6c-1,0-1.7-0.8-1.7-1.7V12.7c0-1,0.8-1.7,1.7-1.7c1,0,1.7,0.8,1.7,1.7v11.2
			C167.9,24.9,167.1,25.6,166.2,25.6z"/>
	</g>
	<circle class="st0" cx="166.1" cy="6.8" r="2"/>
	<g>
		<path class="st2" d="M184.8,25.6h-11.7c-1,0-1.7-0.8-1.7-1.7c0-1,0.8-1.7,1.7-1.7h11.3v-2.7h-10.1c-1.7,0-3.1-1.4-3.1-3.1V13
			c0-1.7,1.4-3.1,3.1-3.1h10.6c1,0,1.7,0.8,1.7,1.7s-0.8,1.7-1.7,1.7h-10.2v2.4h10.1c1.7,0,3.1,1.4,3.1,3.1v3.6
			C187.8,24.2,186.5,25.6,184.8,25.6z"/>
	</g>
	<g>
		<path class="st2" d="M205.4,25.9h-11.6c-1.7,0-3.1-1.4-3.1-3.1v-8.2c0-2.4,1.9-4.3,4.3-4.3h7.2c2.7,0,4.9,2.2,4.9,4.9
			s-2.2,4.9-4.9,4.9h-8v2.3h11.2c1,0,1.7,0.8,1.7,1.7C207.1,25.2,206.3,25.9,205.4,25.9z M194.2,16.7h8c0.8,0,1.4-0.6,1.4-1.4
			c0-0.8-0.6-1.4-1.4-1.4H195c-0.4,0-0.8,0.4-0.8,0.8V16.7z"/>
	</g>
</g>
<g>
	<g>
		<rect x="27.8" y="31.4" class="st2" width="1.7" height="1.7"/>
		<rect x="30.3" y="31.4" class="st2" width="1.7" height="1.7"/>
		<rect x="27.8" y="33.9" class="st2" width="1.7" height="1.7"/>
		<rect x="30.3" y="33.9" class="st2" width="1.7" height="1.7"/>
	</g>
	<g>
		<rect x="49.6" y="38.4" class="st2" width="2.7" height="2.7"/>
		<rect x="53.5" y="38.4" class="st2" width="2.7" height="2.7"/>
		<rect x="49.6" y="42.2" class="st2" width="2.7" height="2.7"/>
		<rect x="53.5" y="42.2" class="st2" width="2.7" height="2.7"/>
	</g>
	
		<linearGradient id="SVGID_1_" gradientUnits="userSpaceOnUse" x1="-3856.332" y1="1727.0802" x2="-3856.332" y2="1538.8527" gradientTransform="matrix(0.1914 0 0 0.1914 759.4657 -280.9029)">
		<stop  offset="0" style="stop-color:#05509F"/>
		<stop  offset="1" style="stop-color:#26B3E8"/>
	</linearGradient>
	<path class="st3" d="M25.8,44.6v-11L17.1,38v7.2c-0.2,3.2-2.4,3-2.4,3v1.2h13.4v-1.2C28.1,48.3,25.8,48.5,25.8,44.6z"/>
	
		<linearGradient id="SVGID_00000088811820175762079400000017868130191122484131_" gradientUnits="userSpaceOnUse" x1="-3856.332" y1="1727.0802" x2="-3856.332" y2="1538.8527" gradientTransform="matrix(0.1914 0 0 0.1914 759.4657 -280.9029)">
		<stop  offset="0" style="stop-color:#05509F"/>
		<stop  offset="1" style="stop-color:#26B3E8"/>
	</linearGradient>
	<path style="fill:url(#SVGID_00000088811820175762079400000017868130191122484131_);" d="M14.8,14.1v1.2c0,0,2.2-0.2,2.4,3v17
		l8.6-4.4v-12c0-3.8,2.4-3.6,2.4-3.6v-1.2H14.8z"/>
	
		<linearGradient id="SVGID_00000110461504278998315870000007575597878262158472_" gradientUnits="userSpaceOnUse" x1="-3718.0132" y1="1727.0802" x2="-3718.0132" y2="1538.8527" gradientTransform="matrix(0.1914 0 0 0.1914 759.4657 -280.9029)">
		<stop  offset="0" style="stop-color:#05509F"/>
		<stop  offset="1" style="stop-color:#26B3E8"/>
	</linearGradient>
	<path style="fill:url(#SVGID_00000110461504278998315870000007575597878262158472_);" d="M63.1,43.9c0,0,0.1,3.7-7,3.7H42.7l0-9.6
		L34,33.5v11.8c-0.3,3.2-2.4,3-2.4,3v1.2h32.5v-5.5H63.1z"/>
	
		<linearGradient id="SVGID_00000029726463988382519360000016328205961306849458_" gradientUnits="userSpaceOnUse" x1="-3767.9607" y1="1727.0802" x2="-3767.9607" y2="1538.8527" gradientTransform="matrix(0.1914 0 0 0.1914 759.4657 -280.9029)">
		<stop  offset="0" style="stop-color:#05509F"/>
		<stop  offset="1" style="stop-color:#26B3E8"/>
	</linearGradient>
	<path style="fill:url(#SVGID_00000029726463988382519360000016328205961306849458_);" d="M34,18.2v12.5l8.7,4.4l0-16.3
		c0-3.8,2.4-3.6,2.4-3.6v-1.2H31.7v1.2C31.7,15.2,33.8,15.1,34,18.2z"/>
	
		<radialGradient id="SVGID_00000160151691333110149910000008553772827184213924_" cx="-3766.8962" cy="1598.73" r="27.666" gradientTransform="matrix(0.1684 9.083909e-02 -9.800865e-03 1.817379e-02 688.7485 338.1827)" gradientUnits="userSpaceOnUse">
		<stop  offset="0" style="stop-color:#707274"/>
		<stop  offset="1" style="stop-color:#FFFFFF;stop-opacity:0"/>
	</radialGradient>
	<path style="opacity:0.6;fill:url(#SVGID_00000160151691333110149910000008553772827184213924_);" d="M34,22.6
		c0.8,0.2,1.6,0.4,2.4,0.8c0.4,0.1,0.7,0.3,1.1,0.5c0.4,0.2,0.7,0.4,1.1,0.5c0.4,0.2,0.7,0.4,1.1,0.6c0.3,0.2,0.7,0.4,1,0.7
		c0.7,0.5,1.3,0.9,2,1.5l0,0.1L38.3,25L34,22.6L34,22.6z"/>
	
		<radialGradient id="SVGID_00000116915210336694718250000012548735843891272127_" cx="1227.7988" cy="1599.3463" r="27.666" gradientTransform="matrix(-0.1684 9.083909e-02 9.800865e-03 1.817379e-02 212.4019 -115.4241)" gradientUnits="userSpaceOnUse">
		<stop  offset="0" style="stop-color:#707274"/>
		<stop  offset="1" style="stop-color:#FFFFFF;stop-opacity:0"/>
	</radialGradient>
	<path style="opacity:0.6;fill:url(#SVGID_00000116915210336694718250000012548735843891272127_);" d="M25.8,22.8
		c-0.8,0.2-1.6,0.4-2.4,0.8c-0.4,0.1-0.7,0.3-1.1,0.5c-0.4,0.2-0.7,0.4-1.1,0.5c-0.4,0.2-0.7,0.4-1.1,0.6c-0.3,0.2-0.7,0.4-1,0.7
		c-0.7,0.5-1.3,0.9-2,1.5l0,0.1l4.3-2.2L25.8,22.8L25.8,22.8z"/>
	
		<linearGradient id="SVGID_00000157274039371142648040000014475470055399674552_" gradientUnits="userSpaceOnUse" x1="-3968.4409" y1="1596.9346" x2="-3633" y2="1596.9346" gradientTransform="matrix(0.1914 0 0 0.1914 759.4657 -280.9029)">
		<stop  offset="0" style="stop-color:#26B3E8"/>
		<stop  offset="1" style="stop-color:#05509F"/>
	</linearGradient>
	<path style="fill:url(#SVGID_00000157274039371142648040000014475470055399674552_);" d="M64.2,17.7c0,4.9-2,9.3-5.2,12.5
		c-3.2,3.2-7.6,5.2-12.5,5.2h-3.4L30,28.7l-16,8.2v-7.9l0.8-0.4l15.2-8l15.2,8h0.9c3,0,5.7-1.2,7.7-3.2c2-2,3.2-4.7,3.2-7.7
		c0-6-4.9-10.9-10.9-10.9H11v37.8c0,3.8,2.4,3.6,2.4,3.6v1.2H0v-1.2c0,0,2.2,0.2,2.4-3V4.2C2.2,1,0,1.2,0,1.2V0h46.5
		C56.3,0,64.2,7.9,64.2,17.7z"/>
	<g>
		<path d="M43.1,35.4c0,0-13.3-6.7-13-6.6c0,0-16,8.1-16,8.1l0-0.1c1.3-0.8,2.5-1.6,3.8-2.4c3.6-2.1,8.1-4.6,11.8-6.4
			c0,0,0.4-0.2,0.4-0.2l0.3,0.2C34.6,30.3,39.3,32.6,43.1,35.4L43.1,35.4z"/>
	</g>
</g>
<g>
	<path class="st2" d="M214.3,50H73.6V31.8h140.7V50z"/>
</g>
<g>
	<path class="st2" d="M214.3,29.1H73.6V0h140.7V29.1z M74.8,27.9h138.3V1.2H74.8V27.9z"/>
</g>
<g>
	<g>
		<path class="st0" d="M80.9,45.8h-3.6v-0.3c0,0,0.6,0,0.6-0.8v-7.2c-0.1-0.8-0.6-0.8-0.6-0.8v-0.3h3.6v0.3c0,0-0.6,0-0.6,1v3.9l0,0
			h2.6v-4c-0.1-0.8-0.6-0.8-0.6-0.8v-0.3h3.6v0.3c0,0-0.6,0-0.6,1v6.9c0,1,0.6,1,0.6,1v0.3h-3.6v-0.3c0,0,0.6,0,0.6-0.8V42h-2.7v2.5
			c0,1,0.6,1,0.6,1V45.8z"/>
		<path class="st0" d="M91.5,36.3c2.5,0,4.5,2.1,4.5,4.7c0,2.6-2,4.7-4.5,4.7C89,45.8,87,43.7,87,41C87,38.4,89,36.3,91.5,36.3z
			 M91.5,37c-1.2,0-2.2,1.8-2.2,4.1c0,2.2,1,4.1,2.2,4.1c1.2,0,2.2-1.8,2.2-4.1C93.7,38.8,92.7,37,91.5,37z"/>
		<path class="st0" d="M97.3,45.5c0,0,0.6,0,0.6-0.8v-7.2c-0.1-0.8-0.6-0.8-0.6-0.8v-0.3h3.6v0.3c0,0-0.6-0.1-0.6,1l0,7.7h1.7
			c1.9,0,1.9-1,1.9-1h0.3v1.5h-6.8V45.5z"/>
		<path class="st0" d="M105.6,36.3c0,0,3.3,0,3.6,0c2.8,0,4.4,2.3,4.4,4.7c0,2.1-1.3,4.7-4.4,4.7h-3.6v-0.3c0,0,0.6,0,0.6-0.8v-7.2
			c-0.1-0.8-0.6-0.8-0.6-0.8V36.3z M109,36.7c-0.3,0-0.5,0.3-0.5,0.9v6.9c0,0.5,0.1,0.9,0.4,0.9c1.5,0,2.3-3,2.3-4.4
			C111.2,39.8,111.1,36.7,109,36.7z"/>
		<path class="st0" d="M115,36.3h3.6v0.3c0,0-0.6,0-0.6,1v6.9c0,1,0.6,1,0.6,1v0.3H115v-0.3c0,0,0.6,0,0.6-0.8v-7.2
			c-0.1-0.8-0.6-0.8-0.6-0.8V36.3z"/>
		<path class="st0" d="M126.1,41.3v-3.8c-0.1-0.8-0.6-0.8-0.6-0.8v-0.3h2.2v0.3c0,0-0.6-0.2-0.6,0.8l0,8.3h-0.9l-4.2-8.4
			c-0.1-0.1-0.1-0.2-0.2-0.3c0,0.1,0,0.2,0,0.3v7.2c0,1,0.6,0.8,0.6,0.8v0.3h-2.2v-0.3c0,0,0.6,0,0.6-0.8v-7.2
			c-0.1-0.8-0.6-0.8-0.6-0.8v-0.3h3.4L126.1,41.3z"/>
		<path class="st0" d="M137.4,42.8c0,1.2-0.9,3.1-3.4,3c-3.5-0.1-5.1-2.2-5.1-4.8c0-2.6,2.1-4.7,4.6-4.7c1.1,0,2,0.3,2.8,0.9
			c0.3,0.2,0.5-0.5,0.8-0.5v2.5l-0.4,0.1c-0.4-0.7-0.8-2.4-2.9-2.4c-1.9,0-2.7,1.8-2.7,4.1c0,2.2,0.8,4.4,2.7,4.4
			c1.1,0,2.1-0.7,2.1-1.7c0-1.4-0.6-1.3-0.6-1.3v-0.3h2.2v0.3C137.5,42.4,137.4,42.5,137.4,42.8z"/>
		<path class="st0" d="M145.9,36.4c0,0.4,0,2.4,0,2.4l-0.3,0c0,0-0.3-1.9-3-1.9c-1.6,0-2.2,2-1.1,2.4c1.5,0.6,5.6,0.8,5.5,4.1
			c-0.1,1.4-1.3,2.4-3.9,2.4c-2.5,0-2.7-0.7-3.1-0.1c0,0-0.3,0-0.4,0v-2.5h0.4c0,1.1,1.6,1.8,3.1,1.8c2.6,0,2.5-2.2,0.6-2.8
			c-1.7-0.5-4.4-1-4.4-3.5c0,0,0-2.5,3.6-2.5c1.7,0,2,0.8,2.8,0.3C145.6,36.5,145.6,36.4,145.9,36.4z"/>
		<path class="st0" d="M154.8,45.5c0,0,0.6,0,0.6-0.8v-7.2c-0.1-0.8-0.6-0.8-0.6-0.8v-0.3h3.6v0.3c0,0-0.6-0.1-0.6,1l0,7.7h1.7
			c1.9,0,1.9-1,1.9-1h0.3v1.5h-6.8V45.5z"/>
		<path class="st0" d="M163.3,36.3h3.6v0.3c0,0-0.6,0-0.6,1v6.9c0,1,0.6,1,0.6,1v0.3h-3.6v-0.3c0,0,0.6,0,0.6-0.8v-7.2
			c-0.1-0.8-0.6-0.8-0.6-0.8V36.3z"/>
		<path class="st0" d="M172.4,36.3l0,0.3c-0.2,0.2,0,0.6,0.1,1l1.3,3.3l1.5-4c0.1-0.2,0-0.4,0-0.4l0.1-0.3h3.9v0.3c0,0-0.6,0-0.6,1
			v6.9c0,1,0.6,1,0.6,1v0.3h-3.6v-0.3c0,0,0.6,0,0.6-0.8v-7.1l-2.7,7.2l-0.3,0.8l-3.1-8v7.1c0,1,0.6,0.8,0.6,0.8v0.3h-2.2v-0.3
			c0,0,0.6,0,0.6-0.8v-7.2c-0.1-0.8-0.6-0.8-0.6-0.8v-0.3H172.4z"/>
		<path class="st0" d="M180.9,36.3h3.6v0.3c0,0-0.6,0-0.6,1v6.9c0,1,0.6,1,0.6,1v0.3h-3.6v-0.3c0,0,0.6,0,0.6-0.8v-7.2
			c-0.1-0.8-0.6-0.8-0.6-0.8V36.3z"/>
		<path class="st0" d="M186.1,36.3h7l0.4,1.9h-0.3c0,0-0.3-1.3-2.2-1.3c0,0-0.2,0.4-0.2,0.7v6.9c0,1,0.6,1,0.6,1v0.3h-3.6v-0.3
			c0,0,0.6,0,0.6-0.8v-7.2c0-0.2-0.2-0.5-0.2-0.5c-1.9,0-2.2,1.3-2.2,1.3h-0.3L186.1,36.3z"/>
		<path class="st0" d="M200.5,41.5h-0.3c0,0-0.2-1-1.2-1h-0.9v4.8h1.7c1.9,0,1.5-1,1.5-1h0.3l0.3,1.5h-6.8v-0.3c0,0,0.6,0,0.6-0.8
			v-7.2c-0.1-0.8-0.6-0.8-0.6-0.8v-0.3h6.8l-0.3,1.5h-0.3c0,0,0.3-1-1.5-1h-1.7v3.3h0.9c1,0,1.2-1,1.2-1h0.3V41.5z"/>
		<path class="st0" d="M203.5,36.3c0,0,3.3,0,3.6,0c2.8,0,4.4,2.3,4.4,4.7c0,2.1-1.3,4.7-4.4,4.7h-3.6v-0.3c0,0,0.6,0,0.6-0.8v-7.2
			c-0.1-0.8-0.6-0.8-0.6-0.8V36.3z M206.9,36.7c-0.3,0-0.5,0.3-0.5,0.9v6.9c0,0.5,0.1,0.9,0.4,0.9c1.5,0,2.3-3,2.3-4.4
			C209.1,39.8,209,36.7,206.9,36.7z"/>
	</g>
</g>
<g>
	<g>
		<path class="st2" d="M95,16.2h-8.5c-1.1,0-2.1-0.9-2.1-2.1s0.9-2.1,2.1-2.1H95c1,0,1.8-0.8,1.8-1.8V9.1c0-1-0.8-1.8-1.8-1.8H83.5
			c-1.1,0-2.1-0.9-2.1-2.1c0-1.1,0.9-2.1,2.1-2.1H95c3.3,0,5.9,2.7,5.9,5.9v1.1C101,13.5,98.3,16.2,95,16.2z"/>
	</g>
	<g>
		<path class="st2" d="M131.3,25.6h-8.2c-3.3,0-6-2.7-6-6v-3c0-3.3,2.7-6,6-6h8.2c3.3,0,6,2.7,6,6v3
			C137.2,22.9,134.6,25.6,131.3,25.6z M123.1,14.8c-1,0-1.8,0.8-1.8,1.8v3c0,1,0.8,1.8,1.8,1.8h8.2c1,0,1.8-0.8,1.8-1.8v-3
			c0-1-0.8-1.8-1.8-1.8H123.1z"/>
	</g>
	<g>
		<path class="st2" d="M158.6,25.6c-1.1,0-2.1-0.9-2.1-2.1v-7.7c0-0.9-0.7-1.6-1.6-1.6h-9.2c-0.9,0-1.6,0.7-1.6,1.6v7.7
			c0,1.1-0.9,2.1-2.1,2.1c-1.1,0-2.1-0.9-2.1-2.1v-7.7c0-3.1,2.6-5.7,5.7-5.7h9.2c3.1,0,5.7,2.6,5.7,5.7v7.7
			C160.7,24.7,159.8,25.6,158.6,25.6z"/>
	</g>
	<g>
		<path class="st2" d="M150.4,24.2c-1,0-1.7-0.8-1.7-1.7v-5.1c0-1,0.8-1.7,1.7-1.7c1,0,1.7,0.8,1.7,1.7v5.1
			C152.1,23.4,151.4,24.2,150.4,24.2z"/>
	</g>
	<g>
		<path class="st2" d="M113.4,18.7c-1,0-1.9-0.8-1.9-1.9v-2.4c0-0.3-0.2-0.5-0.5-0.5h-6.4c-1,0-1.9-0.8-1.9-1.9s0.8-1.9,1.9-1.9h6.4
			c2.3,0,4.2,1.9,4.2,4.2v2.4C115.2,17.9,114.4,18.7,113.4,18.7z"/>
	</g>
	<g>
		<path class="st2" d="M82.5,25.3c-1,0-1.7-0.8-1.7-1.7v-6.9c0-1,0.8-1.7,1.7-1.7c1,0,1.7,0.8,1.7,1.7v6.9
			C84.2,24.5,83.4,25.3,82.5,25.3z"/>
	</g>
	<g>
		<path class="st2" d="M103.4,25.5c-1,0-1.7-0.8-1.7-1.7V9c0-1,0.8-1.7,1.7-1.7c1,0,1.7,0.8,1.7,1.7v14.7
			C105.2,24.7,104.4,25.5,103.4,25.5z"/>
	</g>
	<g>
		<path class="st2" d="M166.2,25.6c-1,0-1.7-0.8-1.7-1.7V12.7c0-1,0.8-1.7,1.7-1.7c1,0,1.7,0.8,1.7,1.7v11.2
			C167.9,24.9,167.1,25.6,166.2,25.6z"/>
	</g>
	<circle class="st2" cx="166.1" cy="6.8" r="2"/>
	<g>
		<path class="st2" d="M184.8,25.6h-11.7c-1,0-1.7-0.8-1.7-1.7c0-1,0.8-1.7,1.7-1.7h11.3v-2.7h-10.1c-1.7,0-3.1-1.4-3.1-3.1V13
			c0-1.7,1.4-3.1,3.1-3.1h10.6c1,0,1.7,0.8,1.7,1.7s-0.8,1.7-1.7,1.7h-10.2v2.4h10.1c1.7,0,3.1,1.4,3.1,3.1v3.6
			C187.8,24.2,186.5,25.6,184.8,25.6z"/>
	</g>
	<g>
		<path class="st2" d="M205.4,25.9h-11.6c-1.7,0-3.1-1.4-3.1-3.1v-8.2c0-2.4,1.9-4.3,4.3-4.3h7.2c2.7,0,4.9,2.2,4.9,4.9
			s-2.2,4.9-4.9,4.9h-8v2.3h11.2c1,0,1.7,0.8,1.7,1.7C207.1,25.2,206.3,25.9,205.4,25.9z M194.2,16.7h8c0.8,0,1.4-0.6,1.4-1.4
			c0-0.8-0.6-1.4-1.4-1.4H195c-0.4,0-0.8,0.4-0.8,0.8V16.7z"/>
	</g>
</g>
</svg>
